SplineFontDB: 3.2
FontName: NotoSansLatin-Regular
FullName: Noto Sans Latin Regular
FamilyName: Noto Sans Latin
Weight: Regular
Copyright: Copyright 2015-2021 Google LLC. All Rights Reserved.
Version: 2.007
ItalicAngle: 0
UnderlinePosition: -125
UnderlineWidth: 50
Ascent: 800
Descent: 200
InvalidEm: 0
sfntRevision: 0x000201cb
LayerCount: 2
Layer: 0 1 "Back" 1
Layer: 1 1 "Fore" 0
XUID: [1021 984 -1507811681 9030412]
StyleMap: 0x0040
FSType: 0
OS2Version: 4
OS2_WeightWidthSlopeOnly: 0
OS2_UseTypoMetrics: 0
CreationTime: 1633362791
ModificationTime: 1645430800
PfmFamily: 17
TTFWeight: 400
TTFWidth: 5
LineGap: 0
VLineGap: 0
Panose: 2 11 5 2 4 5 4 2 2 4
OS2TypoAscent: 1069
OS2TypoAOffset: 0
OS2TypoDescent: -293
OS2TypoDOffset: 0
OS2TypoLinegap: 0
OS2WinAscent: 1069
OS2WinAOffset: 0
OS2WinDescent: 293
OS2WinDOffset: 0
HheadAscent: 1069
HheadAOffset: 0
HheadDescent: -293
HheadDOffset: 0
OS2SubXSize: 650
OS2SubYSize: 600
OS2SubXOff: 0
OS2SubYOff: 75
OS2SupXSize: 650
OS2SupYSize: 600
OS2SupXOff: 0
OS2SupYOff: 350
OS2StrikeYSize: 50
OS2StrikeYPos: 322
OS2CapHeight: 714
OS2XHeight: 536
OS2Vendor: 'GOOG'
OS2CodePages: 0000019f.00000000
OS2UnicodeRanges: e00002ff.4000201f.08000029.00100000
Lookup: 1 0 0 "'aalt' Access All Alternates lookup 0" { "'aalt' Access All Alternates lookup 0 subtable"  } ['aalt' ('DFLT' <'dflt' > 'cyrl' <'MKD ' 'SRB ' 'dflt' > 'grek' <'dflt' > 'latn' <'APPH' 'CAT ' 'IPPH' 'MAH ' 'MOL ' 'NAV ' 'ROM ' 'dflt' > ) ]
Lookup: 3 0 0 "'aalt' Access All Alternates lookup 1" { "'aalt' Access All Alternates lookup 1 subtable"  } ['aalt' ('DFLT' <'dflt' > 'cyrl' <'MKD ' 'SRB ' 'dflt' > 'grek' <'dflt' > 'latn' <'APPH' 'CAT ' 'IPPH' 'MAH ' 'MOL ' 'NAV ' 'ROM ' 'dflt' > ) ]
Lookup: 4 0 0 "'ccmp' Glyph Composition/Decomposition lookup 2" { "'ccmp' Glyph Composition/Decomposition lookup 2 subtable"  } ['ccmp' ('DFLT' <'dflt' > 'cyrl' <'MKD ' 'SRB ' 'dflt' > 'grek' <'dflt' > 'latn' <'APPH' 'CAT ' 'IPPH' 'MAH ' 'MOL ' 'NAV ' 'ROM ' 'dflt' > ) ]

StartChar: .notdef
Encoding: 65536 -1 0
Width: 600
Flags: W
LayerCount: 2
Fore
SplineSet
94 0 m 1,0,-1
 94 714 l 1,1,-1
 505 714 l 1,2,-1
 505 0 l 1,3,-1
 94 0 l 1,0,-1
145 51 m 1,4,-1
 454 51 l 1,5,-1
 454 663 l 1,6,-1
 145 663 l 1,7,-1
 145 51 l 1,4,-1
EndSplineSet
EndChar

StartChar: exclam
Encoding: 33 33 4
Width: 269
Flags: W
LayerCount: 2
Fore
SplineSet
163 201 m 1,0,-1
 106 201 l 1,1,-1
 81 714 l 1,2,-1
 188 714 l 1,3,-1
 163 201 l 1,0,-1
72 54 m 0,4,5
 72 91 72 91 90 106 c 128,-1,6
 108 121 108 121 134 121 c 0,7,8
 159 121 159 121 177.5 106 c 128,-1,9
 196 91 196 91 196 54 c 0,10,11
 196 18 196 18 177.5 2 c 128,-1,12
 159 -14 159 -14 134 -14 c 0,13,14
 108 -14 108 -14 90 2 c 128,-1,15
 72 18 72 18 72 54 c 0,4,5
EndSplineSet
Substitution2: "'smcp' Lowercase to Small Capitals lookup 37 subtable" exclam.sc
Substitution2: "'c2sc' Capitals to Small Capitals lookup 36 subtable" exclam.sc
Substitution2: "'aalt' Access All Alternates lookup 0 subtable" exclam.sc
EndChar

StartChar: quotedbl
Encoding: 34 34 5
Width: 408
Flags: W
LayerCount: 2
Fore
SplineSet
160 714 m 1,0,-1
 140 456 l 1,1,-1
 85 456 l 1,2,-1
 65 714 l 1,3,-1
 160 714 l 1,0,-1
343 714 m 1,4,-1
 323 456 l 1,5,-1
 268 456 l 1,6,-1
 248 714 l 1,7,-1
 343 714 l 1,4,-1
EndSplineSet
EndChar

StartChar: numbersign
Encoding: 35 35 6
Width: 646
Flags: W
LayerCount: 2
Fore
SplineSet
480 436 m 1,0,-1
 449 276 l 1,1,-1
 586 276 l 1,2,-1
 586 209 l 1,3,-1
 436 209 l 1,4,-1
 395 0 l 1,5,-1
 324 0 l 1,6,-1
 365 209 l 1,7,-1
 222 209 l 1,8,-1
 183 0 l 1,9,-1
 113 0 l 1,10,-1
 151 209 l 1,11,-1
 25 209 l 1,12,-1
 25 276 l 1,13,-1
 164 276 l 1,14,-1
 196 436 l 1,15,-1
 62 436 l 1,16,-1
 62 502 l 1,17,-1
 208 502 l 1,18,-1
 248 714 l 1,19,-1
 320 714 l 1,20,-1
 280 502 l 1,21,-1
 424 502 l 1,22,-1
 464 714 l 1,23,-1
 533 714 l 1,24,-1
 493 502 l 1,25,-1
 620 502 l 1,26,-1
 620 436 l 1,27,-1
 480 436 l 1,0,-1
235 276 m 1,28,-1
 378 276 l 1,29,-1
 409 436 l 1,30,-1
 266 436 l 1,31,-1
 235 276 l 1,28,-1
EndSplineSet
EndChar

StartChar: dollar
Encoding: 36 36 7
Width: 572
Flags: W
LayerCount: 2
Fore
SplineSet
253 49 m 1,0,1
 198 50 198 50 146 58.5 c 128,-1,2
 94 67 94 67 62 82 c 1,3,-1
 62 167 l 1,4,5
 96 151 96 151 149 139 c 128,-1,6
 202 127 202 127 253 126 c 1,7,-1
 253 328 l 1,8,9
 154 355 154 355 108 396 c 128,-1,10
 62 437 62 437 62 508 c 0,11,12
 62 582 62 582 113.5 624 c 128,-1,13
 165 666 165 666 253 671 c 1,14,-1
 253 759 l 1,15,-1
 317 759 l 1,16,-1
 317 672 l 1,17,18
 370 671 370 671 413.5 660.5 c 128,-1,19
 457 650 457 650 493 635 c 1,20,-1
 466 561 l 1,21,22
 434 574 434 574 395.5 583.5 c 128,-1,23
 357 593 357 593 317 596 c 1,24,-1
 317 395 l 1,25,26
 383 376 383 376 427 354.5 c 128,-1,27
 471 333 471 333 493.5 301.5 c 128,-1,28
 516 270 516 270 516 220 c 0,29,30
 516 150 516 150 464 106.5 c 128,-1,31
 412 63 412 63 317 53 c 1,32,-1
 317 -58 l 1,33,-1
 253 -58 l 1,34,-1
 253 49 l 1,0,1
253 594 m 1,35,36
 199 590 199 590 173.5 569 c 128,-1,37
 148 548 148 548 148 515 c 0,38,39
 148 475 148 475 170.5 453.5 c 128,-1,40
 193 432 193 432 253 417 c 1,41,-1
 253 594 l 1,35,36
317 131 m 1,42,43
 376 137 376 137 403 158.5 c 128,-1,44
 430 180 430 180 430 214 c 0,45,46
 430 252 430 252 406 271.5 c 128,-1,47
 382 291 382 291 317 307 c 1,48,-1
 317 131 l 1,42,43
EndSplineSet
EndChar

StartChar: percent
Encoding: 37 37 8
Width: 831
Flags: W
LayerCount: 2
Fore
SplineSet
195 724 m 0,0,1
 269 724 269 724 307 665.5 c 128,-1,2
 345 607 345 607 345 501 c 256,3,4
 345 395 345 395 308.5 335.5 c 128,-1,5
 272 276 272 276 195 276 c 0,6,7
 124 276 124 276 86.5 335.5 c 128,-1,8
 49 395 49 395 49 501 c 256,9,10
 49 607 49 607 84 665.5 c 128,-1,11
 119 724 119 724 195 724 c 0,0,1
652 714 m 1,12,-1
 256 0 l 1,13,-1
 179 0 l 1,14,-1
 575 714 l 1,15,-1
 652 714 l 1,12,-1
195 662 m 0,16,17
 157 662 157 662 139.5 621.5 c 128,-1,18
 122 581 122 581 122 501 c 256,19,20
 122 421 122 421 139.5 380 c 128,-1,21
 157 339 157 339 195 339 c 0,22,23
 272 339 272 339 272 501 c 0,24,25
 272 662 272 662 195 662 c 0,16,17
632 438 m 0,26,27
 705 438 705 438 743.5 379.5 c 128,-1,28
 782 321 782 321 782 215 c 256,29,30
 782 109 782 109 745.5 49.5 c 128,-1,31
 709 -10 709 -10 632 -10 c 0,32,33
 561 -10 561 -10 523.5 49.5 c 128,-1,34
 486 109 486 109 486 215 c 256,35,36
 486 321 486 321 521 379.5 c 128,-1,37
 556 438 556 438 632 438 c 0,26,27
632 375 m 0,38,39
 594 375 594 375 576.5 335 c 128,-1,40
 559 295 559 295 559 215 c 0,41,42
 559 134 559 134 576.5 93.5 c 128,-1,43
 594 53 594 53 632 53 c 0,44,45
 709 53 709 53 709 215 c 0,46,47
 709 375 709 375 632 375 c 0,38,39
EndSplineSet
EndChar

StartChar: ampersand
Encoding: 38 38 9
Width: 732
Flags: W
LayerCount: 2
Fore
SplineSet
304 725 m 0,0,1
 384 725 384 725 430.5 684.5 c 128,-1,2
 477 644 477 644 477 571 c 0,3,4
 477 508 477 508 436.5 464 c 128,-1,5
 396 420 396 420 334 384 c 1,6,-1
 527 198 l 1,7,8
 553 229 553 229 569.5 269.5 c 128,-1,9
 586 310 586 310 597 357 c 1,10,-1
 686 357 l 1,11,12
 670 293 670 293 646 238 c 128,-1,13
 622 183 622 183 584 142 c 1,14,-1
 730 0 l 1,15,-1
 611 0 l 1,16,-1
 524 84 l 1,17,18
 477 42 477 42 419 16 c 128,-1,19
 361 -10 361 -10 278 -10 c 0,20,21
 175 -10 175 -10 114 41 c 128,-1,22
 53 92 53 92 53 186 c 0,23,24
 53 263 53 263 94.5 309.5 c 128,-1,25
 136 356 136 356 207 396 c 1,26,27
 175 432 175 432 147.5 473 c 128,-1,28
 120 514 120 514 120 569 c 0,29,30
 120 643 120 643 169.5 684 c 128,-1,31
 219 725 219 725 304 725 c 0,0,1
301 653 m 0,32,33
 259 653 259 653 232.5 631 c 128,-1,34
 206 609 206 609 206 570 c 0,35,36
 206 534 206 534 225 503.5 c 128,-1,37
 244 473 244 473 280 436 c 1,38,39
 339 470 339 470 364.5 500.5 c 128,-1,40
 390 531 390 531 390 571 c 0,41,42
 390 607 390 607 366 630 c 128,-1,43
 342 653 342 653 301 653 c 0,32,33
260 341 m 1,44,45
 206 309 206 309 175.5 276 c 128,-1,46
 145 243 145 243 145 189 c 0,47,48
 145 134 145 134 182 101 c 128,-1,49
 219 68 219 68 281 68 c 0,50,51
 345 68 345 68 391 89 c 128,-1,52
 437 110 437 110 468 139 c 1,53,-1
 260 341 l 1,44,45
EndSplineSet
Substitution2: "'smcp' Lowercase to Small Capitals lookup 37 subtable" ampersand.sc
Substitution2: "'c2sc' Capitals to Small Capitals lookup 36 subtable" ampersand.sc
Substitution2: "'aalt' Access All Alternates lookup 0 subtable" ampersand.sc
EndChar

StartChar: quotesingle
Encoding: 39 39 10
Width: 225
Flags: W
LayerCount: 2
Fore
SplineSet
160 714 m 1,0,-1
 140 456 l 1,1,-1
 85 456 l 1,2,-1
 65 714 l 1,3,-1
 160 714 l 1,0,-1
EndSplineSet
EndChar

StartChar: parenleft
Encoding: 40 40 11
Width: 300
Flags: W
LayerCount: 2
Fore
SplineSet
40 274 m 0,0,1
 40 396 40 396 75.5 509.5 c 128,-1,2
 111 623 111 623 187 714 c 1,3,-1
 270 714 l 1,4,5
 200 620 200 620 164.5 507 c 128,-1,6
 129 394 129 394 129 275 c 0,7,8
 129 159 129 159 164.5 47.5 c 128,-1,9
 200 -64 200 -64 269 -158 c 1,10,-1
 187 -158 l 1,11,12
 111 -70 111 -70 75.5 41.5 c 128,-1,13
 40 153 40 153 40 274 c 0,0,1
EndSplineSet
Substitution2: "'smcp' Lowercase to Small Capitals lookup 37 subtable" parenleft.sc
Substitution2: "'c2sc' Capitals to Small Capitals lookup 36 subtable" parenleft.sc
Substitution2: "'sups' Superscript lookup 22 subtable" uni207D
Substitution2: "'sinf' Scientific Inferiors lookup 21 subtable" uni208D
Substitution2: "'subs' Subscript lookup 20 subtable" uni208D
AlternateSubs2: "'aalt' Access All Alternates lookup 1 subtable" uni208D uni207D parenleft.sc
EndChar

StartChar: parenright
Encoding: 41 41 12
Width: 300
Flags: W
LayerCount: 2
Fore
SplineSet
260 274 m 0,0,1
 260 153 260 153 224.5 41.5 c 128,-1,2
 189 -70 189 -70 113 -158 c 1,3,-1
 31 -158 l 1,4,5
 100 -64 100 -64 135.5 47.5 c 128,-1,6
 171 159 171 159 171 275 c 0,7,8
 171 394 171 394 135.5 507 c 128,-1,9
 100 620 100 620 30 714 c 1,10,-1
 113 714 l 1,11,12
 189 623 189 623 224.5 509.5 c 128,-1,13
 260 396 260 396 260 274 c 0,0,1
EndSplineSet
Substitution2: "'smcp' Lowercase to Small Capitals lookup 37 subtable" parenright.sc
Substitution2: "'c2sc' Capitals to Small Capitals lookup 36 subtable" parenright.sc
Substitution2: "'sups' Superscript lookup 22 subtable" uni207E
Substitution2: "'sinf' Scientific Inferiors lookup 21 subtable" uni208E
Substitution2: "'subs' Subscript lookup 20 subtable" uni208E
AlternateSubs2: "'aalt' Access All Alternates lookup 1 subtable" uni208E uni207E parenright.sc
EndChar

StartChar: asterisk
Encoding: 42 42 13
Width: 551
Flags: W
LayerCount: 2
Fore
SplineSet
322 760 m 1,0,-1
 302 568 l 1,1,-1
 494 622 l 1,2,-1
 508 530 l 1,3,-1
 324 515 l 1,4,-1
 443 357 l 1,5,-1
 357 310 l 1,6,-1
 272 485 l 1,7,-1
 195 310 l 1,8,-1
 106 357 l 1,9,-1
 223 515 l 1,10,-1
 41 530 l 1,11,-1
 55 622 l 1,12,-1
 245 568 l 1,13,-1
 224 760 l 1,14,-1
 322 760 l 1,0,-1
EndSplineSet
EndChar

StartChar: plus
Encoding: 43 43 14
Width: 572
Flags: W
LayerCount: 2
Fore
SplineSet
321 388 m 1,0,-1
 520 388 l 1,1,-1
 520 317 l 1,2,-1
 321 317 l 1,3,-1
 321 111 l 1,4,-1
 249 111 l 1,5,-1
 249 317 l 1,6,-1
 50 317 l 1,7,-1
 50 388 l 1,8,-1
 249 388 l 1,9,-1
 249 595 l 1,10,-1
 321 595 l 1,11,-1
 321 388 l 1,0,-1
EndSplineSet
Substitution2: "'sups' Superscript lookup 22 subtable" uni207A
Substitution2: "'sinf' Scientific Inferiors lookup 21 subtable" uni208A
Substitution2: "'subs' Subscript lookup 20 subtable" uni208A
AlternateSubs2: "'aalt' Access All Alternates lookup 1 subtable" uni208A uni207A
EndChar

StartChar: comma
Encoding: 44 44 15
Width: 268
Flags: W
LayerCount: 2
Fore
SplineSet
192 105 m 1,0,1
 179 52 179 52 154.5 -11.5 c 128,-1,2
 130 -75 130 -75 106 -129 c 1,3,-1
 41 -129 l 1,4,5
 55 -72 55 -72 69.5 -4 c 128,-1,6
 84 64 84 64 91 116 c 1,7,-1
 185 116 l 1,8,-1
 192 105 l 1,0,1
EndSplineSet
EndChar

StartChar: hyphen
Encoding: 45 45 16
Width: 322
Flags: W
LayerCount: 2
Fore
SplineSet
40 229 m 1,0,-1
 40 307 l 1,1,-1
 282 307 l 1,2,-1
 282 229 l 1,3,-1
 40 229 l 1,0,-1
EndSplineSet
EndChar

StartChar: period
Encoding: 46 46 17
Width: 268
Flags: W
LayerCount: 2
Fore
SplineSet
72 54 m 0,0,1
 72 91 72 91 90 106 c 128,-1,2
 108 121 108 121 133 121 c 0,3,4
 159 121 159 121 177.5 106 c 128,-1,5
 196 91 196 91 196 54 c 0,6,7
 196 18 196 18 177.5 2 c 128,-1,8
 159 -14 159 -14 133 -14 c 0,9,10
 108 -14 108 -14 90 2 c 128,-1,11
 72 18 72 18 72 54 c 0,0,1
EndSplineSet
EndChar

StartChar: slash
Encoding: 47 47 18
Width: 372
Flags: W
LayerCount: 2
Fore
SplineSet
362 714 m 1,0,-1
 96 0 l 1,1,-1
 10 0 l 1,2,-1
 276 714 l 1,3,-1
 362 714 l 1,0,-1
EndSplineSet
Substitution2: "'frac' Diagonal Fractions lookup 25 subtable" fraction
Substitution2: "'aalt' Access All Alternates lookup 0 subtable" fraction
EndChar

StartChar: zero
Encoding: 48 48 19
Width: 572
Flags: W
LayerCount: 2
Fore
SplineSet
523 358 m 0,0,1
 523 243 523 243 499 160.5 c 128,-1,2
 475 78 475 78 423 34 c 128,-1,3
 371 -10 371 -10 285 -10 c 0,4,5
 164 -10 164 -10 106.5 87.5 c 128,-1,6
 49 185 49 185 49 358 c 0,7,8
 49 474 49 474 72.5 556 c 128,-1,9
 96 638 96 638 148 681.5 c 128,-1,10
 200 725 200 725 285 725 c 0,11,12
 405 725 405 725 464 628.5 c 128,-1,13
 523 532 523 532 523 358 c 0,0,1
137 358 m 0,14,15
 137 211 137 211 170.5 138 c 128,-1,16
 204 65 204 65 285 65 c 0,17,18
 365 65 365 65 399.5 137.5 c 128,-1,19
 434 210 434 210 434 358 c 0,20,21
 434 504 434 504 399.5 577 c 128,-1,22
 365 650 365 650 285 650 c 0,23,24
 204 650 204 650 170.5 577 c 128,-1,25
 137 504 137 504 137 358 c 0,14,15
EndSplineSet
Substitution2: "'zero' Slashed Zero lookup 41 subtable" zero.slash
Substitution2: "'case' Case-Sensitive Forms lookup 38 subtable" zero.lf
Substitution2: "'onum' Oldstyle Figures lookup 35 subtable" zero.tosf
Substitution2: "'pnum' Proportional Numbers lookup 33 subtable" zero.lf
Substitution2: "'frac' Diagonal Fractions lookup 26 subtable" zero.numr
Substitution2: "'dnom' Denominators lookup 24 subtable" zero.dnom
Substitution2: "'numr' Numerators lookup 23 subtable" zero.numr
Substitution2: "'sups' Superscript lookup 22 subtable" uni2070
Substitution2: "'sinf' Scientific Inferiors lookup 21 subtable" uni2080
Substitution2: "'subs' Subscript lookup 20 subtable" uni2080
AlternateSubs2: "'aalt' Access All Alternates lookup 1 subtable" uni2070 zero.tosf zero.lf zero.slash uni2080 zero.dnom zero.numr
EndChar

StartChar: one
Encoding: 49 49 20
Width: 572
Flags: W
LayerCount: 2
Fore
SplineSet
355 0 m 1,0,-1
 269 0 l 1,1,-1
 269 499 l 2,2,3
 269 542 269 542 270 568 c 128,-1,4
 271 594 271 594 273 622 c 1,5,6
 257 606 257 606 244 595 c 128,-1,7
 231 584 231 584 211 567 c 2,8,-1
 135 505 l 1,9,-1
 89 564 l 1,10,-1
 282 714 l 1,11,-1
 355 714 l 1,12,-1
 355 0 l 1,0,-1
EndSplineSet
Substitution2: "'case' Case-Sensitive Forms lookup 38 subtable" one.lf
Substitution2: "'onum' Oldstyle Figures lookup 35 subtable" one.tosf
Substitution2: "'pnum' Proportional Numbers lookup 33 subtable" one.lf
Substitution2: "'frac' Diagonal Fractions lookup 26 subtable" one.numr
Substitution2: "'dnom' Denominators lookup 24 subtable" one.dnom
Substitution2: "'numr' Numerators lookup 23 subtable" one.numr
Substitution2: "'sups' Superscript lookup 22 subtable" uni00B9
Substitution2: "'sinf' Scientific Inferiors lookup 21 subtable" uni2081
Substitution2: "'subs' Subscript lookup 20 subtable" uni2081
AlternateSubs2: "'aalt' Access All Alternates lookup 1 subtable" uni00B9 one.tosf one.lf uni2081 one.dnom one.numr
EndChar

StartChar: two
Encoding: 50 50 21
Width: 572
Flags: W
LayerCount: 2
Fore
SplineSet
520 0 m 1,0,-1
 48 0 l 1,1,-1
 48 73 l 1,2,-1
 235 262 l 2,3,4
 289 316 289 316 326 358 c 128,-1,5
 363 400 363 400 382 440.5 c 128,-1,6
 401 481 401 481 401 529 c 0,7,8
 401 588 401 588 366 618.5 c 128,-1,9
 331 649 331 649 275 649 c 0,10,11
 223 649 223 649 183.5 631 c 128,-1,12
 144 613 144 613 103 581 c 1,13,-1
 56 640 l 1,14,15
 98 675 98 675 152.5 699.5 c 128,-1,16
 207 724 207 724 275 724 c 0,17,18
 375 724 375 724 433 673.5 c 128,-1,19
 491 623 491 623 491 534 c 0,20,21
 491 478 491 478 468 429 c 128,-1,22
 445 380 445 380 404 332.5 c 128,-1,23
 363 285 363 285 308 231 c 2,24,-1
 159 84 l 1,25,-1
 159 80 l 1,26,-1
 520 80 l 1,27,-1
 520 0 l 1,0,-1
EndSplineSet
Substitution2: "'case' Case-Sensitive Forms lookup 38 subtable" two.lf
Substitution2: "'onum' Oldstyle Figures lookup 35 subtable" two.tosf
Substitution2: "'pnum' Proportional Numbers lookup 33 subtable" two.lf
Substitution2: "'frac' Diagonal Fractions lookup 26 subtable" two.numr
Substitution2: "'dnom' Denominators lookup 24 subtable" two.dnom
Substitution2: "'numr' Numerators lookup 23 subtable" two.numr
Substitution2: "'sups' Superscript lookup 22 subtable" uni00B2
Substitution2: "'sinf' Scientific Inferiors lookup 21 subtable" uni2082
Substitution2: "'subs' Subscript lookup 20 subtable" uni2082
AlternateSubs2: "'aalt' Access All Alternates lookup 1 subtable" uni00B2 two.tosf two.lf uni2082 two.dnom two.numr
EndChar

StartChar: three
Encoding: 51 51 22
Width: 572
Flags: W
LayerCount: 2
Fore
SplineSet
493 547 m 0,0,1
 493 475 493 475 453 432.5 c 128,-1,2
 413 390 413 390 345 376 c 1,3,-1
 345 372 l 1,4,5
 431 362 431 362 473 318 c 128,-1,6
 515 274 515 274 515 203 c 0,7,8
 515 141 515 141 486 92.5 c 128,-1,9
 457 44 457 44 396.5 17 c 128,-1,10
 336 -10 336 -10 241 -10 c 0,11,12
 185 -10 185 -10 137 -1.5 c 128,-1,13
 89 7 89 7 45 29 c 1,14,-1
 45 111 l 1,15,16
 90 89 90 89 142 76.5 c 128,-1,17
 194 64 194 64 242 64 c 0,18,19
 338 64 338 64 380.5 101.5 c 128,-1,20
 423 139 423 139 423 205 c 0,21,22
 423 272 423 272 370.5 301.5 c 128,-1,23
 318 331 318 331 223 331 c 2,24,-1
 154 331 l 1,25,-1
 154 406 l 1,26,-1
 224 406 l 2,27,28
 312 406 312 406 357.5 443 c 128,-1,29
 403 480 403 480 403 541 c 0,30,31
 403 593 403 593 368 621.5 c 128,-1,32
 333 650 333 650 273 650 c 0,33,34
 215 650 215 650 174 633 c 128,-1,35
 133 616 133 616 93 590 c 1,36,-1
 49 650 l 1,37,38
 87 680 87 680 143.5 702 c 128,-1,39
 200 724 200 724 272 724 c 0,40,41
 384 724 384 724 438.5 674 c 128,-1,42
 493 624 493 624 493 547 c 0,0,1
EndSplineSet
Substitution2: "'case' Case-Sensitive Forms lookup 38 subtable" three.lf
Substitution2: "'onum' Oldstyle Figures lookup 35 subtable" three.tosf
Substitution2: "'pnum' Proportional Numbers lookup 33 subtable" three.lf
Substitution2: "'frac' Diagonal Fractions lookup 26 subtable" three.numr
Substitution2: "'dnom' Denominators lookup 24 subtable" three.dnom
Substitution2: "'numr' Numerators lookup 23 subtable" three.numr
Substitution2: "'sups' Superscript lookup 22 subtable" uni00B3
Substitution2: "'sinf' Scientific Inferiors lookup 21 subtable" uni2083
Substitution2: "'subs' Subscript lookup 20 subtable" uni2083
AlternateSubs2: "'aalt' Access All Alternates lookup 1 subtable" uni00B3 three.tosf three.lf uni2083 three.dnom three.numr
EndChar

StartChar: four
Encoding: 52 52 23
Width: 572
Flags: W
LayerCount: 2
Fore
SplineSet
552 162 m 1,0,-1
 448 162 l 1,1,-1
 448 0 l 1,2,-1
 363 0 l 1,3,-1
 363 162 l 1,4,-1
 21 162 l 1,5,-1
 21 237 l 1,6,-1
 357 718 l 1,7,-1
 448 718 l 1,8,-1
 448 241 l 1,9,-1
 552 241 l 1,10,-1
 552 162 l 1,0,-1
363 466 m 2,11,12
 363 518 363 518 365 554.5 c 128,-1,13
 367 591 367 591 368 624 c 1,14,-1
 364 624 l 1,15,16
 356 605 356 605 344 583 c 128,-1,17
 332 561 332 561 321 546 c 2,18,-1
 107 241 l 1,19,-1
 363 241 l 1,20,-1
 363 466 l 2,11,12
EndSplineSet
Substitution2: "'case' Case-Sensitive Forms lookup 38 subtable" four.lf
Substitution2: "'onum' Oldstyle Figures lookup 35 subtable" four.tosf
Substitution2: "'pnum' Proportional Numbers lookup 33 subtable" four.lf
Substitution2: "'frac' Diagonal Fractions lookup 26 subtable" four.numr
Substitution2: "'dnom' Denominators lookup 24 subtable" four.dnom
Substitution2: "'numr' Numerators lookup 23 subtable" four.numr
Substitution2: "'sups' Superscript lookup 22 subtable" uni2074
Substitution2: "'sinf' Scientific Inferiors lookup 21 subtable" uni2084
Substitution2: "'subs' Subscript lookup 20 subtable" uni2084
AlternateSubs2: "'aalt' Access All Alternates lookup 1 subtable" uni2074 four.tosf four.lf uni2084 four.dnom four.numr
EndChar

StartChar: five
Encoding: 53 53 24
Width: 572
Flags: W
LayerCount: 2
Fore
SplineSet
275 438 m 0,0,1
 385 438 385 438 450 383 c 128,-1,2
 515 328 515 328 515 228 c 0,3,4
 515 117 515 117 444.5 53.5 c 128,-1,5
 374 -10 374 -10 248 -10 c 0,6,7
 193 -10 193 -10 144.5 0 c 128,-1,8
 96 10 96 10 63 29 c 1,9,-1
 63 112 l 1,10,11
 99 90 99 90 150.5 77.5 c 128,-1,12
 202 65 202 65 249 65 c 0,13,14
 328 65 328 65 376.5 102.5 c 128,-1,15
 425 140 425 140 425 219 c 0,16,17
 425 289 425 289 382 326.5 c 128,-1,18
 339 364 339 364 246 364 c 0,19,20
 218 364 218 364 182 359 c 128,-1,21
 146 354 146 354 124 349 c 1,22,-1
 80 377 l 1,23,-1
 107 714 l 1,24,-1
 465 714 l 1,25,-1
 465 634 l 1,26,-1
 182 634 l 1,27,-1
 165 427 l 1,28,29
 182 430 182 430 211 434 c 128,-1,30
 240 438 240 438 275 438 c 0,0,1
EndSplineSet
Substitution2: "'case' Case-Sensitive Forms lookup 38 subtable" five.lf
Substitution2: "'onum' Oldstyle Figures lookup 35 subtable" five.tosf
Substitution2: "'pnum' Proportional Numbers lookup 33 subtable" five.lf
Substitution2: "'frac' Diagonal Fractions lookup 26 subtable" five.numr
Substitution2: "'dnom' Denominators lookup 24 subtable" five.dnom
Substitution2: "'numr' Numerators lookup 23 subtable" five.numr
Substitution2: "'sups' Superscript lookup 22 subtable" uni2075
Substitution2: "'sinf' Scientific Inferiors lookup 21 subtable" uni2085
Substitution2: "'subs' Subscript lookup 20 subtable" uni2085
AlternateSubs2: "'aalt' Access All Alternates lookup 1 subtable" uni2075 five.tosf five.lf uni2085 five.dnom five.numr
EndChar

StartChar: six
Encoding: 54 54 25
Width: 572
Flags: W
LayerCount: 2
Fore
SplineSet
55 305 m 0,0,1
 55 382 55 382 68.5 456.5 c 128,-1,2
 82 531 82 531 117.5 591.5 c 128,-1,3
 153 652 153 652 217 688 c 128,-1,4
 281 724 281 724 382 724 c 0,5,6
 403 724 403 724 428.5 722 c 128,-1,7
 454 720 454 720 470 715 c 1,8,-1
 470 640 l 1,9,10
 452 646 452 646 429.5 649 c 128,-1,11
 407 652 407 652 384 652 c 0,12,13
 315 652 315 652 269 629 c 128,-1,14
 223 606 223 606 196.5 566 c 128,-1,15
 170 526 170 526 158 474 c 128,-1,16
 146 422 146 422 143 363 c 1,17,-1
 149 363 l 1,18,19
 172 398 172 398 213 422.5 c 128,-1,20
 254 447 254 447 318 447 c 0,21,22
 411 447 411 447 468 390.5 c 128,-1,23
 525 334 525 334 525 230 c 0,24,25
 525 118 525 118 463.5 54 c 128,-1,26
 402 -10 402 -10 298 -10 c 0,27,28
 230 -10 230 -10 175 24 c 128,-1,29
 120 58 120 58 87.5 128 c 128,-1,30
 55 198 55 198 55 305 c 0,0,1
297 64 m 0,31,32
 360 64 360 64 399 104.5 c 128,-1,33
 438 145 438 145 438 230 c 0,34,35
 438 298 438 298 403.5 338 c 128,-1,36
 369 378 369 378 300 378 c 0,37,38
 253 378 253 378 218 358.5 c 128,-1,39
 183 339 183 339 163.5 309 c 128,-1,40
 144 279 144 279 144 247 c 0,41,42
 144 204 144 204 161 161.5 c 128,-1,43
 178 119 178 119 212 91.5 c 128,-1,44
 246 64 246 64 297 64 c 0,31,32
EndSplineSet
Substitution2: "'case' Case-Sensitive Forms lookup 38 subtable" six.lf
Substitution2: "'onum' Oldstyle Figures lookup 35 subtable" six.tosf
Substitution2: "'pnum' Proportional Numbers lookup 33 subtable" six.lf
Substitution2: "'frac' Diagonal Fractions lookup 26 subtable" six.numr
Substitution2: "'dnom' Denominators lookup 24 subtable" six.dnom
Substitution2: "'numr' Numerators lookup 23 subtable" six.numr
Substitution2: "'sups' Superscript lookup 22 subtable" uni2076
Substitution2: "'sinf' Scientific Inferiors lookup 21 subtable" uni2086
Substitution2: "'subs' Subscript lookup 20 subtable" uni2086
AlternateSubs2: "'aalt' Access All Alternates lookup 1 subtable" uni2076 six.tosf six.lf uni2086 six.dnom six.numr
EndChar

StartChar: seven
Encoding: 55 55 26
Width: 572
Flags: W
LayerCount: 2
Fore
SplineSet
136 0 m 1,0,-1
 429 634 l 1,1,-1
 44 634 l 1,2,-1
 44 714 l 1,3,-1
 523 714 l 1,4,-1
 523 646 l 1,5,-1
 233 0 l 1,6,-1
 136 0 l 1,0,-1
EndSplineSet
Substitution2: "'case' Case-Sensitive Forms lookup 38 subtable" seven.lf
Substitution2: "'onum' Oldstyle Figures lookup 35 subtable" seven.tosf
Substitution2: "'pnum' Proportional Numbers lookup 33 subtable" seven.lf
Substitution2: "'frac' Diagonal Fractions lookup 26 subtable" seven.numr
Substitution2: "'dnom' Denominators lookup 24 subtable" seven.dnom
Substitution2: "'numr' Numerators lookup 23 subtable" seven.numr
Substitution2: "'sups' Superscript lookup 22 subtable" uni2077
Substitution2: "'sinf' Scientific Inferiors lookup 21 subtable" uni2087
Substitution2: "'subs' Subscript lookup 20 subtable" uni2087
AlternateSubs2: "'aalt' Access All Alternates lookup 1 subtable" uni2077 seven.tosf seven.lf uni2087 seven.dnom seven.numr
EndChar

StartChar: eight
Encoding: 56 56 27
Width: 572
Flags: W
LayerCount: 2
Fore
SplineSet
285 724 m 0,0,1
 379 724 379 724 439 680 c 128,-1,2
 499 636 499 636 499 553 c 0,3,4
 499 510 499 510 480.5 478 c 128,-1,5
 462 446 462 446 431 421.5 c 128,-1,6
 400 397 400 397 363 378 c 1,7,8
 407 357 407 357 443 330.5 c 128,-1,9
 479 304 479 304 500.5 269 c 128,-1,10
 522 234 522 234 522 185 c 0,11,12
 522 95 522 95 458.5 42.5 c 128,-1,13
 395 -10 395 -10 288 -10 c 0,14,15
 173 -10 173 -10 111 40.5 c 128,-1,16
 49 91 49 91 49 182 c 0,17,18
 49 231 49 231 69.5 267 c 128,-1,19
 90 303 90 303 124 329 c 128,-1,20
 158 355 158 355 197 373 c 1,21,22
 145 403 145 403 108.5 445.5 c 128,-1,23
 72 488 72 488 72 554 c 0,24,25
 72 609 72 609 100 646.5 c 128,-1,26
 128 684 128 684 176 704 c 128,-1,27
 224 724 224 724 285 724 c 0,0,1
284 653 m 0,28,29
 229 653 229 653 193.5 626.5 c 128,-1,30
 158 600 158 600 158 550 c 0,31,32
 158 513 158 513 175.5 488 c 128,-1,33
 193 463 193 463 223 445.5 c 128,-1,34
 253 428 253 428 289 412 c 1,35,36
 341 434 341 434 376.5 465 c 128,-1,37
 412 496 412 496 412 550 c 0,38,39
 412 600 412 600 377 626.5 c 128,-1,40
 342 653 342 653 284 653 c 0,28,29
135 181 m 0,41,42
 135 129 135 129 172 94.5 c 128,-1,43
 209 60 209 60 286 60 c 0,44,45
 359 60 359 60 397.5 94.5 c 128,-1,46
 436 129 436 129 436 184 c 0,47,48
 436 236 436 236 395 270.5 c 128,-1,49
 354 305 354 305 286 331 c 2,50,-1
 270 337 l 1,51,52
 204 309 204 309 169.5 272.5 c 128,-1,53
 135 236 135 236 135 181 c 0,41,42
EndSplineSet
Substitution2: "'case' Case-Sensitive Forms lookup 38 subtable" eight.lf
Substitution2: "'onum' Oldstyle Figures lookup 35 subtable" eight.tosf
Substitution2: "'pnum' Proportional Numbers lookup 33 subtable" eight.lf
Substitution2: "'frac' Diagonal Fractions lookup 26 subtable" eight.numr
Substitution2: "'dnom' Denominators lookup 24 subtable" eight.dnom
Substitution2: "'numr' Numerators lookup 23 subtable" eight.numr
Substitution2: "'sups' Superscript lookup 22 subtable" uni2078
Substitution2: "'sinf' Scientific Inferiors lookup 21 subtable" uni2088
Substitution2: "'subs' Subscript lookup 20 subtable" uni2088
AlternateSubs2: "'aalt' Access All Alternates lookup 1 subtable" uni2078 eight.tosf eight.lf uni2088 eight.dnom eight.numr
EndChar

StartChar: nine
Encoding: 57 57 28
Width: 572
Flags: W
LayerCount: 2
Fore
SplineSet
520 409 m 0,0,1
 520 332 520 332 506.5 257.5 c 128,-1,2
 493 183 493 183 457.5 122.5 c 128,-1,3
 422 62 422 62 357.5 26 c 128,-1,4
 293 -10 293 -10 192 -10 c 0,5,6
 172 -10 172 -10 145.5 -7.5 c 128,-1,7
 119 -5 119 -5 102 0 c 1,8,-1
 102 75 l 1,9,10
 141 62 141 62 190 62 c 0,11,12
 260 62 260 62 305.5 85 c 128,-1,13
 351 108 351 108 378 147.5 c 128,-1,14
 405 187 405 187 417 239.5 c 128,-1,15
 429 292 429 292 431 350 c 1,16,-1
 425 350 l 1,17,18
 403 316 403 316 361.5 291.5 c 128,-1,19
 320 267 320 267 255 267 c 0,20,21
 163 267 163 267 106.5 323.5 c 128,-1,22
 50 380 50 380 50 483 c 0,23,24
 50 558 50 558 78.5 612 c 128,-1,25
 107 666 107 666 158 695 c 128,-1,26
 209 724 209 724 278 724 c 0,27,28
 346 724 346 724 401 689.5 c 128,-1,29
 456 655 456 655 488 585.5 c 128,-1,30
 520 516 520 516 520 409 c 0,0,1
278 650 m 0,31,32
 216 650 216 650 176.5 609 c 128,-1,33
 137 568 137 568 137 484 c 0,34,35
 137 415 137 415 170.5 375.5 c 128,-1,36
 204 336 204 336 274 336 c 0,37,38
 322 336 322 336 357 355.5 c 128,-1,39
 392 375 392 375 411.5 405 c 128,-1,40
 431 435 431 435 431 467 c 0,41,42
 431 510 431 510 414 552 c 128,-1,43
 397 594 397 594 363 622 c 128,-1,44
 329 650 329 650 278 650 c 0,31,32
EndSplineSet
Substitution2: "'case' Case-Sensitive Forms lookup 38 subtable" nine.lf
Substitution2: "'onum' Oldstyle Figures lookup 35 subtable" nine.tosf
Substitution2: "'pnum' Proportional Numbers lookup 33 subtable" nine.lf
Substitution2: "'frac' Diagonal Fractions lookup 26 subtable" nine.numr
Substitution2: "'dnom' Denominators lookup 24 subtable" nine.dnom
Substitution2: "'numr' Numerators lookup 23 subtable" nine.numr
Substitution2: "'sups' Superscript lookup 22 subtable" uni2079
Substitution2: "'sinf' Scientific Inferiors lookup 21 subtable" uni2089
Substitution2: "'subs' Subscript lookup 20 subtable" uni2089
AlternateSubs2: "'aalt' Access All Alternates lookup 1 subtable" uni2079 nine.tosf nine.lf uni2089 nine.dnom nine.numr
EndChar

StartChar: colon
Encoding: 58 58 29
Width: 268
Flags: W
LayerCount: 2
Fore
SplineSet
72 482 m 0,0,1
 72 520 72 520 90 535 c 128,-1,2
 108 550 108 550 133 550 c 0,3,4
 159 550 159 550 177.5 535 c 128,-1,5
 196 520 196 520 196 482 c 0,6,7
 196 446 196 446 177.5 430 c 128,-1,8
 159 414 159 414 133 414 c 0,9,10
 108 414 108 414 90 430 c 128,-1,11
 72 446 72 446 72 482 c 0,0,1
72 54 m 0,12,13
 72 91 72 91 90 106 c 128,-1,14
 108 121 108 121 133 121 c 0,15,16
 159 121 159 121 177.5 106 c 128,-1,17
 196 91 196 91 196 54 c 0,18,19
 196 18 196 18 177.5 2 c 128,-1,20
 159 -14 159 -14 133 -14 c 0,21,22
 108 -14 108 -14 90 2 c 128,-1,23
 72 18 72 18 72 54 c 0,12,13
EndSplineSet
EndChar

StartChar: semicolon
Encoding: 59 59 30
Width: 268
Flags: W
LayerCount: 2
Fore
SplineSet
70 482 m 0,0,1
 70 520 70 520 88 535 c 128,-1,2
 106 550 106 550 131 550 c 0,3,4
 157 550 157 550 175.5 535 c 128,-1,5
 194 520 194 520 194 482 c 0,6,7
 194 446 194 446 175.5 430 c 128,-1,8
 157 414 157 414 131 414 c 0,9,10
 106 414 106 414 88 430 c 128,-1,11
 70 446 70 446 70 482 c 0,0,1
183 105 m 1,12,13
 170 53 170 53 145.5 -11.5 c 128,-1,14
 121 -76 121 -76 97 -129 c 1,15,-1
 31 -129 l 1,16,17
 41 -91 41 -91 50.5 -47.5 c 128,-1,18
 60 -4 60 -4 68.5 38.5 c 128,-1,19
 77 81 77 81 82 116 c 1,20,-1
 176 116 l 1,21,-1
 183 105 l 1,12,13
EndSplineSet
EndChar

StartChar: less
Encoding: 60 60 31
Width: 572
Flags: W
LayerCount: 2
Fore
SplineSet
521 116 m 1,0,-1
 50 323 l 1,1,-1
 50 373 l 1,2,-1
 521 608 l 1,3,-1
 521 530 l 1,4,-1
 144 352 l 1,5,-1
 521 194 l 1,6,-1
 521 116 l 1,0,-1
EndSplineSet
EndChar

StartChar: equal
Encoding: 61 61 32
Width: 572
Flags: W
LayerCount: 2
Fore
SplineSet
56 416 m 1,0,-1
 56 487 l 1,1,-1
 514 487 l 1,2,-1
 514 416 l 1,3,-1
 56 416 l 1,0,-1
56 217 m 1,4,-1
 56 288 l 1,5,-1
 514 288 l 1,6,-1
 514 217 l 1,7,-1
 56 217 l 1,4,-1
EndSplineSet
Substitution2: "'sups' Superscript lookup 22 subtable" uni207C
Substitution2: "'sinf' Scientific Inferiors lookup 21 subtable" uni208C
Substitution2: "'subs' Subscript lookup 20 subtable" uni208C
AlternateSubs2: "'aalt' Access All Alternates lookup 1 subtable" uni208C uni207C
EndChar

StartChar: greater
Encoding: 62 62 33
Width: 572
Flags: W
LayerCount: 2
Fore
SplineSet
50 194 m 1,0,-1
 427 351 l 1,1,-1
 50 530 l 1,2,-1
 50 608 l 1,3,-1
 521 373 l 1,4,-1
 521 323 l 1,5,-1
 50 116 l 1,6,-1
 50 194 l 1,0,-1
EndSplineSet
EndChar

StartChar: question
Encoding: 63 63 34
Width: 434
Flags: W
LayerCount: 2
Fore
SplineSet
140 228 m 2,0,1
 140 266 140 266 147.5 293.5 c 128,-1,2
 155 321 155 321 173.5 346 c 128,-1,3
 192 371 192 371 224 398 c 0,4,5
 263 431 263 431 284.5 453 c 128,-1,6
 306 475 306 475 315 496 c 128,-1,7
 324 517 324 517 324 547 c 0,8,9
 324 595 324 595 293 621 c 128,-1,10
 262 647 262 647 203 647 c 0,11,12
 154 647 154 647 116 634.5 c 128,-1,13
 78 622 78 622 43 605 c 1,14,-1
 12 675 l 1,15,16
 52 696 52 696 100.5 710 c 128,-1,17
 149 724 149 724 209 724 c 0,18,19
 304 724 304 724 356 677 c 128,-1,20
 408 630 408 630 408 549 c 0,21,22
 408 504 408 504 393.5 472.5 c 128,-1,23
 379 441 379 441 352.5 414.5 c 128,-1,24
 326 388 326 388 290 358 c 0,25,26
 257 330 257 330 239.5 309 c 128,-1,27
 222 288 222 288 216 267.5 c 128,-1,28
 210 247 210 247 210 218 c 2,29,-1
 210 201 l 1,30,-1
 140 201 l 1,31,-1
 140 228 l 2,0,1
117 54 m 0,32,33
 117 91 117 91 134.5 106 c 128,-1,34
 152 121 152 121 179 121 c 0,35,36
 204 121 204 121 222 106 c 128,-1,37
 240 91 240 91 240 54 c 0,38,39
 240 18 240 18 222 2 c 128,-1,40
 204 -14 204 -14 179 -14 c 0,41,42
 152 -14 152 -14 134.5 2 c 128,-1,43
 117 18 117 18 117 54 c 0,32,33
EndSplineSet
Substitution2: "'smcp' Lowercase to Small Capitals lookup 37 subtable" question.sc
Substitution2: "'c2sc' Capitals to Small Capitals lookup 36 subtable" question.sc
Substitution2: "'aalt' Access All Alternates lookup 0 subtable" question.sc
EndChar

StartChar: at
Encoding: 64 64 35
Width: 899
Flags: W
LayerCount: 2
Fore
SplineSet
841 357 m 0,0,1
 841 311 841 311 830.5 267 c 128,-1,2
 820 223 820 223 798 187.5 c 128,-1,3
 776 152 776 152 744 130.5 c 128,-1,4
 712 109 712 109 668 109 c 0,5,6
 622 109 622 109 595.5 135.5 c 128,-1,7
 569 162 569 162 563 196 c 1,8,-1
 558 196 l 1,9,10
 540 159 540 159 505 134 c 128,-1,11
 470 109 470 109 417 109 c 0,12,13
 341 109 341 109 299.5 160 c 128,-1,14
 258 211 258 211 258 295 c 0,15,16
 258 361 258 361 284 411.5 c 128,-1,17
 310 462 310 462 357.5 491 c 128,-1,18
 405 520 405 520 470 520 c 0,19,20
 514 520 514 520 556.5 512.5 c 128,-1,21
 599 505 599 505 623 496 c 1,22,-1
 613 293 l 2,23,24
 612 275 612 275 612 267.5 c 128,-1,25
 612 260 612 260 612 257 c 0,26,27
 612 205 612 205 630.5 188 c 128,-1,28
 649 171 649 171 674 171 c 0,29,30
 705 171 705 171 726.5 196.5 c 128,-1,31
 748 222 748 222 759.5 264.5 c 128,-1,32
 771 307 771 307 771 358 c 0,33,34
 771 451 771 451 733.5 515.5 c 128,-1,35
 696 580 696 580 630.5 614 c 128,-1,36
 565 648 565 648 482 648 c 0,37,38
 368 648 368 648 289.5 601 c 128,-1,39
 211 554 211 554 170.5 471.5 c 128,-1,40
 130 389 130 389 130 283 c 0,41,42
 130 135 130 135 208 56 c 128,-1,43
 286 -23 286 -23 433 -23 c 0,44,45
 494 -23 494 -23 549.5 -9.5 c 128,-1,46
 605 4 605 4 648 20 c 1,47,-1
 648 -48 l 1,48,49
 605 -66 605 -66 551.5 -77.5 c 128,-1,50
 498 -89 498 -89 433 -89 c 0,51,52
 315 -89 315 -89 231 -45 c 128,-1,53
 147 -1 147 -1 102.5 81.5 c 128,-1,54
 58 164 58 164 58 280 c 0,55,56
 58 373 58 373 87 452.5 c 128,-1,57
 116 532 116 532 171 590.5 c 128,-1,58
 226 649 226 649 304.5 681.5 c 128,-1,59
 383 714 383 714 482 714 c 0,60,61
 586 714 586 714 667 671 c 128,-1,62
 748 628 748 628 794.5 548 c 128,-1,63
 841 468 841 468 841 357 c 0,0,1
336 293 m 0,64,65
 336 229 336 229 361.5 200 c 128,-1,66
 387 171 387 171 430 171 c 0,67,68
 486 171 486 171 510.5 213 c 128,-1,69
 535 255 535 255 539 322 c 2,70,-1
 545 447 l 1,71,72
 532 451 532 451 512 454 c 128,-1,73
 492 457 492 457 471 457 c 0,74,75
 422 457 422 457 392 433 c 128,-1,76
 362 409 362 409 349 371.5 c 128,-1,77
 336 334 336 334 336 293 c 0,64,65
EndSplineSet
EndChar

StartChar: A
Encoding: 65 65 36
Width: 639
GlyphClass: 2
Flags: W
AnchorPoint: "Anchor-2" 519 714 basechar 0
AnchorPoint: "Anchor-1" 318 714 basechar 0
AnchorPoint: "Anchor-0" 324 0 basechar 0
LayerCount: 2
Fore
SplineSet
545 0 m 1,0,-1
 459 221 l 1,1,-1
 176 221 l 1,2,-1
 91 0 l 1,3,-1
 0 0 l 1,4,-1
 279 717 l 1,5,-1
 360 717 l 1,6,-1
 638 0 l 1,7,-1
 545 0 l 1,0,-1
352 517 m 2,8,9
 349 525 349 525 342 546 c 128,-1,10
 335 567 335 567 328.5 589.5 c 128,-1,11
 322 612 322 612 318 624 c 1,12,13
 311 593 311 593 302 563.5 c 128,-1,14
 293 534 293 534 287 517 c 2,15,-1
 206 301 l 1,16,-1
 432 301 l 1,17,-1
 352 517 l 2,8,9
EndSplineSet
Substitution2: "'c2sc' Capitals to Small Capitals lookup 36 subtable" a.sc
Substitution2: "Single Substitution lookup 31 subtable" ordfeminine
AlternateSubs2: "'aalt' Access All Alternates lookup 1 subtable" ordfeminine a.sc
EndChar

StartChar: B
Encoding: 66 66 37
Width: 650
GlyphClass: 2
Flags: W
AnchorPoint: "Anchor-2" 630 714 basechar 0
AnchorPoint: "Anchor-1" 322 714 basechar 0
AnchorPoint: "Anchor-0" 315 0 basechar 0
LayerCount: 2
Fore
SplineSet
301 714 m 2,0,1
 435 714 435 714 503.5 674.5 c 128,-1,2
 572 635 572 635 572 537 c 0,3,4
 572 474 572 474 537 432.5 c 128,-1,5
 502 391 502 391 436 379 c 1,6,-1
 436 374 l 1,7,8
 481 367 481 367 517.5 348 c 128,-1,9
 554 329 554 329 575 294 c 128,-1,10
 596 259 596 259 596 203 c 0,11,12
 596 106 596 106 529.5 53 c 128,-1,13
 463 0 463 0 348 0 c 2,14,-1
 97 0 l 1,15,-1
 97 714 l 1,16,-1
 301 714 l 2,0,1
319 410 m 2,17,18
 411 410 411 410 445 439.5 c 128,-1,19
 479 469 479 469 479 527 c 0,20,21
 479 586 479 586 437.5 611.5 c 128,-1,22
 396 637 396 637 305 637 c 2,23,-1
 187 637 l 1,24,-1
 187 410 l 1,25,-1
 319 410 l 2,17,18
187 335 m 1,26,-1
 187 76 l 1,27,-1
 331 76 l 2,28,29
 426 76 426 76 463 113 c 128,-1,30
 500 150 500 150 500 210 c 0,31,32
 500 266 500 266 461.5 300.5 c 128,-1,33
 423 335 423 335 324 335 c 2,34,-1
 187 335 l 1,26,-1
EndSplineSet
Substitution2: "'c2sc' Capitals to Small Capitals lookup 36 subtable" b.sc
Substitution2: "'aalt' Access All Alternates lookup 0 subtable" b.sc
EndChar

StartChar: C
Encoding: 67 67 38
Width: 632
GlyphClass: 2
Flags: W
AnchorPoint: "Anchor-2" 612 714 basechar 0
AnchorPoint: "Anchor-1" 380 714 basechar 0
AnchorPoint: "Anchor-0" 372 0 basechar 0
LayerCount: 2
Fore
SplineSet
403 645 m 0,0,1
 288 645 288 645 222 568 c 128,-1,2
 156 491 156 491 156 357 c 0,3,4
 156 224 156 224 217.5 146.5 c 128,-1,5
 279 69 279 69 402 69 c 0,6,7
 449 69 449 69 491 77 c 128,-1,8
 533 85 533 85 573 97 c 1,9,-1
 573 19 l 1,10,11
 533 4 533 4 490.5 -3 c 128,-1,12
 448 -10 448 -10 389 -10 c 0,13,14
 280 -10 280 -10 207 35 c 128,-1,15
 134 80 134 80 97.5 163 c 128,-1,16
 61 246 61 246 61 358 c 0,17,18
 61 466 61 466 100.5 548.5 c 128,-1,19
 140 631 140 631 217 677.5 c 128,-1,20
 294 724 294 724 404 724 c 0,21,22
 517 724 517 724 601 682 c 1,23,-1
 565 606 l 1,24,25
 532 621 532 621 491.5 633 c 128,-1,26
 451 645 451 645 403 645 c 0,0,1
EndSplineSet
Substitution2: "'c2sc' Capitals to Small Capitals lookup 36 subtable" c.sc
Substitution2: "'aalt' Access All Alternates lookup 0 subtable" c.sc
EndChar

StartChar: D
Encoding: 68 68 39
Width: 730
GlyphClass: 2
Flags: W
AnchorPoint: "Anchor-3" 365 357 basechar 0
AnchorPoint: "Anchor-2" 710 714 basechar 0
AnchorPoint: "Anchor-1" 361 714 basechar 0
AnchorPoint: "Anchor-0" 342 0 basechar 0
LayerCount: 2
Fore
SplineSet
669 364 m 0,0,1
 669 183 669 183 570.5 91.5 c 128,-1,2
 472 0 472 0 296 0 c 2,3,-1
 97 0 l 1,4,-1
 97 714 l 1,5,-1
 317 714 l 2,6,7
 425 714 425 714 504 674 c 128,-1,8
 583 634 583 634 626 556.5 c 128,-1,9
 669 479 669 479 669 364 c 0,0,1
574 361 m 0,10,11
 574 504 574 504 503.5 570.5 c 128,-1,12
 433 637 433 637 304 637 c 2,13,-1
 187 637 l 1,14,-1
 187 77 l 1,15,-1
 284 77 l 2,16,17
 574 77 574 77 574 361 c 0,10,11
EndSplineSet
Substitution2: "'c2sc' Capitals to Small Capitals lookup 36 subtable" d.sc
Substitution2: "'aalt' Access All Alternates lookup 0 subtable" d.sc
EndChar

StartChar: E
Encoding: 69 69 40
Width: 556
GlyphClass: 2
Flags: W
AnchorPoint: "Anchor-2" 536 714 basechar 0
AnchorPoint: "Anchor-1" 305 714 basechar 0
AnchorPoint: "Anchor-0" 300 0 basechar 0
LayerCount: 2
Fore
SplineSet
496 0 m 1,0,-1
 97 0 l 1,1,-1
 97 714 l 1,2,-1
 496 714 l 1,3,-1
 496 635 l 1,4,-1
 187 635 l 1,5,-1
 187 412 l 1,6,-1
 478 412 l 1,7,-1
 478 334 l 1,8,-1
 187 334 l 1,9,-1
 187 79 l 1,10,-1
 496 79 l 1,11,-1
 496 0 l 1,0,-1
EndSplineSet
Substitution2: "'c2sc' Capitals to Small Capitals lookup 36 subtable" e.sc
Substitution2: "'aalt' Access All Alternates lookup 0 subtable" e.sc
EndChar

StartChar: F
Encoding: 70 70 41
Width: 519
GlyphClass: 2
Flags: W
AnchorPoint: "Anchor-2" 499 714 basechar 0
AnchorPoint: "Anchor-1" 298 714 basechar 0
AnchorPoint: "Anchor-0" 260 0 basechar 0
LayerCount: 2
Fore
SplineSet
187 0 m 1,0,-1
 97 0 l 1,1,-1
 97 714 l 1,2,-1
 496 714 l 1,3,-1
 496 635 l 1,4,-1
 187 635 l 1,5,-1
 187 382 l 1,6,-1
 477 382 l 1,7,-1
 477 303 l 1,8,-1
 187 303 l 1,9,-1
 187 0 l 1,0,-1
EndSplineSet
Substitution2: "'c2sc' Capitals to Small Capitals lookup 36 subtable" f.sc
Substitution2: "'aalt' Access All Alternates lookup 0 subtable" f.sc
EndChar

StartChar: G
Encoding: 71 71 42
Width: 728
GlyphClass: 2
Flags: W
AnchorPoint: "Anchor-2" 708 714 basechar 0
AnchorPoint: "Anchor-1" 405 714 basechar 0
AnchorPoint: "Anchor-0" 402 0 basechar 0
LayerCount: 2
Fore
SplineSet
407 377 m 1,0,-1
 654 377 l 1,1,-1
 654 27 l 1,2,3
 596 8 596 8 537 -1 c 128,-1,4
 478 -10 478 -10 403 -10 c 0,5,6
 292 -10 292 -10 216 34.5 c 128,-1,7
 140 79 140 79 100.5 161.5 c 128,-1,8
 61 244 61 244 61 357 c 0,9,10
 61 469 61 469 105 551 c 128,-1,11
 149 633 149 633 231.5 678.5 c 128,-1,12
 314 724 314 724 431 724 c 0,13,14
 491 724 491 724 544.5 713 c 128,-1,15
 598 702 598 702 644 682 c 1,16,-1
 610 604 l 1,17,18
 572 621 572 621 524.5 633 c 128,-1,19
 477 645 477 645 426 645 c 0,20,21
 298 645 298 645 226.5 568 c 128,-1,22
 155 491 155 491 155 357 c 0,23,24
 155 272 155 272 182.5 206.5 c 128,-1,25
 210 141 210 141 269 104.5 c 128,-1,26
 328 68 328 68 424 68 c 0,27,28
 471 68 471 68 504 73 c 128,-1,29
 537 78 537 78 564 85 c 1,30,-1
 564 297 l 1,31,-1
 407 297 l 1,32,-1
 407 377 l 1,0,-1
EndSplineSet
Substitution2: "'c2sc' Capitals to Small Capitals lookup 36 subtable" g.sc
Substitution2: "'aalt' Access All Alternates lookup 0 subtable" g.sc
EndChar

StartChar: H
Encoding: 72 72 43
Width: 741
GlyphClass: 2
Flags: W
AnchorPoint: "Anchor-3" 371 357 basechar 0
AnchorPoint: "Anchor-2" 721 714 basechar 0
AnchorPoint: "Anchor-1" 371 714 basechar 0
AnchorPoint: "Anchor-0" 368 0 basechar 0
LayerCount: 2
Fore
SplineSet
643 0 m 1,0,-1
 553 0 l 1,1,-1
 553 333 l 1,2,-1
 187 333 l 1,3,-1
 187 0 l 1,4,-1
 97 0 l 1,5,-1
 97 714 l 1,6,-1
 187 714 l 1,7,-1
 187 412 l 1,8,-1
 553 412 l 1,9,-1
 553 714 l 1,10,-1
 643 714 l 1,11,-1
 643 0 l 1,0,-1
EndSplineSet
Substitution2: "'c2sc' Capitals to Small Capitals lookup 36 subtable" h.sc
Substitution2: "'aalt' Access All Alternates lookup 0 subtable" h.sc
EndChar

StartChar: I
Encoding: 73 73 44
Width: 339
GlyphClass: 2
Flags: W
AnchorPoint: "Anchor-2" 319 714 basechar 0
AnchorPoint: "Anchor-1" 170 714 basechar 0
AnchorPoint: "Anchor-0" 170 0 basechar 0
LayerCount: 2
Fore
SplineSet
298 0 m 1,0,-1
 40 0 l 1,1,-1
 40 52 l 1,2,-1
 124 71 l 1,3,-1
 124 642 l 1,4,-1
 40 662 l 1,5,-1
 40 714 l 1,6,-1
 298 714 l 1,7,-1
 298 662 l 1,8,-1
 214 642 l 1,9,-1
 214 71 l 1,10,-1
 298 52 l 1,11,-1
 298 0 l 1,0,-1
EndSplineSet
Substitution2: "'ss04' Style Set 4 lookup 43 subtable" I.salt
Substitution2: "'c2sc' Capitals to Small Capitals lookup 36 subtable" i.sc
AlternateSubs2: "'aalt' Access All Alternates lookup 1 subtable" I.salt i.sc
EndChar

StartChar: J
Encoding: 74 74 45
Width: 273
GlyphClass: 2
Flags: W
AnchorPoint: "Anchor-2" 253 714 basechar 0
AnchorPoint: "Anchor-1" 137 714 basechar 0
AnchorPoint: "Anchor-0" -4 -170 basechar 0
LayerCount: 2
Fore
SplineSet
-4 -190 m 0,0,1
 -28 -190 -28 -190 -46 -186.5 c 128,-1,2
 -64 -183 -64 -183 -78 -177 c 1,3,-1
 -78 -101 l 1,4,5
 -62 -105 -62 -105 -44 -108 c 128,-1,6
 -26 -111 -26 -111 -6 -111 c 0,7,8
 19 -111 19 -111 41.5 -101 c 128,-1,9
 64 -91 64 -91 78 -66 c 128,-1,10
 92 -41 92 -41 92 4 c 2,11,-1
 92 714 l 1,12,-1
 182 714 l 1,13,-1
 182 11 l 2,14,15
 182 -92 182 -92 131 -141 c 128,-1,16
 80 -190 80 -190 -4 -190 c 0,0,1
EndSplineSet
Substitution2: "'ss04' Style Set 4 lookup 43 subtable" J.salt
Substitution2: "'c2sc' Capitals to Small Capitals lookup 36 subtable" j.sc
AlternateSubs2: "'aalt' Access All Alternates lookup 1 subtable" J.salt j.sc
EndChar

StartChar: K
Encoding: 75 75 46
Width: 619
GlyphClass: 2
Flags: W
AnchorPoint: "Anchor-2" 599 714 basechar 0
AnchorPoint: "Anchor-1" 340 714 basechar 0
AnchorPoint: "Anchor-0" 330 0 basechar 0
LayerCount: 2
Fore
SplineSet
619 0 m 1,0,-1
 513 0 l 1,1,-1
 260 341 l 1,2,-1
 187 277 l 1,3,-1
 187 0 l 1,4,-1
 97 0 l 1,5,-1
 97 714 l 1,6,-1
 187 714 l 1,7,-1
 187 362 l 1,8,9
 217 396 217 396 248 430 c 128,-1,10
 279 464 279 464 310 498 c 2,11,-1
 503 714 l 1,12,-1
 608 714 l 1,13,-1
 325 403 l 1,14,-1
 619 0 l 1,0,-1
EndSplineSet
Substitution2: "'c2sc' Capitals to Small Capitals lookup 36 subtable" k.sc
Substitution2: "'aalt' Access All Alternates lookup 0 subtable" k.sc
EndChar

StartChar: L
Encoding: 76 76 47
Width: 524
GlyphClass: 2
Flags: W
AnchorPoint: "Anchor-3" 262 357 basechar 0
AnchorPoint: "Anchor-2" 364 714 basechar 0
AnchorPoint: "Anchor-1" 140 714 basechar 0
AnchorPoint: "Anchor-0" 300 0 basechar 0
LayerCount: 2
Fore
SplineSet
97 0 m 1,0,-1
 97 714 l 1,1,-1
 187 714 l 1,2,-1
 187 80 l 1,3,-1
 499 80 l 1,4,-1
 499 0 l 1,5,-1
 97 0 l 1,0,-1
EndSplineSet
Substitution2: "'c2sc' Capitals to Small Capitals lookup 36 subtable" l.sc
Substitution2: "'aalt' Access All Alternates lookup 0 subtable" l.sc
EndChar

StartChar: M
Encoding: 77 77 48
Width: 907
GlyphClass: 2
Flags: W
AnchorPoint: "Anchor-2" 887 714 basechar 0
AnchorPoint: "Anchor-1" 454 714 basechar 0
AnchorPoint: "Anchor-0" 448 0 basechar 0
LayerCount: 2
Fore
SplineSet
412 0 m 1,0,-1
 177 626 l 1,1,-1
 173 626 l 1,2,3
 176 595 176 595 178 542.5 c 128,-1,4
 180 490 180 490 180 433 c 2,5,-1
 180 0 l 1,6,-1
 97 0 l 1,7,-1
 97 714 l 1,8,-1
 230 714 l 1,9,-1
 450 129 l 1,10,-1
 454 129 l 1,11,-1
 678 714 l 1,12,-1
 810 714 l 1,13,-1
 810 0 l 1,14,-1
 721 0 l 1,15,-1
 721 439 l 2,16,17
 721 491 721 491 723.5 542 c 128,-1,18
 726 593 726 593 728 625 c 1,19,-1
 724 625 l 1,20,-1
 486 0 l 1,21,-1
 412 0 l 1,0,-1
EndSplineSet
Substitution2: "'c2sc' Capitals to Small Capitals lookup 36 subtable" m.sc
Substitution2: "'aalt' Access All Alternates lookup 0 subtable" m.sc
EndChar

StartChar: N
Encoding: 78 78 49
Width: 760
GlyphClass: 2
Flags: W
AnchorPoint: "Anchor-2" 740 714 basechar 0
AnchorPoint: "Anchor-1" 380 714 basechar 0
AnchorPoint: "Anchor-0" 380 0 basechar 0
LayerCount: 2
Fore
SplineSet
663 0 m 1,0,-1
 558 0 l 1,1,-1
 176 593 l 1,2,-1
 172 593 l 1,3,4
 174 558 174 558 177 506 c 128,-1,5
 180 454 180 454 180 399 c 2,6,-1
 180 0 l 1,7,-1
 97 0 l 1,8,-1
 97 714 l 1,9,-1
 201 714 l 1,10,-1
 582 123 l 1,11,-1
 586 123 l 1,12,13
 585 139 585 139 583.5 171 c 128,-1,14
 582 203 582 203 580.5 241 c 128,-1,15
 579 279 579 279 579 311 c 2,16,-1
 579 714 l 1,17,-1
 663 714 l 1,18,-1
 663 0 l 1,0,-1
EndSplineSet
Substitution2: "'c2sc' Capitals to Small Capitals lookup 36 subtable" n.sc
Substitution2: "'aalt' Access All Alternates lookup 0 subtable" n.sc
EndChar

StartChar: O
Encoding: 79 79 50
Width: 781
GlyphClass: 2
Flags: W
AnchorPoint: "Anchor-3" 391 357 basechar 0
AnchorPoint: "Anchor-2" 761 714 basechar 0
AnchorPoint: "Anchor-1" 391 714 basechar 0
AnchorPoint: "Anchor-0" 392 0 basechar 0
LayerCount: 2
Fore
SplineSet
720 358 m 256,0,1
 720 247 720 247 682.5 164.5 c 128,-1,2
 645 82 645 82 572 36 c 128,-1,3
 499 -10 499 -10 391 -10 c 0,4,5
 280 -10 280 -10 206.5 36 c 128,-1,6
 133 82 133 82 97 165 c 128,-1,7
 61 248 61 248 61 359 c 0,8,9
 61 469 61 469 97 551 c 128,-1,10
 133 633 133 633 206.5 679 c 128,-1,11
 280 725 280 725 392 725 c 0,12,13
 499 725 499 725 572 679.5 c 128,-1,14
 645 634 645 634 682.5 551.5 c 128,-1,15
 720 469 720 469 720 358 c 256,0,1
156 358 m 256,16,17
 156 223 156 223 213 145.5 c 128,-1,18
 270 68 270 68 391 68 c 0,19,20
 513 68 513 68 569 145.5 c 128,-1,21
 625 223 625 223 625 358 c 256,22,23
 625 493 625 493 569 569.5 c 128,-1,24
 513 646 513 646 392 646 c 256,25,26
 271 646 271 646 213.5 569.5 c 128,-1,27
 156 493 156 493 156 358 c 256,16,17
EndSplineSet
Substitution2: "'c2sc' Capitals to Small Capitals lookup 36 subtable" o.sc
Substitution2: "Single Substitution lookup 31 subtable" ordmasculine
AlternateSubs2: "'aalt' Access All Alternates lookup 1 subtable" ordmasculine o.sc
EndChar

StartChar: P
Encoding: 80 80 51
Width: 605
GlyphClass: 2
Flags: W
AnchorPoint: "Anchor-2" 585 714 basechar 0
AnchorPoint: "Anchor-1" 317 714 basechar 0
AnchorPoint: "Anchor-0" 303 0 basechar 0
LayerCount: 2
Fore
SplineSet
286 714 m 2,0,1
 426 714 426 714 490 659 c 128,-1,2
 554 604 554 604 554 504 c 0,3,4
 554 445 554 445 527.5 393.5 c 128,-1,5
 501 342 501 342 438.5 310 c 128,-1,6
 376 278 376 278 269 278 c 2,7,-1
 187 278 l 1,8,-1
 187 0 l 1,9,-1
 97 0 l 1,10,-1
 97 714 l 1,11,-1
 286 714 l 2,0,1
278 637 m 2,12,-1
 187 637 l 1,13,-1
 187 355 l 1,14,-1
 259 355 l 2,15,16
 361 355 361 355 411 388 c 128,-1,17
 461 421 461 421 461 500 c 0,18,19
 461 569 461 569 417 603 c 128,-1,20
 373 637 373 637 278 637 c 2,12,-1
EndSplineSet
Substitution2: "'c2sc' Capitals to Small Capitals lookup 36 subtable" p.sc
Substitution2: "'aalt' Access All Alternates lookup 0 subtable" p.sc
EndChar

StartChar: Q
Encoding: 81 81 52
Width: 781
GlyphClass: 2
Flags: W
AnchorPoint: "Anchor-2" 761 714 basechar 0
AnchorPoint: "Anchor-1" 391 714 basechar 0
AnchorPoint: "Anchor-0" 391 -170 basechar 0
LayerCount: 2
Fore
SplineSet
720 358 m 0,0,1
 720 227 720 227 667.5 135 c 128,-1,2
 615 43 615 43 512 8 c 1,3,-1
 683 -170 l 1,4,-1
 554 -170 l 1,5,-1
 416 -9 l 1,6,7
 410 -9 410 -9 403.5 -9.5 c 128,-1,8
 397 -10 397 -10 391 -10 c 0,9,10
 280 -10 280 -10 206.5 36 c 128,-1,11
 133 82 133 82 97 165 c 128,-1,12
 61 248 61 248 61 359 c 0,13,14
 61 469 61 469 97 551 c 128,-1,15
 133 633 133 633 206.5 679 c 128,-1,16
 280 725 280 725 392 725 c 0,17,18
 499 725 499 725 572 679.5 c 128,-1,19
 645 634 645 634 682.5 551.5 c 128,-1,20
 720 469 720 469 720 358 c 0,0,1
156 358 m 256,21,22
 156 223 156 223 213 145.5 c 128,-1,23
 270 68 270 68 391 68 c 0,24,25
 513 68 513 68 569 145.5 c 128,-1,26
 625 223 625 223 625 358 c 256,27,28
 625 493 625 493 569 569.5 c 128,-1,29
 513 646 513 646 392 646 c 256,30,31
 271 646 271 646 213.5 569.5 c 128,-1,32
 156 493 156 493 156 358 c 256,21,22
EndSplineSet
Substitution2: "'c2sc' Capitals to Small Capitals lookup 36 subtable" q.sc
Substitution2: "'aalt' Access All Alternates lookup 0 subtable" q.sc
EndChar

StartChar: R
Encoding: 82 82 53
Width: 622
GlyphClass: 2
Flags: W
AnchorPoint: "Anchor-2" 602 714 basechar 0
AnchorPoint: "Anchor-1" 311 714 basechar 0
AnchorPoint: "Anchor-0" 328 0 basechar 0
LayerCount: 2
Fore
SplineSet
294 714 m 2,0,1
 427 714 427 714 490.5 663.5 c 128,-1,2
 554 613 554 613 554 511 c 0,3,4
 554 454 554 454 533 416 c 128,-1,5
 512 378 512 378 479.5 355.5 c 128,-1,6
 447 333 447 333 411 320 c 1,7,-1
 607 0 l 1,8,-1
 502 0 l 1,9,-1
 329 295 l 1,10,-1
 187 295 l 1,11,-1
 187 0 l 1,12,-1
 97 0 l 1,13,-1
 97 714 l 1,14,-1
 294 714 l 2,0,1
289 636 m 2,15,-1
 187 636 l 1,16,-1
 187 371 l 1,17,-1
 294 371 l 2,18,19
 381 371 381 371 421 405.5 c 128,-1,20
 461 440 461 440 461 507 c 0,21,22
 461 577 461 577 419 606.5 c 128,-1,23
 377 636 377 636 289 636 c 2,15,-1
EndSplineSet
Substitution2: "'c2sc' Capitals to Small Capitals lookup 36 subtable" r.sc
Substitution2: "'aalt' Access All Alternates lookup 0 subtable" r.sc
EndChar

StartChar: S
Encoding: 83 83 54
Width: 549
GlyphClass: 2
Flags: W
AnchorPoint: "Anchor-2" 529 714 basechar 0
AnchorPoint: "Anchor-1" 285 714 basechar 0
AnchorPoint: "Anchor-0" 257 0 basechar 0
LayerCount: 2
Fore
SplineSet
502 191 m 0,0,1
 502 96 502 96 433 43 c 128,-1,2
 364 -10 364 -10 247 -10 c 0,3,4
 187 -10 187 -10 136 -1 c 128,-1,5
 85 8 85 8 51 24 c 1,6,-1
 51 110 l 1,7,8
 87 94 87 94 140.5 81 c 128,-1,9
 194 68 194 68 251 68 c 0,10,11
 331 68 331 68 371.5 99 c 128,-1,12
 412 130 412 130 412 183 c 0,13,14
 412 218 412 218 397 242 c 128,-1,15
 382 266 382 266 345.5 286.5 c 128,-1,16
 309 307 309 307 244 330 c 0,17,18
 153 363 153 363 106.5 411 c 128,-1,19
 60 459 60 459 60 542 c 0,20,21
 60 599 60 599 89 639.5 c 128,-1,22
 118 680 118 680 169.5 702 c 128,-1,23
 221 724 221 724 288 724 c 0,24,25
 347 724 347 724 396 713 c 128,-1,26
 445 702 445 702 485 684 c 1,27,-1
 457 607 l 1,28,29
 420 623 420 623 376.5 634 c 128,-1,30
 333 645 333 645 286 645 c 0,31,32
 219 645 219 645 185 616.5 c 128,-1,33
 151 588 151 588 151 541 c 0,34,35
 151 505 151 505 166 481 c 128,-1,36
 181 457 181 457 215 438 c 128,-1,37
 249 419 249 419 307 397 c 0,38,39
 370 374 370 374 413.5 347.5 c 128,-1,40
 457 321 457 321 479.5 284 c 128,-1,41
 502 247 502 247 502 191 c 0,0,1
EndSplineSet
Substitution2: "'c2sc' Capitals to Small Capitals lookup 36 subtable" s.sc
Substitution2: "'aalt' Access All Alternates lookup 0 subtable" s.sc
EndChar

StartChar: T
Encoding: 84 84 55
Width: 556
GlyphClass: 2
Flags: W
AnchorPoint: "Anchor-3" 278 357 basechar 0
AnchorPoint: "Anchor-2" 536 714 basechar 0
AnchorPoint: "Anchor-1" 278 714 basechar 0
AnchorPoint: "Anchor-0" 278 0 basechar 0
LayerCount: 2
Fore
SplineSet
323 0 m 1,0,-1
 233 0 l 1,1,-1
 233 635 l 1,2,-1
 10 635 l 1,3,-1
 10 714 l 1,4,-1
 545 714 l 1,5,-1
 545 635 l 1,6,-1
 323 635 l 1,7,-1
 323 0 l 1,0,-1
EndSplineSet
Substitution2: "'c2sc' Capitals to Small Capitals lookup 36 subtable" t.sc
Substitution2: "'aalt' Access All Alternates lookup 0 subtable" t.sc
EndChar

StartChar: U
Encoding: 85 85 56
Width: 731
GlyphClass: 2
Flags: W
AnchorPoint: "Anchor-2" 711 714 basechar 0
AnchorPoint: "Anchor-1" 366 714 basechar 0
AnchorPoint: "Anchor-0" 364 0 basechar 0
LayerCount: 2
Fore
SplineSet
640 252 m 2,0,1
 640 178 640 178 610 118.5 c 128,-1,2
 580 59 580 59 518.5 24.5 c 128,-1,3
 457 -10 457 -10 362 -10 c 0,4,5
 229 -10 229 -10 159.5 62.5 c 128,-1,6
 90 135 90 135 90 254 c 2,7,-1
 90 714 l 1,8,-1
 180 714 l 1,9,-1
 180 251 l 2,10,11
 180 164 180 164 226.5 116 c 128,-1,12
 273 68 273 68 367 68 c 0,13,14
 464 68 464 68 507.5 119.5 c 128,-1,15
 551 171 551 171 551 252 c 2,16,-1
 551 714 l 1,17,-1
 640 714 l 1,18,-1
 640 252 l 2,0,1
EndSplineSet
Substitution2: "'c2sc' Capitals to Small Capitals lookup 36 subtable" u.sc
Substitution2: "'aalt' Access All Alternates lookup 0 subtable" u.sc
EndChar

StartChar: V
Encoding: 86 86 57
Width: 600
GlyphClass: 2
Flags: W
AnchorPoint: "Anchor-2" 580 714 basechar 0
AnchorPoint: "Anchor-1" 303 714 basechar 0
AnchorPoint: "Anchor-0" 299 0 basechar 0
LayerCount: 2
Fore
SplineSet
600 714 m 1,0,-1
 345 0 l 1,1,-1
 255 0 l 1,2,-1
 0 714 l 1,3,-1
 94 714 l 1,4,-1
 255 256 l 2,5,6
 271 212 271 212 282 173.5 c 128,-1,7
 293 135 293 135 300 100 c 1,8,9
 307 135 307 135 318 174 c 128,-1,10
 329 213 329 213 345 258 c 2,11,-1
 505 714 l 1,12,-1
 600 714 l 1,0,-1
EndSplineSet
Substitution2: "'c2sc' Capitals to Small Capitals lookup 36 subtable" v.sc
Substitution2: "'aalt' Access All Alternates lookup 0 subtable" v.sc
EndChar

StartChar: W
Encoding: 87 87 58
Width: 930
GlyphClass: 2
Flags: W
AnchorPoint: "Anchor-2" 910 714 basechar 0
AnchorPoint: "Anchor-1" 465 714 basechar 0
AnchorPoint: "Anchor-0" 458 0 basechar 0
LayerCount: 2
Fore
SplineSet
917 714 m 1,0,-1
 727 0 l 1,1,-1
 636 0 l 1,2,-1
 497 468 l 2,3,4
 489 497 489 497 481 526 c 128,-1,5
 473 555 473 555 468 577.5 c 128,-1,6
 463 600 463 600 461 609 c 1,7,8
 460 596 460 596 450.5 553.5 c 128,-1,9
 441 511 441 511 427 465 c 2,10,-1
 292 0 l 1,11,-1
 201 0 l 1,12,-1
 12 714 l 1,13,-1
 106 714 l 1,14,-1
 217 278 l 2,15,16
 229 232 229 232 237.5 189 c 128,-1,17
 246 146 246 146 251 108 c 1,18,19
 256 147 256 147 266 193 c 128,-1,20
 276 239 276 239 289 283 c 2,21,-1
 415 714 l 1,22,-1
 508 714 l 1,23,-1
 639 280 l 2,24,25
 653 234 653 234 663 188.5 c 128,-1,26
 673 143 673 143 678 108 c 1,27,28
 683 145 683 145 692 188.5 c 128,-1,29
 701 232 701 232 713 279 c 2,30,-1
 823 714 l 1,31,-1
 917 714 l 1,0,-1
EndSplineSet
Substitution2: "'c2sc' Capitals to Small Capitals lookup 36 subtable" w.sc
Substitution2: "'aalt' Access All Alternates lookup 0 subtable" w.sc
EndChar

StartChar: X
Encoding: 88 88 59
Width: 586
GlyphClass: 2
Flags: W
AnchorPoint: "Anchor-2" 566 714 basechar 0
AnchorPoint: "Anchor-1" 292 714 basechar 0
AnchorPoint: "Anchor-0" 293 0 basechar 0
LayerCount: 2
Fore
SplineSet
582 0 m 1,0,-1
 480 0 l 1,1,-1
 291 310 l 1,2,-1
 99 0 l 1,3,-1
 4 0 l 1,4,-1
 241 372 l 1,5,-1
 19 714 l 1,6,-1
 119 714 l 1,7,-1
 294 434 l 1,8,-1
 470 714 l 1,9,-1
 565 714 l 1,10,-1
 344 374 l 1,11,-1
 582 0 l 1,0,-1
EndSplineSet
Substitution2: "'c2sc' Capitals to Small Capitals lookup 36 subtable" x.sc
Substitution2: "'aalt' Access All Alternates lookup 0 subtable" x.sc
EndChar

StartChar: Y
Encoding: 89 89 60
Width: 566
GlyphClass: 2
Flags: W
AnchorPoint: "Anchor-2" 546 714 basechar 0
AnchorPoint: "Anchor-1" 283 714 basechar 0
AnchorPoint: "Anchor-0" 283 0 basechar 0
LayerCount: 2
Fore
SplineSet
283 363 m 1,0,-1
 469 714 l 1,1,-1
 566 714 l 1,2,-1
 328 277 l 1,3,-1
 328 0 l 1,4,-1
 238 0 l 1,5,-1
 238 273 l 1,6,-1
 0 714 l 1,7,-1
 98 714 l 1,8,-1
 283 363 l 1,0,-1
EndSplineSet
Substitution2: "'c2sc' Capitals to Small Capitals lookup 36 subtable" y.sc
Substitution2: "'aalt' Access All Alternates lookup 0 subtable" y.sc
EndChar

StartChar: Z
Encoding: 90 90 61
Width: 572
GlyphClass: 2
Flags: W
AnchorPoint: "Anchor-2" 552 714 basechar 0
AnchorPoint: "Anchor-1" 290 714 basechar 0
AnchorPoint: "Anchor-0" 297 0 basechar 0
LayerCount: 2
Fore
SplineSet
533 0 m 1,0,-1
 38 0 l 1,1,-1
 38 68 l 1,2,-1
 414 634 l 1,3,-1
 50 634 l 1,4,-1
 50 714 l 1,5,-1
 523 714 l 1,6,-1
 523 646 l 1,7,-1
 147 80 l 1,8,-1
 533 80 l 1,9,-1
 533 0 l 1,0,-1
EndSplineSet
Substitution2: "'c2sc' Capitals to Small Capitals lookup 36 subtable" z.sc
Substitution2: "'aalt' Access All Alternates lookup 0 subtable" z.sc
EndChar

StartChar: bracketleft
Encoding: 91 91 62
Width: 329
Flags: W
LayerCount: 2
Fore
SplineSet
304 -158 m 1,0,-1
 80 -158 l 1,1,-1
 80 714 l 1,2,-1
 304 714 l 1,3,-1
 304 642 l 1,4,-1
 166 642 l 1,5,-1
 166 -86 l 1,6,-1
 304 -86 l 1,7,-1
 304 -158 l 1,0,-1
EndSplineSet
Substitution2: "'smcp' Lowercase to Small Capitals lookup 37 subtable" bracketleft.sc
Substitution2: "'c2sc' Capitals to Small Capitals lookup 36 subtable" bracketleft.sc
Substitution2: "'aalt' Access All Alternates lookup 0 subtable" bracketleft.sc
EndChar

StartChar: backslash
Encoding: 92 92 63
Width: 372
Flags: W
LayerCount: 2
Fore
SplineSet
96 714 m 1,0,-1
 363 0 l 1,1,-1
 276 0 l 1,2,-1
 10 714 l 1,3,-1
 96 714 l 1,0,-1
EndSplineSet
EndChar

StartChar: bracketright
Encoding: 93 93 64
Width: 329
Flags: W
LayerCount: 2
Fore
SplineSet
25 -86 m 1,0,-1
 163 -86 l 1,1,-1
 163 642 l 1,2,-1
 25 642 l 1,3,-1
 25 714 l 1,4,-1
 249 714 l 1,5,-1
 249 -158 l 1,6,-1
 25 -158 l 1,7,-1
 25 -86 l 1,0,-1
EndSplineSet
Substitution2: "'smcp' Lowercase to Small Capitals lookup 37 subtable" bracketright.sc
Substitution2: "'c2sc' Capitals to Small Capitals lookup 36 subtable" bracketright.sc
Substitution2: "'aalt' Access All Alternates lookup 0 subtable" bracketright.sc
EndChar

StartChar: asciicircum
Encoding: 94 94 65
Width: 572
Flags: W
LayerCount: 2
Fore
SplineSet
38 267 m 1,0,-1
 250 719 l 1,1,-1
 300 719 l 1,2,-1
 534 267 l 1,3,-1
 456 267 l 1,4,-1
 276 626 l 1,5,-1
 116 267 l 1,6,-1
 38 267 l 1,0,-1
EndSplineSet
EndChar

StartChar: underscore
Encoding: 95 95 66
Width: 444
Flags: W
LayerCount: 2
Fore
SplineSet
446 -154 m 1,0,-1
 -2 -154 l 1,1,-1
 -2 -90 l 1,2,-1
 446 -90 l 1,3,-1
 446 -154 l 1,0,-1
EndSplineSet
EndChar

StartChar: grave
Encoding: 96 96 67
Width: 281
Flags: W
LayerCount: 2
Fore
SplineSet
145 766 m 1,0,1
 156 744 156 744 172.5 716.5 c 128,-1,2
 189 689 189 689 207.5 663 c 128,-1,3
 226 637 226 637 241 618 c 1,4,-1
 241 606 l 1,5,-1
 182 606 l 1,6,7
 159 624 159 624 130 652.5 c 128,-1,8
 101 681 101 681 76.5 709.5 c 128,-1,9
 52 738 52 738 40 756 c 1,10,-1
 40 766 l 1,11,-1
 145 766 l 1,0,1
EndSplineSet
EndChar

StartChar: a
Encoding: 97 97 68
Width: 561
GlyphClass: 2
Flags: W
AnchorPoint: "Anchor-2" 511 536 basechar 0
AnchorPoint: "Anchor-1" 281 536 basechar 0
AnchorPoint: "Anchor-0" 281 0 basechar 0
LayerCount: 2
Fore
SplineSet
288 545 m 0,0,1
 386 545 386 545 433 502 c 128,-1,2
 480 459 480 459 480 365 c 2,3,-1
 480 0 l 1,4,-1
 416 0 l 1,5,-1
 399 76 l 1,6,-1
 395 76 l 1,7,8
 360 32 360 32 321.5 11 c 128,-1,9
 283 -10 283 -10 215 -10 c 0,10,11
 142 -10 142 -10 94 28.5 c 128,-1,12
 46 67 46 67 46 149 c 0,13,14
 46 229 46 229 109 272.5 c 128,-1,15
 172 316 172 316 303 320 c 2,16,-1
 394 323 l 1,17,-1
 394 355 l 2,18,19
 394 422 394 422 365 448 c 128,-1,20
 336 474 336 474 283 474 c 0,21,22
 241 474 241 474 203 461.5 c 128,-1,23
 165 449 165 449 132 433 c 1,24,-1
 105 499 l 1,25,26
 140 518 140 518 188 531.5 c 128,-1,27
 236 545 236 545 288 545 c 0,0,1
314 259 m 2,28,29
 214 255 214 255 175.5 227 c 128,-1,30
 137 199 137 199 137 148 c 0,31,32
 137 103 137 103 164.5 82 c 128,-1,33
 192 61 192 61 235 61 c 0,34,35
 303 61 303 61 348 98.5 c 128,-1,36
 393 136 393 136 393 214 c 2,37,-1
 393 262 l 1,38,-1
 314 259 l 2,28,29
EndSplineSet
Substitution2: "'smcp' Lowercase to Small Capitals lookup 37 subtable" a.sc
Substitution2: "Single Substitution lookup 31 subtable" ordfeminine
AlternateSubs2: "'aalt' Access All Alternates lookup 1 subtable" ordfeminine a.sc
EndChar

StartChar: b
Encoding: 98 98 69
Width: 615
GlyphClass: 2
Flags: W
AnchorPoint: "Anchor-2" 515 760 basechar 0
AnchorPoint: "Anchor-1" 338 760 basechar 0
AnchorPoint: "Anchor-0" 322 0 basechar 0
LayerCount: 2
Fore
SplineSet
173 575 m 2,0,1
 173 541 173 541 171.5 511.5 c 128,-1,2
 170 482 170 482 168 465 c 1,3,-1
 173 465 l 1,4,5
 196 499 196 499 236 522 c 128,-1,6
 276 545 276 545 339 545 c 0,7,8
 439 545 439 545 499.5 475.5 c 128,-1,9
 560 406 560 406 560 268 c 256,10,11
 560 130 560 130 499 60 c 128,-1,12
 438 -10 438 -10 339 -10 c 0,13,14
 276 -10 276 -10 236 13 c 128,-1,15
 196 36 196 36 173 68 c 1,16,-1
 166 68 l 1,17,-1
 148 0 l 1,18,-1
 85 0 l 1,19,-1
 85 760 l 1,20,-1
 173 760 l 1,21,-1
 173 575 l 2,0,1
324 472 m 0,22,23
 239 472 239 472 206 423 c 128,-1,24
 173 374 173 374 173 271 c 2,25,-1
 173 267 l 2,26,27
 173 168 173 168 205.5 115.5 c 128,-1,28
 238 63 238 63 326 63 c 0,29,30
 398 63 398 63 433.5 116 c 128,-1,31
 469 169 469 169 469 269 c 0,32,33
 469 472 469 472 324 472 c 0,22,23
EndSplineSet
Substitution2: "'smcp' Lowercase to Small Capitals lookup 37 subtable" b.sc
Substitution2: "'aalt' Access All Alternates lookup 0 subtable" b.sc
EndChar

StartChar: c
Encoding: 99 99 70
Width: 480
GlyphClass: 2
Flags: W
AnchorPoint: "Anchor-2" 460 536 basechar 0
AnchorPoint: "Anchor-1" 284 536 basechar 0
AnchorPoint: "Anchor-0" 281 0 basechar 0
LayerCount: 2
Fore
SplineSet
300 -10 m 0,0,1
 229 -10 229 -10 173.5 19 c 128,-1,2
 118 48 118 48 86.5 109 c 128,-1,3
 55 170 55 170 55 265 c 0,4,5
 55 364 55 364 88 426 c 128,-1,6
 121 488 121 488 177.5 517 c 128,-1,7
 234 546 234 546 306 546 c 0,8,9
 347 546 347 546 385 537.5 c 128,-1,10
 423 529 423 529 447 517 c 1,11,-1
 420 444 l 1,12,13
 396 453 396 453 364 461 c 128,-1,14
 332 469 332 469 304 469 c 0,15,16
 146 469 146 469 146 266 c 0,17,18
 146 169 146 169 184.5 117.5 c 128,-1,19
 223 66 223 66 299 66 c 0,20,21
 343 66 343 66 376.5 75 c 128,-1,22
 410 84 410 84 438 97 c 1,23,-1
 438 19 l 1,24,25
 411 5 411 5 378.5 -2.5 c 128,-1,26
 346 -10 346 -10 300 -10 c 0,0,1
EndSplineSet
Substitution2: "'smcp' Lowercase to Small Capitals lookup 37 subtable" c.sc
Substitution2: "'aalt' Access All Alternates lookup 0 subtable" c.sc
EndChar

StartChar: d
Encoding: 100 100 71
Width: 615
GlyphClass: 2
Flags: W
AnchorPoint: "Anchor-3" 308 268 basechar 0
AnchorPoint: "Anchor-2" 553 760 basechar 0
AnchorPoint: "Anchor-1" 275 760 basechar 0
AnchorPoint: "Anchor-0" 292 0 basechar 0
LayerCount: 2
Fore
SplineSet
275 -10 m 0,0,1
 175 -10 175 -10 115 59.5 c 128,-1,2
 55 129 55 129 55 267 c 256,3,4
 55 405 55 405 115.5 475.5 c 128,-1,5
 176 546 176 546 276 546 c 0,6,7
 338 546 338 546 377.5 523 c 128,-1,8
 417 500 417 500 442 467 c 1,9,-1
 448 467 l 1,10,11
 447 480 447 480 444.5 505.5 c 128,-1,12
 442 531 442 531 442 546 c 2,13,-1
 442 760 l 1,14,-1
 530 760 l 1,15,-1
 530 0 l 1,16,-1
 459 0 l 1,17,-1
 446 72 l 1,18,-1
 442 72 l 1,19,20
 418 38 418 38 378 14 c 128,-1,21
 338 -10 338 -10 275 -10 c 0,0,1
289 63 m 0,22,23
 374 63 374 63 408.5 109.5 c 128,-1,24
 443 156 443 156 443 250 c 2,25,-1
 443 266 l 2,26,27
 443 366 443 366 410 419.5 c 128,-1,28
 377 473 377 473 288 473 c 0,29,30
 217 473 217 473 181.5 416.5 c 128,-1,31
 146 360 146 360 146 265 c 0,32,33
 146 169 146 169 181.5 116 c 128,-1,34
 217 63 217 63 289 63 c 0,22,23
EndSplineSet
Substitution2: "'smcp' Lowercase to Small Capitals lookup 37 subtable" d.sc
Substitution2: "'aalt' Access All Alternates lookup 0 subtable" d.sc
EndChar

StartChar: e
Encoding: 101 101 72
Width: 564
GlyphClass: 2
Flags: W
AnchorPoint: "Anchor-2" 544 536 basechar 0
AnchorPoint: "Anchor-1" 285 536 basechar 0
AnchorPoint: "Anchor-0" 301 0 basechar 0
LayerCount: 2
Fore
SplineSet
292 546 m 0,0,1
 361 546 361 546 410.5 516 c 128,-1,2
 460 486 460 486 486.5 431.5 c 128,-1,3
 513 377 513 377 513 304 c 2,4,-1
 513 251 l 1,5,-1
 146 251 l 1,6,7
 148 160 148 160 192.5 112.5 c 128,-1,8
 237 65 237 65 317 65 c 0,9,10
 368 65 368 65 407.5 74.5 c 128,-1,11
 447 84 447 84 489 102 c 1,12,-1
 489 25 l 1,13,14
 448 7 448 7 408 -1.5 c 128,-1,15
 368 -10 368 -10 313 -10 c 0,16,17
 237 -10 237 -10 178.5 21 c 128,-1,18
 120 52 120 52 87.5 113.5 c 128,-1,19
 55 175 55 175 55 264 c 0,20,21
 55 352 55 352 84.5 415 c 128,-1,22
 114 478 114 478 167.5 512 c 128,-1,23
 221 546 221 546 292 546 c 0,0,1
291 474 m 0,24,25
 228 474 228 474 191.5 433.5 c 128,-1,26
 155 393 155 393 148 321 c 1,27,-1
 421 321 l 1,28,29
 420 389 420 389 389 431.5 c 128,-1,30
 358 474 358 474 291 474 c 0,24,25
EndSplineSet
Substitution2: "'smcp' Lowercase to Small Capitals lookup 37 subtable" e.sc
Substitution2: "'aalt' Access All Alternates lookup 0 subtable" e.sc
EndChar

StartChar: f
Encoding: 102 102 73
Width: 344
GlyphClass: 2
Flags: W
AnchorPoint: "Anchor-2" 380 765 basechar 0
AnchorPoint: "Anchor-1" 252 765 basechar 0
AnchorPoint: "Anchor-0" 153 0 basechar 0
LayerCount: 2
Fore
SplineSet
332 468 m 1,0,-1
 197 468 l 1,1,-1
 197 0 l 1,2,-1
 109 0 l 1,3,-1
 109 468 l 1,4,-1
 15 468 l 1,5,-1
 15 509 l 1,6,-1
 109 539 l 1,7,-1
 109 570 l 2,8,9
 109 674 109 674 155 719.5 c 128,-1,10
 201 765 201 765 283 765 c 0,11,12
 315 765 315 765 341.5 759.5 c 128,-1,13
 368 754 368 754 387 747 c 1,14,-1
 364 678 l 1,15,16
 348 683 348 683 327 688 c 128,-1,17
 306 693 306 693 284 693 c 0,18,19
 240 693 240 693 218.5 663.5 c 128,-1,20
 197 634 197 634 197 571 c 2,21,-1
 197 536 l 1,22,-1
 332 536 l 1,23,-1
 332 468 l 1,0,-1
EndSplineSet
Substitution2: "'smcp' Lowercase to Small Capitals lookup 37 subtable" f.sc
Substitution2: "'aalt' Access All Alternates lookup 0 subtable" f.sc
EndChar

StartChar: g
Encoding: 103 103 74
Width: 615
GlyphClass: 2
Flags: W
AnchorPoint: "Anchor-2" 555 536 basechar 0
AnchorPoint: "Anchor-1" 297 536 basechar 0
AnchorPoint: "Anchor-0" 298 -240 basechar 0
LayerCount: 2
Fore
SplineSet
275 546 m 0,0,1
 328 546 328 546 370.5 526 c 128,-1,2
 413 506 413 506 443 465 c 1,3,-1
 448 465 l 1,4,-1
 460 536 l 1,5,-1
 530 536 l 1,6,-1
 530 -9 l 2,7,8
 530 -124 530 -124 471.5 -182 c 128,-1,9
 413 -240 413 -240 290 -240 c 0,10,11
 172 -240 172 -240 97 -206 c 1,12,-1
 97 -125 l 1,13,14
 176 -167 176 -167 295 -167 c 0,15,16
 364 -167 364 -167 403.5 -126.5 c 128,-1,17
 443 -86 443 -86 443 -16 c 2,18,-1
 443 5 l 2,19,20
 443 17 443 17 444 39.5 c 128,-1,21
 445 62 445 62 446 71 c 1,22,-1
 442 71 l 1,23,24
 388 -10 388 -10 276 -10 c 0,25,26
 172 -10 172 -10 113.5 63 c 128,-1,27
 55 136 55 136 55 267 c 0,28,29
 55 395 55 395 113.5 470.5 c 128,-1,30
 172 546 172 546 275 546 c 0,0,1
287 472 m 0,31,32
 220 472 220 472 183 418.5 c 128,-1,33
 146 365 146 365 146 266 c 256,34,35
 146 167 146 167 182.5 114.5 c 128,-1,36
 219 62 219 62 289 62 c 0,37,38
 370 62 370 62 407 105.5 c 128,-1,39
 444 149 444 149 444 246 c 2,40,-1
 444 267 l 2,41,42
 444 377 444 377 406 424.5 c 128,-1,43
 368 472 368 472 287 472 c 0,31,32
EndSplineSet
Substitution2: "'smcp' Lowercase to Small Capitals lookup 37 subtable" g.sc
Substitution2: "'aalt' Access All Alternates lookup 0 subtable" g.sc
EndChar

StartChar: h
Encoding: 104 104 75
Width: 618
GlyphClass: 2
Flags: W
AnchorPoint: "Anchor-3" 309 268 basechar 0
AnchorPoint: "Anchor-2" 535 760 basechar 0
AnchorPoint: "Anchor-1" 130 760 basechar 0
AnchorPoint: "Anchor-0" 310 0 basechar 0
LayerCount: 2
Fore
SplineSet
173 537 m 2,0,1
 173 497 173 497 168 462 c 1,2,-1
 174 462 l 1,3,4
 200 503 200 503 244.5 524 c 128,-1,5
 289 545 289 545 341 545 c 0,6,7
 439 545 439 545 488 498.5 c 128,-1,8
 537 452 537 452 537 349 c 2,9,-1
 537 0 l 1,10,-1
 450 0 l 1,11,-1
 450 343 l 2,12,13
 450 472 450 472 330 472 c 0,14,15
 240 472 240 472 206.5 421.5 c 128,-1,16
 173 371 173 371 173 277 c 2,17,-1
 173 0 l 1,18,-1
 85 0 l 1,19,-1
 85 760 l 1,20,-1
 173 760 l 1,21,-1
 173 537 l 2,0,1
EndSplineSet
Substitution2: "'smcp' Lowercase to Small Capitals lookup 37 subtable" h.sc
Substitution2: "'sinf' Scientific Inferiors lookup 21 subtable" uni2095
Substitution2: "'subs' Subscript lookup 20 subtable" uni2095
AlternateSubs2: "'aalt' Access All Alternates lookup 1 subtable" h.sc uni2095
EndChar

StartChar: i
Encoding: 105 105 76
Width: 258
GlyphClass: 2
Flags: W
AnchorPoint: "Anchor-2" 238 737 basechar 0
AnchorPoint: "Anchor-1" 129 737 basechar 0
AnchorPoint: "Anchor-0" 131 0 basechar 0
LayerCount: 2
Fore
SplineSet
130 737 m 0,0,1
 150 737 150 737 165.5 723.5 c 128,-1,2
 181 710 181 710 181 681 c 0,3,4
 181 653 181 653 165.5 639 c 128,-1,5
 150 625 150 625 130 625 c 0,6,7
 108 625 108 625 93 639 c 128,-1,8
 78 653 78 653 78 681 c 0,9,10
 78 710 78 710 93 723.5 c 128,-1,11
 108 737 108 737 130 737 c 0,0,1
173 536 m 1,12,-1
 173 0 l 1,13,-1
 85 0 l 1,14,-1
 85 536 l 1,15,-1
 173 536 l 1,12,-1
EndSplineSet
Substitution2: "'smcp' Lowercase to Small Capitals lookup 37 subtable" i.sc
Substitution2: "Single Substitution lookup 5 subtable" dotlessi
Substitution2: "Single Substitution lookup 4 subtable" dotlessi
AlternateSubs2: "'aalt' Access All Alternates lookup 1 subtable" dotlessi i.sc
EndChar

StartChar: j
Encoding: 106 106 77
Width: 258
GlyphClass: 2
Flags: W
AnchorPoint: "Anchor-2" 238 737 basechar 0
AnchorPoint: "Anchor-1" 129 737 basechar 0
AnchorPoint: "Anchor-0" 22 -240 basechar 0
LayerCount: 2
Fore
SplineSet
78 681 m 0,0,1
 78 710 78 710 93 723.5 c 128,-1,2
 108 737 108 737 130 737 c 0,3,4
 150 737 150 737 165.5 723.5 c 128,-1,5
 181 710 181 710 181 681 c 0,6,7
 181 653 181 653 165.5 639 c 128,-1,8
 150 625 150 625 130 625 c 0,9,10
 108 625 108 625 93 639 c 128,-1,11
 78 653 78 653 78 681 c 0,0,1
22 -240 m 0,12,13
 -3 -240 -3 -240 -22 -236.5 c 128,-1,14
 -41 -233 -41 -233 -55 -228 c 1,15,-1
 -55 -157 l 1,16,17
 -40 -161 -40 -161 -24 -164 c 128,-1,18
 -8 -167 -8 -167 11 -167 c 0,19,20
 43 -167 43 -167 64 -149.5 c 128,-1,21
 85 -132 85 -132 85 -83 c 2,22,-1
 85 536 l 1,23,-1
 173 536 l 1,24,-1
 173 -80 l 2,25,26
 173 -155 173 -155 137 -197.5 c 128,-1,27
 101 -240 101 -240 22 -240 c 0,12,13
EndSplineSet
Substitution2: "'smcp' Lowercase to Small Capitals lookup 37 subtable" j.sc
Substitution2: "Single Substitution lookup 5 subtable" uni0237
Substitution2: "Single Substitution lookup 4 subtable" uni0237
AlternateSubs2: "'aalt' Access All Alternates lookup 1 subtable" uni0237 j.sc
EndChar

StartChar: k
Encoding: 107 107 78
Width: 534
GlyphClass: 2
Flags: W
AnchorPoint: "Anchor-2" 369 840 basechar 0
AnchorPoint: "Anchor-1" 129 760 basechar 0
AnchorPoint: "Anchor-0" 267 0 basechar 0
LayerCount: 2
Fore
SplineSet
172 363 m 2,0,1
 172 347 172 347 170.5 321 c 128,-1,2
 169 295 169 295 168 276 c 1,3,-1
 172 276 l 1,4,5
 178 284 178 284 190 299 c 128,-1,6
 202 314 202 314 214.5 329.5 c 128,-1,7
 227 345 227 345 236 355 c 2,8,-1
 407 536 l 1,9,-1
 510 536 l 1,10,-1
 293 307 l 1,11,-1
 525 0 l 1,12,-1
 419 0 l 1,13,-1
 233 250 l 1,14,-1
 172 197 l 1,15,-1
 172 0 l 1,16,-1
 85 0 l 1,17,-1
 85 760 l 1,18,-1
 172 760 l 1,19,-1
 172 363 l 2,0,1
EndSplineSet
Substitution2: "'smcp' Lowercase to Small Capitals lookup 37 subtable" k.sc
Substitution2: "'sinf' Scientific Inferiors lookup 21 subtable" uni2096
Substitution2: "'subs' Subscript lookup 20 subtable" uni2096
AlternateSubs2: "'aalt' Access All Alternates lookup 1 subtable" k.sc uni2096
EndChar

StartChar: l
Encoding: 108 108 79
Width: 258
GlyphClass: 2
Flags: W
AnchorPoint: "Anchor-3" 129 268 basechar 0
AnchorPoint: "Anchor-2" 202 760 basechar 0
AnchorPoint: "Anchor-1" 129 760 basechar 0
AnchorPoint: "Anchor-0" 129 0 basechar 0
LayerCount: 2
Fore
SplineSet
173 0 m 1,0,-1
 85 0 l 1,1,-1
 85 760 l 1,2,-1
 173 760 l 1,3,-1
 173 0 l 1,0,-1
EndSplineSet
Substitution2: "'smcp' Lowercase to Small Capitals lookup 37 subtable" l.sc
Substitution2: "'sinf' Scientific Inferiors lookup 21 subtable" uni2097
Substitution2: "'subs' Subscript lookup 20 subtable" uni2097
AlternateSubs2: "'aalt' Access All Alternates lookup 1 subtable" l.sc uni2097
EndChar

StartChar: m
Encoding: 109 109 80
Width: 935
GlyphClass: 2
Flags: W
AnchorPoint: "Anchor-2" 885 536 basechar 0
AnchorPoint: "Anchor-1" 479 536 basechar 0
AnchorPoint: "Anchor-0" 471 0 basechar 0
LayerCount: 2
Fore
SplineSet
673 546 m 0,0,1
 764 546 764 546 809 499.5 c 128,-1,2
 854 453 854 453 854 349 c 2,3,-1
 854 0 l 1,4,-1
 767 0 l 1,5,-1
 767 345 l 2,6,7
 767 472 767 472 658 472 c 0,8,9
 580 472 580 472 546.5 427 c 128,-1,10
 513 382 513 382 513 296 c 2,11,-1
 513 0 l 1,12,-1
 426 0 l 1,13,-1
 426 345 l 2,14,15
 426 472 426 472 316 472 c 0,16,17
 235 472 235 472 204 422 c 128,-1,18
 173 372 173 372 173 278 c 2,19,-1
 173 0 l 1,20,-1
 85 0 l 1,21,-1
 85 536 l 1,22,-1
 156 536 l 1,23,-1
 169 463 l 1,24,-1
 174 463 l 1,25,26
 199 505 199 505 241.5 525.5 c 128,-1,27
 284 546 284 546 332 546 c 0,28,29
 458 546 458 546 496 456 c 1,30,-1
 501 456 l 1,31,32
 528 502 528 502 574.5 524 c 128,-1,33
 621 546 621 546 673 546 c 0,0,1
EndSplineSet
Substitution2: "'smcp' Lowercase to Small Capitals lookup 37 subtable" m.sc
Substitution2: "'sinf' Scientific Inferiors lookup 21 subtable" uni2098
Substitution2: "'subs' Subscript lookup 20 subtable" uni2098
AlternateSubs2: "'aalt' Access All Alternates lookup 1 subtable" m.sc uni2098
EndChar

StartChar: n
Encoding: 110 110 81
Width: 618
GlyphClass: 2
Flags: W
AnchorPoint: "Anchor-2" 562 536 basechar 0
AnchorPoint: "Anchor-1" 309 536 basechar 0
AnchorPoint: "Anchor-0" 309 0 basechar 0
LayerCount: 2
Fore
SplineSet
343 546 m 0,0,1
 439 546 439 546 488 499.5 c 128,-1,2
 537 453 537 453 537 349 c 2,3,-1
 537 0 l 1,4,-1
 450 0 l 1,5,-1
 450 343 l 2,6,7
 450 472 450 472 330 472 c 0,8,9
 241 472 241 472 207 422 c 128,-1,10
 173 372 173 372 173 278 c 2,11,-1
 173 0 l 1,12,-1
 85 0 l 1,13,-1
 85 536 l 1,14,-1
 156 536 l 1,15,-1
 169 463 l 1,16,-1
 174 463 l 1,17,18
 200 505 200 505 246 525.5 c 128,-1,19
 292 546 292 546 343 546 c 0,0,1
EndSplineSet
Substitution2: "'smcp' Lowercase to Small Capitals lookup 37 subtable" n.sc
Substitution2: "'sups' Superscript lookup 22 subtable" uni207F
Substitution2: "'sinf' Scientific Inferiors lookup 21 subtable" uni2099
Substitution2: "'subs' Subscript lookup 20 subtable" uni2099
AlternateSubs2: "'aalt' Access All Alternates lookup 1 subtable" uni207F n.sc uni2099
EndChar

StartChar: o
Encoding: 111 111 82
Width: 605
GlyphClass: 2
Flags: W
AnchorPoint: "Anchor-3" 303 268 basechar 0
AnchorPoint: "Anchor-2" 575 536 basechar 0
AnchorPoint: "Anchor-1" 303 536 basechar 0
AnchorPoint: "Anchor-0" 301 0 basechar 0
LayerCount: 2
Fore
SplineSet
551 269 m 0,0,1
 551 136 551 136 483.5 63 c 128,-1,2
 416 -10 416 -10 301 -10 c 0,3,4
 230 -10 230 -10 174.5 22.5 c 128,-1,5
 119 55 119 55 87 117.5 c 128,-1,6
 55 180 55 180 55 269 c 0,7,8
 55 402 55 402 122 474 c 128,-1,9
 189 546 189 546 304 546 c 0,10,11
 377 546 377 546 432.5 513.5 c 128,-1,12
 488 481 488 481 519.5 419.5 c 128,-1,13
 551 358 551 358 551 269 c 0,0,1
146 269 m 256,14,15
 146 174 146 174 183.5 118.5 c 128,-1,16
 221 63 221 63 303 63 c 0,17,18
 384 63 384 63 422 118.5 c 128,-1,19
 460 174 460 174 460 269 c 256,20,21
 460 364 460 364 422 418 c 128,-1,22
 384 472 384 472 302 472 c 256,23,24
 220 472 220 472 183 418 c 128,-1,25
 146 364 146 364 146 269 c 256,14,15
EndSplineSet
Substitution2: "'smcp' Lowercase to Small Capitals lookup 37 subtable" o.sc
Substitution2: "Single Substitution lookup 31 subtable" ordmasculine
AlternateSubs2: "'aalt' Access All Alternates lookup 1 subtable" ordmasculine o.sc
EndChar

StartChar: p
Encoding: 112 112 83
Width: 615
GlyphClass: 2
Flags: W
AnchorPoint: "Anchor-2" 585 536 basechar 0
AnchorPoint: "Anchor-1" 332 536 basechar 0
AnchorPoint: "Anchor-0" 129 -240 basechar 0
LayerCount: 2
Fore
SplineSet
340 546 m 0,0,1
 439 546 439 546 499.5 477 c 128,-1,2
 560 408 560 408 560 269 c 0,3,4
 560 132 560 132 499.5 61 c 128,-1,5
 439 -10 439 -10 339 -10 c 0,6,7
 277 -10 277 -10 236.5 13.5 c 128,-1,8
 196 37 196 37 173 68 c 1,9,-1
 167 68 l 1,10,11
 169 51 169 51 171 25 c 128,-1,12
 173 -1 173 -1 173 -20 c 2,13,-1
 173 -240 l 1,14,-1
 85 -240 l 1,15,-1
 85 536 l 1,16,-1
 157 536 l 1,17,-1
 169 463 l 1,18,-1
 173 463 l 1,19,20
 197 498 197 498 236 522 c 128,-1,21
 275 546 275 546 340 546 c 0,0,1
324 472 m 0,22,23
 242 472 242 472 208.5 426 c 128,-1,24
 175 380 175 380 173 286 c 2,25,-1
 173 269 l 2,26,27
 173 170 173 170 205.5 116.5 c 128,-1,28
 238 63 238 63 326 63 c 0,29,30
 375 63 375 63 406.5 90 c 128,-1,31
 438 117 438 117 453.5 163.5 c 128,-1,32
 469 210 469 210 469 270 c 0,33,34
 469 362 469 362 433.5 417 c 128,-1,35
 398 472 398 472 324 472 c 0,22,23
EndSplineSet
Substitution2: "'smcp' Lowercase to Small Capitals lookup 37 subtable" p.sc
Substitution2: "'sinf' Scientific Inferiors lookup 21 subtable" uni209A
Substitution2: "'subs' Subscript lookup 20 subtable" uni209A
AlternateSubs2: "'aalt' Access All Alternates lookup 1 subtable" p.sc uni209A
EndChar

StartChar: q
Encoding: 113 113 84
Width: 615
GlyphClass: 2
Flags: W
AnchorPoint: "Anchor-2" 555 536 basechar 0
AnchorPoint: "Anchor-1" 308 536 basechar 0
AnchorPoint: "Anchor-0" 486 -240 basechar 0
LayerCount: 2
Fore
SplineSet
442 -11 m 2,0,1
 442 7 442 7 443 31 c 128,-1,2
 444 55 444 55 447 72 c 1,3,-1
 441 72 l 1,4,5
 418 38 418 38 377.5 14 c 128,-1,6
 337 -10 337 -10 273 -10 c 0,7,8
 176 -10 176 -10 115.5 59.5 c 128,-1,9
 55 129 55 129 55 267 c 256,10,11
 55 405 55 405 116.5 475.5 c 128,-1,12
 178 546 178 546 276 546 c 0,13,14
 339 546 339 546 379 522 c 128,-1,15
 419 498 419 498 443 463 c 1,16,-1
 447 463 l 1,17,-1
 460 536 l 1,18,-1
 530 536 l 1,19,-1
 530 -240 l 1,20,-1
 442 -240 l 1,21,-1
 442 -11 l 2,0,1
290 63 m 0,22,23
 373 63 373 63 407.5 108.5 c 128,-1,24
 442 154 442 154 443 248 c 2,25,-1
 443 266 l 2,26,27
 443 368 443 368 409 420.5 c 128,-1,28
 375 473 375 473 288 473 c 0,29,30
 216 473 216 473 181 416.5 c 128,-1,31
 146 360 146 360 146 265 c 256,32,33
 146 170 146 170 181.5 116.5 c 128,-1,34
 217 63 217 63 290 63 c 0,22,23
EndSplineSet
Substitution2: "'smcp' Lowercase to Small Capitals lookup 37 subtable" q.sc
Substitution2: "'aalt' Access All Alternates lookup 0 subtable" q.sc
EndChar

StartChar: r
Encoding: 114 114 85
Width: 413
GlyphClass: 2
Flags: W
AnchorPoint: "Anchor-2" 393 536 basechar 0
AnchorPoint: "Anchor-1" 240 536 basechar 0
AnchorPoint: "Anchor-0" 126 0 basechar 0
LayerCount: 2
Fore
SplineSet
335 546 m 0,0,1
 350 546 350 546 367.5 544.5 c 128,-1,2
 385 543 385 543 398 540 c 1,3,-1
 387 459 l 1,4,5
 374 462 374 462 358.5 464 c 128,-1,6
 343 466 343 466 329 466 c 0,7,8
 288 466 288 466 252 443.5 c 128,-1,9
 216 421 216 421 194.5 380.5 c 128,-1,10
 173 340 173 340 173 286 c 2,11,-1
 173 0 l 1,12,-1
 85 0 l 1,13,-1
 85 536 l 1,14,-1
 157 536 l 1,15,-1
 167 438 l 1,16,-1
 171 438 l 1,17,18
 197 482 197 482 238 514 c 128,-1,19
 279 546 279 546 335 546 c 0,0,1
EndSplineSet
Substitution2: "'smcp' Lowercase to Small Capitals lookup 37 subtable" r.sc
Substitution2: "'aalt' Access All Alternates lookup 0 subtable" r.sc
EndChar

StartChar: s
Encoding: 115 115 86
Width: 479
GlyphClass: 2
Flags: W
AnchorPoint: "Anchor-2" 439 536 basechar 0
AnchorPoint: "Anchor-1" 240 536 basechar 0
AnchorPoint: "Anchor-0" 240 0 basechar 0
LayerCount: 2
Fore
SplineSet
434 148 m 0,0,1
 434 70 434 70 376 30 c 128,-1,2
 318 -10 318 -10 220 -10 c 0,3,4
 164 -10 164 -10 123.5 -1 c 128,-1,5
 83 8 83 8 52 24 c 1,6,-1
 52 104 l 1,7,8
 84 88 84 88 129.5 74.5 c 128,-1,9
 175 61 175 61 222 61 c 0,10,11
 289 61 289 61 319 82.5 c 128,-1,12
 349 104 349 104 349 140 c 0,13,14
 349 160 349 160 338 176 c 128,-1,15
 327 192 327 192 298.5 208 c 128,-1,16
 270 224 270 224 217 244 c 0,17,18
 165 264 165 264 128 284 c 128,-1,19
 91 304 91 304 71 332 c 128,-1,20
 51 360 51 360 51 404 c 0,21,22
 51 472 51 472 106.5 509 c 128,-1,23
 162 546 162 546 252 546 c 0,24,25
 301 546 301 546 343.5 536.5 c 128,-1,26
 386 527 386 527 423 510 c 1,27,-1
 393 440 l 1,28,29
 359 454 359 454 322 464 c 128,-1,30
 285 474 285 474 246 474 c 0,31,32
 192 474 192 474 163.5 456.5 c 128,-1,33
 135 439 135 439 135 409 c 0,34,35
 135 387 135 387 148 371.5 c 128,-1,36
 161 356 161 356 191.5 341.5 c 128,-1,37
 222 327 222 327 273 307 c 0,38,39
 324 288 324 288 360 268 c 128,-1,40
 396 248 396 248 415 219.5 c 128,-1,41
 434 191 434 191 434 148 c 0,0,1
EndSplineSet
Substitution2: "'smcp' Lowercase to Small Capitals lookup 37 subtable" s.sc
Substitution2: "'sinf' Scientific Inferiors lookup 21 subtable" uni209B
Substitution2: "'subs' Subscript lookup 20 subtable" uni209B
AlternateSubs2: "'aalt' Access All Alternates lookup 1 subtable" s.sc uni209B
EndChar

StartChar: t
Encoding: 116 116 87
Width: 361
GlyphClass: 2
Flags: W
AnchorPoint: "Anchor-3" 181 268 basechar 0
AnchorPoint: "Anchor-2" 225 840 basechar 0
AnchorPoint: "Anchor-1" 154 659 basechar 0
AnchorPoint: "Anchor-0" 214 0 basechar 0
LayerCount: 2
Fore
SplineSet
264 62 m 0,0,1
 284 62 284 62 305 65.5 c 128,-1,2
 326 69 326 69 339 73 c 1,3,-1
 339 6 l 1,4,5
 325 -1 325 -1 299 -5.5 c 128,-1,6
 273 -10 273 -10 249 -10 c 0,7,8
 207 -10 207 -10 171.5 4.5 c 128,-1,9
 136 19 136 19 114 55 c 128,-1,10
 92 91 92 91 92 156 c 2,11,-1
 92 468 l 1,12,-1
 16 468 l 1,13,-1
 16 510 l 1,14,-1
 93 545 l 1,15,-1
 128 659 l 1,16,-1
 180 659 l 1,17,-1
 180 536 l 1,18,-1
 335 536 l 1,19,-1
 335 468 l 1,20,-1
 180 468 l 1,21,-1
 180 158 l 2,22,23
 180 109 180 109 203.5 85.5 c 128,-1,24
 227 62 227 62 264 62 c 0,0,1
EndSplineSet
Substitution2: "'smcp' Lowercase to Small Capitals lookup 37 subtable" t.sc
Substitution2: "'sinf' Scientific Inferiors lookup 21 subtable" uni209C
Substitution2: "'subs' Subscript lookup 20 subtable" uni209C
AlternateSubs2: "'aalt' Access All Alternates lookup 1 subtable" t.sc uni209C
EndChar

StartChar: u
Encoding: 117 117 88
Width: 618
GlyphClass: 2
Flags: W
AnchorPoint: "Anchor-2" 562 536 basechar 0
AnchorPoint: "Anchor-1" 309 536 basechar 0
AnchorPoint: "Anchor-0" 294 0 basechar 0
LayerCount: 2
Fore
SplineSet
533 536 m 1,0,-1
 533 0 l 1,1,-1
 461 0 l 1,2,-1
 448 71 l 1,3,-1
 444 71 l 1,4,5
 418 29 418 29 372 9.5 c 128,-1,6
 326 -10 326 -10 274 -10 c 0,7,8
 177 -10 177 -10 128 36.5 c 128,-1,9
 79 83 79 83 79 185 c 2,10,-1
 79 536 l 1,11,-1
 168 536 l 1,12,-1
 168 191 l 2,13,14
 168 63 168 63 287 63 c 0,15,16
 376 63 376 63 410.5 113 c 128,-1,17
 445 163 445 163 445 257 c 2,18,-1
 445 536 l 1,19,-1
 533 536 l 1,0,-1
EndSplineSet
Substitution2: "'smcp' Lowercase to Small Capitals lookup 37 subtable" u.sc
Substitution2: "'aalt' Access All Alternates lookup 0 subtable" u.sc
EndChar

StartChar: v
Encoding: 118 118 89
Width: 508
GlyphClass: 2
Flags: W
AnchorPoint: "Anchor-2" 488 536 basechar 0
AnchorPoint: "Anchor-1" 252 536 basechar 0
AnchorPoint: "Anchor-0" 252 0 basechar 0
LayerCount: 2
Fore
SplineSet
203 0 m 1,0,-1
 0 536 l 1,1,-1
 94 536 l 1,2,-1
 208 220 l 2,3,4
 216 198 216 198 225 171 c 128,-1,5
 234 144 234 144 241 119.5 c 128,-1,6
 248 95 248 95 251 78 c 1,7,-1
 255 78 l 1,8,9
 259 95 259 95 266.5 120 c 128,-1,10
 274 145 274 145 283.5 172 c 128,-1,11
 293 199 293 199 300 220 c 2,12,-1
 414 536 l 1,13,-1
 508 536 l 1,14,-1
 304 0 l 1,15,-1
 203 0 l 1,0,-1
EndSplineSet
Substitution2: "'smcp' Lowercase to Small Capitals lookup 37 subtable" v.sc
Substitution2: "'aalt' Access All Alternates lookup 0 subtable" v.sc
EndChar

StartChar: w
Encoding: 119 119 90
Width: 786
GlyphClass: 2
Flags: W
AnchorPoint: "Anchor-2" 766 536 basechar 0
AnchorPoint: "Anchor-1" 393 536 basechar 0
AnchorPoint: "Anchor-0" 391 0 basechar 0
LayerCount: 2
Fore
SplineSet
431 303 m 2,0,1
 418 344 418 344 408.5 383.5 c 128,-1,2
 399 423 399 423 394 445 c 1,3,-1
 390 445 l 1,4,5
 386 423 386 423 377 383.5 c 128,-1,6
 368 344 368 344 354 302 c 2,7,-1
 258 1 l 1,8,-1
 158 1 l 1,9,-1
 11 537 l 1,10,-1
 102 537 l 1,11,-1
 176 251 l 2,12,13
 187 208 187 208 197 164 c 128,-1,14
 207 120 207 120 211 91 c 1,15,-1
 215 91 l 1,16,17
 219 108 219 108 224.5 133 c 128,-1,18
 230 158 230 158 237 185.5 c 128,-1,19
 244 213 244 213 251 235 c 2,20,-1
 346 537 l 1,21,-1
 442 537 l 1,22,-1
 534 235 l 2,23,24
 545 201 545 201 555.5 161 c 128,-1,25
 566 121 566 121 570 92 c 1,26,-1
 574 92 l 1,27,28
 577 117 577 117 587.5 161 c 128,-1,29
 598 205 598 205 610 251 c 2,30,-1
 685 537 l 1,31,-1
 775 537 l 1,32,-1
 626 1 l 1,33,-1
 523 1 l 1,34,-1
 431 303 l 2,0,1
EndSplineSet
Substitution2: "'smcp' Lowercase to Small Capitals lookup 37 subtable" w.sc
Substitution2: "'aalt' Access All Alternates lookup 0 subtable" w.sc
EndChar

StartChar: x
Encoding: 120 120 91
Width: 529
GlyphClass: 2
Flags: W
AnchorPoint: "Anchor-2" 509 536 basechar 0
AnchorPoint: "Anchor-1" 263 536 basechar 0
AnchorPoint: "Anchor-0" 265 0 basechar 0
LayerCount: 2
Fore
SplineSet
212 274 m 1,0,-1
 27 536 l 1,1,-1
 127 536 l 1,2,-1
 265 334 l 1,3,-1
 402 536 l 1,4,-1
 501 536 l 1,5,-1
 316 274 l 1,6,-1
 511 0 l 1,7,-1
 411 0 l 1,8,-1
 265 214 l 1,9,-1
 117 0 l 1,10,-1
 18 0 l 1,11,-1
 212 274 l 1,0,-1
EndSplineSet
Substitution2: "'smcp' Lowercase to Small Capitals lookup 37 subtable" x.sc
Substitution2: "'aalt' Access All Alternates lookup 0 subtable" x.sc
EndChar

StartChar: y
Encoding: 121 121 92
Width: 510
GlyphClass: 2
Flags: W
AnchorPoint: "Anchor-2" 490 536 basechar 0
AnchorPoint: "Anchor-1" 255 536 basechar 0
AnchorPoint: "Anchor-0" 94 -240 basechar 0
LayerCount: 2
Fore
SplineSet
1 536 m 1,0,-1
 95 536 l 1,1,-1
 211 231 l 2,2,3
 226 191 226 191 238 154.5 c 128,-1,4
 250 118 250 118 256 85 c 1,5,-1
 260 85 l 1,6,7
 266 110 266 110 279 150.5 c 128,-1,8
 292 191 292 191 306 232 c 2,9,-1
 415 536 l 1,10,-1
 510 536 l 1,11,-1
 279 -74 l 2,12,13
 251 -150 251 -150 206.5 -195 c 128,-1,14
 162 -240 162 -240 84 -240 c 0,15,16
 60 -240 60 -240 42 -237.5 c 128,-1,17
 24 -235 24 -235 11 -232 c 1,18,-1
 11 -162 l 1,19,20
 22 -164 22 -164 37.5 -166 c 128,-1,21
 53 -168 53 -168 70 -168 c 0,22,23
 116 -168 116 -168 144.5 -142 c 128,-1,24
 173 -116 173 -116 189 -73 c 2,25,-1
 217 -2 l 1,26,-1
 1 536 l 1,0,-1
EndSplineSet
Substitution2: "'smcp' Lowercase to Small Capitals lookup 37 subtable" y.sc
Substitution2: "'aalt' Access All Alternates lookup 0 subtable" y.sc
EndChar

StartChar: z
Encoding: 122 122 93
Width: 470
GlyphClass: 2
Flags: W
AnchorPoint: "Anchor-2" 430 536 basechar 0
AnchorPoint: "Anchor-1" 235 536 basechar 0
AnchorPoint: "Anchor-0" 242 0 basechar 0
LayerCount: 2
Fore
SplineSet
431 0 m 1,0,-1
 39 0 l 1,1,-1
 39 58 l 1,2,-1
 327 468 l 1,3,-1
 56 468 l 1,4,-1
 56 536 l 1,5,-1
 424 536 l 1,6,-1
 424 470 l 1,7,-1
 140 68 l 1,8,-1
 431 68 l 1,9,-1
 431 0 l 1,0,-1
EndSplineSet
Substitution2: "'smcp' Lowercase to Small Capitals lookup 37 subtable" z.sc
Substitution2: "'aalt' Access All Alternates lookup 0 subtable" z.sc
EndChar

StartChar: braceleft
Encoding: 123 123 94
Width: 380
Flags: W
LayerCount: 2
Fore
SplineSet
348 -158 m 1,0,1
 256 -157 256 -157 203 -118 c 128,-1,2
 150 -79 150 -79 150 1 c 2,3,-1
 150 148 l 2,4,5
 150 199 150 199 118.5 220.5 c 128,-1,6
 87 242 87 242 28 242 c 1,7,-1
 28 315 l 1,8,9
 87 316 87 316 118.5 337 c 128,-1,10
 150 358 150 358 150 408 c 2,11,-1
 150 556 l 2,12,13
 150 636 150 636 205 675 c 128,-1,14
 260 714 260 714 348 714 c 1,15,-1
 348 642 l 1,16,17
 296 641 296 641 266.5 619 c 128,-1,18
 237 597 237 597 237 548 c 2,19,-1
 237 404 l 2,20,21
 237 301 237 301 128 282 c 1,22,-1
 128 276 l 1,23,24
 237 257 237 257 237 154 c 2,25,-1
 237 7 l 2,26,27
 237 -42 237 -42 266 -63.5 c 128,-1,28
 295 -85 295 -85 348 -86 c 1,29,-1
 348 -158 l 1,0,1
EndSplineSet
Substitution2: "'smcp' Lowercase to Small Capitals lookup 37 subtable" braceleft.sc
Substitution2: "'c2sc' Capitals to Small Capitals lookup 36 subtable" braceleft.sc
Substitution2: "'aalt' Access All Alternates lookup 0 subtable" braceleft.sc
EndChar

StartChar: bar
Encoding: 124 124 95
Width: 551
Flags: W
LayerCount: 2
Fore
SplineSet
239 760 m 1,0,-1
 312 760 l 1,1,-1
 312 -241 l 1,2,-1
 239 -241 l 1,3,-1
 239 760 l 1,0,-1
EndSplineSet
EndChar

StartChar: braceright
Encoding: 125 125 96
Width: 380
Flags: W
LayerCount: 2
Fore
SplineSet
32 -86 m 1,0,1
 84 -84 84 -84 113.5 -62.5 c 128,-1,2
 143 -41 143 -41 143 8 c 2,3,-1
 143 153 l 2,4,5
 143 256 143 256 252 275 c 1,6,-1
 252 281 l 1,7,8
 143 300 143 300 143 403 c 2,9,-1
 143 549 l 2,10,11
 143 598 143 598 114 619.5 c 128,-1,12
 85 641 85 641 32 642 c 1,13,-1
 32 714 l 1,14,15
 124 713 124 713 177 674 c 128,-1,16
 230 635 230 635 230 555 c 2,17,-1
 230 409 l 2,18,19
 230 358 230 358 261.5 336.5 c 128,-1,20
 293 315 293 315 352 315 c 1,21,-1
 352 242 l 1,22,23
 293 241 293 241 261.5 220 c 128,-1,24
 230 199 230 199 230 149 c 2,25,-1
 230 0 l 2,26,27
 230 -79 230 -79 175 -118.5 c 128,-1,28
 120 -158 120 -158 32 -158 c 1,29,-1
 32 -86 l 1,0,1
EndSplineSet
Substitution2: "'smcp' Lowercase to Small Capitals lookup 37 subtable" braceright.sc
Substitution2: "'c2sc' Capitals to Small Capitals lookup 36 subtable" braceright.sc
Substitution2: "'aalt' Access All Alternates lookup 0 subtable" braceright.sc
EndChar

StartChar: asciitilde
Encoding: 126 126 97
Width: 572
Flags: W
LayerCount: 2
Fore
SplineSet
269 319 m 0,0,1
 233 335 233 335 209.5 340.5 c 128,-1,2
 186 346 186 346 164 346 c 0,3,4
 136 346 136 346 105 329 c 128,-1,5
 74 312 74 312 50 287 c 1,6,-1
 50 365 l 1,7,8
 98 418 98 418 170 418 c 0,9,10
 199 418 199 418 227.5 412 c 128,-1,11
 256 406 256 406 302 386 c 0,12,13
 338 370 338 370 361.5 364.5 c 128,-1,14
 385 359 385 359 406 359 c 0,15,16
 435 359 435 359 466 376 c 128,-1,17
 497 393 497 393 521 418 c 1,18,-1
 521 341 l 1,19,20
 472 287 472 287 401 287 c 0,21,22
 373 287 373 287 343.5 293.5 c 128,-1,23
 314 300 314 300 269 319 c 0,0,1
EndSplineSet
EndChar

StartChar: exclamdown
Encoding: 161 161 99
Width: 269
Flags: W
LayerCount: 2
Fore
SplineSet
196 478 m 0,0,1
 196 441 196 441 178 426 c 128,-1,2
 160 411 160 411 134 411 c 0,3,4
 109 411 109 411 90.5 426 c 128,-1,5
 72 441 72 441 72 478 c 0,6,7
 72 514 72 514 90.5 530 c 128,-1,8
 109 546 109 546 134 546 c 0,9,10
 160 546 160 546 178 530 c 128,-1,11
 196 514 196 514 196 478 c 0,0,1
104 330 m 1,12,-1
 162 330 l 1,13,-1
 187 -182 l 1,14,-1
 79 -182 l 1,15,-1
 104 330 l 1,12,-1
EndSplineSet
Substitution2: "'smcp' Lowercase to Small Capitals lookup 37 subtable" exclamdown.sc
Substitution2: "'c2sc' Capitals to Small Capitals lookup 36 subtable" exclamdown.sc
Substitution2: "'aalt' Access All Alternates lookup 0 subtable" exclamdown.sc
EndChar

StartChar: cent
Encoding: 162 162 100
Width: 572
Flags: W
LayerCount: 2
Fore
SplineSet
353 644 m 1,0,1
 391 643 391 643 425.5 634.5 c 128,-1,2
 460 626 460 626 485 615 c 1,3,-1
 459 542 l 1,4,5
 433 552 433 552 400 560 c 128,-1,6
 367 568 367 568 340 568 c 0,7,8
 258 568 258 568 219.5 517.5 c 128,-1,9
 181 467 181 467 181 363 c 256,10,11
 181 259 181 259 220.5 211.5 c 128,-1,12
 260 164 260 164 336 164 c 0,13,14
 380 164 380 164 412.5 172.5 c 128,-1,15
 445 181 445 181 476 194 c 1,16,-1
 476 117 l 1,17,18
 449 104 449 104 420 96.5 c 128,-1,19
 391 89 391 89 352 87 c 1,20,-1
 352 -10 l 1,21,-1
 285 -10 l 1,22,-1
 285 90 l 1,23,24
 226 99 226 99 182.5 129 c 128,-1,25
 139 159 139 159 115 216 c 128,-1,26
 91 273 91 273 91 362 c 0,27,28
 91 453 91 453 115 511 c 128,-1,29
 139 569 139 569 183 600 c 128,-1,30
 227 631 227 631 285 640 c 1,31,-1
 285 724 l 1,32,-1
 353 724 l 1,33,-1
 353 644 l 1,0,1
EndSplineSet
EndChar

StartChar: sterling
Encoding: 163 163 101
Width: 572
Flags: W
LayerCount: 2
Fore
SplineSet
334 723 m 0,0,1
 389 723 389 723 433 711 c 128,-1,2
 477 699 477 699 511 682 c 1,3,-1
 480 612 l 1,4,5
 450 626 450 626 413.5 638 c 128,-1,6
 377 650 377 650 336 650 c 0,7,8
 279 650 279 650 249 620.5 c 128,-1,9
 219 591 219 591 219 525 c 2,10,-1
 219 386 l 1,11,-1
 423 386 l 1,12,-1
 423 320 l 1,13,-1
 219 320 l 1,14,-1
 219 216 l 2,15,16
 219 155 219 155 198 125.5 c 128,-1,17
 177 96 177 96 151 80 c 1,18,-1
 535 80 l 1,19,-1
 535 0 l 1,20,-1
 32 0 l 1,21,-1
 32 74 l 1,22,23
 75 85 75 85 103 117 c 128,-1,24
 131 149 131 149 131 215 c 2,25,-1
 131 320 l 1,26,-1
 35 320 l 1,27,-1
 35 386 l 1,28,-1
 131 386 l 1,29,-1
 131 534 l 2,30,31
 131 623 131 623 186.5 673 c 128,-1,32
 242 723 242 723 334 723 c 0,0,1
EndSplineSet
EndChar

StartChar: currency
Encoding: 164 164 102
Width: 572
Flags: W
LayerCount: 2
Fore
SplineSet
90 353 m 0,0,1
 90 383 90 383 99.5 411.5 c 128,-1,2
 109 440 109 440 125 463 c 1,3,-1
 59 531 l 1,4,-1
 108 578 l 1,5,-1
 174 514 l 1,6,7
 197 531 197 531 226 540 c 128,-1,8
 255 549 255 549 286 549 c 256,9,10
 317 549 317 549 344.5 540 c 128,-1,11
 372 531 372 531 396 514 c 1,12,-1
 463 578 l 1,13,-1
 511 531 l 1,14,-1
 447 464 l 1,15,16
 462 441 462 441 472 412.5 c 128,-1,17
 482 384 482 384 482 353 c 0,18,19
 482 290 482 290 447 241 c 1,20,-1
 510 175 l 1,21,-1
 463 128 l 1,22,-1
 396 192 l 1,23,24
 373 176 373 176 345 167 c 128,-1,25
 317 158 317 158 286 158 c 0,26,27
 222 158 222 158 174 193 c 1,28,-1
 108 129 l 1,29,-1
 60 176 l 1,30,-1
 125 242 l 1,31,32
 109 265 109 265 99.5 293.5 c 128,-1,33
 90 322 90 322 90 353 c 0,0,1
157 353 m 0,34,35
 157 317 157 317 174 288 c 128,-1,36
 191 259 191 259 220.5 241.5 c 128,-1,37
 250 224 250 224 286 224 c 0,38,39
 323 224 323 224 352 241.5 c 128,-1,40
 381 259 381 259 398.5 288 c 128,-1,41
 416 317 416 317 416 353 c 0,42,43
 416 390 416 390 398.5 419.5 c 128,-1,44
 381 449 381 449 352 466.5 c 128,-1,45
 323 484 323 484 286 484 c 0,46,47
 250 484 250 484 220.5 466.5 c 128,-1,48
 191 449 191 449 174 419.5 c 128,-1,49
 157 390 157 390 157 353 c 0,34,35
EndSplineSet
EndChar

StartChar: yen
Encoding: 165 165 103
Width: 572
Flags: W
LayerCount: 2
Fore
SplineSet
285 365 m 1,0,-1
 464 714 l 1,1,-1
 556 714 l 1,2,-1
 355 339 l 1,3,-1
 479 339 l 1,4,-1
 479 275 l 1,5,-1
 328 275 l 1,6,-1
 328 193 l 1,7,-1
 479 193 l 1,8,-1
 479 129 l 1,9,-1
 328 129 l 1,10,-1
 328 0 l 1,11,-1
 242 0 l 1,12,-1
 242 129 l 1,13,-1
 91 129 l 1,14,-1
 91 193 l 1,15,-1
 242 193 l 1,16,-1
 242 275 l 1,17,-1
 91 275 l 1,18,-1
 91 339 l 1,19,-1
 213 339 l 1,20,-1
 14 714 l 1,21,-1
 107 714 l 1,22,-1
 285 365 l 1,0,-1
EndSplineSet
EndChar

StartChar: brokenbar
Encoding: 166 166 104
Width: 551
Flags: W
LayerCount: 2
Fore
SplineSet
239 760 m 1,0,-1
 312 760 l 1,1,-1
 312 379 l 1,2,-1
 239 379 l 1,3,-1
 239 760 l 1,0,-1
239 140 m 1,4,-1
 312 140 l 1,5,-1
 312 -241 l 1,6,-1
 239 -241 l 1,7,-1
 239 140 l 1,4,-1
EndSplineSet
EndChar

StartChar: section
Encoding: 167 167 105
Width: 513
Flags: W
LayerCount: 2
Fore
SplineSet
67 395 m 0,0,1
 67 445 67 445 91 475.5 c 128,-1,2
 115 506 115 506 146 521 c 1,3,4
 110 541 110 541 90 568.5 c 128,-1,5
 70 596 70 596 70 636 c 0,6,7
 70 696 70 696 121 730.5 c 128,-1,8
 172 765 172 765 267 765 c 0,9,10
 323 765 323 765 362 755.5 c 128,-1,11
 401 746 401 746 438 731 c 1,12,-1
 411 664 l 1,13,14
 377 678 377 678 343 687.5 c 128,-1,15
 309 697 309 697 261 697 c 0,16,17
 201 697 201 697 176.5 681.5 c 128,-1,18
 152 666 152 666 152 638 c 256,19,20
 152 610 152 610 180 590.5 c 128,-1,21
 208 571 208 571 284 543 c 0,22,23
 361 515 361 515 404 479 c 128,-1,24
 447 443 447 443 447 383 c 0,25,26
 447 332 447 332 424 299.5 c 128,-1,27
 401 267 401 267 372 250 c 1,28,29
 407 231 407 231 426.5 204.5 c 128,-1,30
 446 178 446 178 446 140 c 0,31,32
 446 71 446 71 388.5 33 c 128,-1,33
 331 -5 331 -5 228 -5 c 0,34,35
 173 -5 173 -5 132 3.5 c 128,-1,36
 91 12 91 12 59 28 c 1,37,-1
 59 103 l 1,38,39
 91 88 91 88 138 75 c 128,-1,40
 185 62 185 62 232 62 c 0,41,42
 306 62 306 62 334 83.5 c 128,-1,43
 362 105 362 105 362 133 c 0,44,45
 362 152 362 152 352.5 166 c 128,-1,46
 343 180 343 180 315.5 195.5 c 128,-1,47
 288 211 288 211 233 231 c 0,48,49
 181 251 181 251 143.5 272 c 128,-1,50
 106 293 106 293 86.5 322 c 128,-1,51
 67 351 67 351 67 395 c 0,0,1
142 405 m 0,52,53
 142 368 142 368 173.5 342.5 c 128,-1,54
 205 317 205 317 285 287 c 2,55,-1
 307 279 l 1,56,57
 330 293 330 293 350.5 314.5 c 128,-1,58
 371 336 371 336 371 370 c 0,59,60
 371 395 371 395 357.5 415 c 128,-1,61
 344 435 344 435 310 453.5 c 128,-1,62
 276 472 276 472 214 491 c 1,63,64
 186 484 186 484 164 461 c 128,-1,65
 142 438 142 438 142 405 c 0,52,53
EndSplineSet
EndChar

StartChar: dieresis
Encoding: 168 168 106
Width: 580
Flags: W
LayerCount: 2
Fore
SplineSet
149 681 m 0,0,1
 149 707 149 707 163 718.5 c 128,-1,2
 177 730 177 730 196 730 c 256,3,4
 215 730 215 730 229 718.5 c 128,-1,5
 243 707 243 707 243 681 c 0,6,7
 243 656 243 656 229 643.5 c 128,-1,8
 215 631 215 631 196 631 c 256,9,10
 177 631 177 631 163 643.5 c 128,-1,11
 149 656 149 656 149 681 c 0,0,1
337 681 m 0,12,13
 337 707 337 707 350.5 718.5 c 128,-1,14
 364 730 364 730 383 730 c 256,15,16
 402 730 402 730 416 718.5 c 128,-1,17
 430 707 430 707 430 681 c 0,18,19
 430 656 430 656 416 643.5 c 128,-1,20
 402 631 402 631 383 631 c 256,21,22
 364 631 364 631 350.5 643.5 c 128,-1,23
 337 656 337 656 337 681 c 0,12,13
EndSplineSet
EndChar

StartChar: copyright
Encoding: 169 169 107
Width: 832
Flags: W
LayerCount: 2
Fore
SplineSet
416 -10 m 256,0,1
 336 -10 336 -10 269 17 c 128,-1,2
 202 44 202 44 152.5 93.5 c 128,-1,3
 103 143 103 143 76 210 c 128,-1,4
 49 277 49 277 49 357 c 256,5,6
 49 437 49 437 76 504 c 128,-1,7
 103 571 103 571 152.5 620.5 c 128,-1,8
 202 670 202 670 269 697 c 128,-1,9
 336 724 336 724 416 724 c 0,10,11
 492 724 492 724 558.5 697 c 128,-1,12
 625 670 625 670 675.5 620.5 c 128,-1,13
 726 571 726 571 754.5 504 c 128,-1,14
 783 437 783 437 783 357 c 256,15,16
 783 277 783 277 756 210 c 128,-1,17
 729 143 729 143 679.5 93.5 c 128,-1,18
 630 44 630 44 563 17 c 128,-1,19
 496 -10 496 -10 416 -10 c 256,0,1
416 43 m 0,20,21
 480 43 480 43 536 66 c 128,-1,22
 592 89 592 89 635 131.5 c 128,-1,23
 678 174 678 174 702 231 c 128,-1,24
 726 288 726 288 726 357 c 0,25,26
 726 422 726 422 703 479 c 128,-1,27
 680 536 680 536 638.5 579 c 128,-1,28
 597 622 597 622 540.5 646.5 c 128,-1,29
 484 671 484 671 416 671 c 0,30,31
 326 671 326 671 255.5 630.5 c 128,-1,32
 185 590 185 590 145 519.5 c 128,-1,33
 105 449 105 449 105 357 c 0,34,35
 105 292 105 292 128 235 c 128,-1,36
 151 178 151 178 192.5 135 c 128,-1,37
 234 92 234 92 291 67.5 c 128,-1,38
 348 43 348 43 416 43 c 0,20,21
431 133 m 0,39,40
 332 133 332 133 283 194.5 c 128,-1,41
 234 256 234 256 234 357 c 0,42,43
 234 422 234 422 257 472.5 c 128,-1,44
 280 523 280 523 325 551.5 c 128,-1,45
 370 580 370 580 435 580 c 256,46,47
 500 580 500 580 558 550 c 1,48,-1
 529 489 l 1,49,50
 479 515 479 515 436 515 c 0,51,52
 377 515 377 515 344.5 473 c 128,-1,53
 312 431 312 431 312 357 c 0,54,55
 312 281 312 281 340.5 239.5 c 128,-1,56
 369 198 369 198 435 198 c 0,57,58
 458 198 458 198 486.5 204.5 c 128,-1,59
 515 211 515 211 540 221 c 1,60,-1
 540 157 l 1,61,62
 516 147 516 147 491 140 c 128,-1,63
 466 133 466 133 431 133 c 0,39,40
EndSplineSet
EndChar

StartChar: ordfeminine
Encoding: 170 170 108
Width: 357
GlyphClass: 2
Flags: W
AnchorPoint: "Anchor-1" 172 725 basechar 0
AnchorPoint: "Anchor-0" 172 384 basechar 0
LayerCount: 2
Fore
SplineSet
177 722 m 0,0,1
 242 722 242 722 275 695 c 128,-1,2
 308 668 308 668 308 609 c 2,3,-1
 308 389 l 1,4,-1
 261 389 l 1,5,-1
 249 431 l 1,6,7
 229 410 229 410 201 396.5 c 128,-1,8
 173 383 173 383 135 383 c 0,9,10
 88 383 88 383 60 407.5 c 128,-1,11
 32 432 32 432 32 482 c 0,12,13
 32 581 32 581 190 587 c 2,14,-1
 246 589 l 1,15,-1
 246 611 l 2,16,17
 246 644 246 644 225 657 c 128,-1,18
 204 670 204 670 175 670 c 0,19,20
 147 670 147 670 122 662.5 c 128,-1,21
 97 655 97 655 74 644 c 1,22,-1
 52 693 l 1,23,24
 78 706 78 706 110.5 714 c 128,-1,25
 143 722 143 722 177 722 c 0,0,1
198 542 m 2,26,27
 138 540 138 540 117 524.5 c 128,-1,28
 96 509 96 509 96 482 c 0,29,30
 96 457 96 457 110.5 445.5 c 128,-1,31
 125 434 125 434 150 434 c 0,32,33
 201 434 201 434 223.5 457.5 c 128,-1,34
 246 481 246 481 246 521 c 2,35,-1
 246 544 l 1,36,-1
 198 542 l 2,26,27
EndSplineSet
EndChar

StartChar: guillemotleft
Encoding: 171 171 109
Width: 509
Flags: W
LayerCount: 2
Fore
SplineSet
40 270 m 1,0,-1
 208 471 l 1,1,-1
 271 435 l 1,2,-1
 131 264 l 1,3,-1
 271 93 l 1,4,-1
 208 56 l 1,5,-1
 40 257 l 1,6,-1
 40 270 l 1,0,-1
238 270 m 1,7,-1
 408 471 l 1,8,-1
 470 435 l 1,9,-1
 330 264 l 1,10,-1
 470 93 l 1,11,-1
 408 56 l 1,12,-1
 238 257 l 1,13,-1
 238 270 l 1,7,-1
EndSplineSet
EndChar

StartChar: logicalnot
Encoding: 172 172 110
Width: 572
Flags: W
LayerCount: 2
Fore
SplineSet
520 388 m 1,0,-1
 520 128 l 1,1,-1
 449 128 l 1,2,-1
 449 317 l 1,3,-1
 50 317 l 1,4,-1
 50 388 l 1,5,-1
 520 388 l 1,0,-1
EndSplineSet
EndChar

StartChar: registered
Encoding: 174 174 112
Width: 832
Flags: W
LayerCount: 2
Fore
SplineSet
416 -10 m 256,0,1
 336 -10 336 -10 269 17 c 128,-1,2
 202 44 202 44 152.5 93.5 c 128,-1,3
 103 143 103 143 76 210 c 128,-1,4
 49 277 49 277 49 357 c 256,5,6
 49 437 49 437 76 504 c 128,-1,7
 103 571 103 571 152.5 620.5 c 128,-1,8
 202 670 202 670 269 697 c 128,-1,9
 336 724 336 724 416 724 c 0,10,11
 492 724 492 724 558.5 697 c 128,-1,12
 625 670 625 670 675.5 620.5 c 128,-1,13
 726 571 726 571 754.5 504 c 128,-1,14
 783 437 783 437 783 357 c 256,15,16
 783 277 783 277 756 210 c 128,-1,17
 729 143 729 143 679.5 93.5 c 128,-1,18
 630 44 630 44 563 17 c 128,-1,19
 496 -10 496 -10 416 -10 c 256,0,1
416 43 m 0,20,21
 480 43 480 43 536 66 c 128,-1,22
 592 89 592 89 635 131.5 c 128,-1,23
 678 174 678 174 702 231 c 128,-1,24
 726 288 726 288 726 357 c 0,25,26
 726 422 726 422 703 479 c 128,-1,27
 680 536 680 536 638.5 579 c 128,-1,28
 597 622 597 622 540.5 646.5 c 128,-1,29
 484 671 484 671 416 671 c 0,30,31
 326 671 326 671 255.5 630.5 c 128,-1,32
 185 590 185 590 145 519.5 c 128,-1,33
 105 449 105 449 105 357 c 0,34,35
 105 292 105 292 128 235 c 128,-1,36
 151 178 151 178 192.5 135 c 128,-1,37
 234 92 234 92 291 67.5 c 128,-1,38
 348 43 348 43 416 43 c 0,20,21
279 138 m 1,39,-1
 279 575 l 1,40,-1
 407 575 l 2,41,42
 489 575 489 575 527 543 c 128,-1,43
 565 511 565 511 565 446 c 0,44,45
 565 399 565 399 541 371.5 c 128,-1,46
 517 344 517 344 487 332 c 1,47,-1
 603 138 l 1,48,-1
 517 138 l 1,49,-1
 417 311 l 1,50,-1
 355 311 l 1,51,-1
 355 138 l 1,52,-1
 279 138 l 1,39,-1
405 373 m 2,53,54
 444 373 444 373 466 393 c 128,-1,55
 488 413 488 413 488 444 c 0,56,57
 488 479 488 479 468 495 c 128,-1,58
 448 511 448 511 404 511 c 2,59,-1
 355 511 l 1,60,-1
 355 373 l 1,61,-1
 405 373 l 2,53,54
EndSplineSet
EndChar

StartChar: overscore
Encoding: 175 175 113
Width: 500
Flags: W
LayerCount: 2
Fore
SplineSet
503 760 m 1,0,-1
 -3 760 l 1,1,-1
 -3 826 l 1,2,-1
 503 826 l 1,3,-1
 503 760 l 1,0,-1
EndSplineSet
Substitution2: "'c2sc' Capitals to Small Capitals lookup 36 subtable" macron.sc
Substitution2: "'aalt' Access All Alternates lookup 0 subtable" macron.sc
EndChar

StartChar: degree
Encoding: 176 176 114
Width: 428
Flags: W
LayerCount: 2
Fore
SplineSet
214 417 m 0,0,1
 142 417 142 417 98.5 459.5 c 128,-1,2
 55 502 55 502 55 570 c 256,3,4
 55 638 55 638 98 681 c 128,-1,5
 141 724 141 724 214 724 c 0,6,7
 285 724 285 724 329 681 c 128,-1,8
 373 638 373 638 373 570 c 256,9,10
 373 502 373 502 329 459.5 c 128,-1,11
 285 417 285 417 214 417 c 0,0,1
215 476 m 0,12,13
 263 476 263 476 285.5 502 c 128,-1,14
 308 528 308 528 308 570 c 0,15,16
 308 614 308 614 284.5 640 c 128,-1,17
 261 666 261 666 215 666 c 0,18,19
 166 666 166 666 143 640 c 128,-1,20
 120 614 120 614 120 570 c 0,21,22
 120 528 120 528 143 502 c 128,-1,23
 166 476 166 476 215 476 c 0,12,13
EndSplineSet
EndChar

StartChar: plusminus
Encoding: 177 177 115
Width: 572
Flags: W
LayerCount: 2
Fore
SplineSet
321 391 m 1,0,-1
 520 391 l 1,1,-1
 520 320 l 1,2,-1
 321 320 l 1,3,-1
 321 114 l 1,4,-1
 249 114 l 1,5,-1
 249 320 l 1,6,-1
 50 320 l 1,7,-1
 50 391 l 1,8,-1
 249 391 l 1,9,-1
 249 598 l 1,10,-1
 321 598 l 1,11,-1
 321 391 l 1,0,-1
50 0 m 1,12,-1
 50 71 l 1,13,-1
 521 71 l 1,14,-1
 521 0 l 1,15,-1
 50 0 l 1,12,-1
EndSplineSet
EndChar

StartChar: uni00B2
Encoding: 178 178 116
Width: 350
Flags: W
LayerCount: 2
Fore
SplineSet
306 416 m 1,0,-1
 24 416 l 1,1,-1
 24 470 l 1,2,-1
 139 582 l 2,3,4
 180 621 180 621 200.5 645.5 c 128,-1,5
 221 670 221 670 228.5 689.5 c 128,-1,6
 236 709 236 709 236 731 c 0,7,8
 236 763 236 763 217.5 779 c 128,-1,9
 199 795 199 795 169 795 c 256,10,11
 139 795 139 795 114.5 783.5 c 128,-1,12
 90 772 90 772 64 752 c 1,13,-1
 29 798 l 1,14,15
 58 823 58 823 92.5 838 c 128,-1,16
 127 853 127 853 170 853 c 0,17,18
 234 853 234 853 270.5 821.5 c 128,-1,19
 307 790 307 790 307 735 c 0,20,21
 307 686 307 686 277.5 647 c 128,-1,22
 248 608 248 608 192 555 c 2,23,-1
 111 478 l 1,24,-1
 306 478 l 1,25,-1
 306 416 l 1,0,-1
EndSplineSet
EndChar

StartChar: uni00B3
Encoding: 179 179 117
Width: 350
Flags: W
LayerCount: 2
Fore
SplineSet
165 853 m 0,0,1
 236 853 236 853 272 822 c 128,-1,2
 308 791 308 791 308 743 c 0,3,4
 308 703 308 703 286.5 677 c 128,-1,5
 265 651 265 651 235 641 c 1,6,-1
 235 638 l 1,7,8
 274 631 274 631 297.5 605.5 c 128,-1,9
 321 580 321 580 321 539 c 0,10,11
 321 481 321 481 279 444.5 c 128,-1,12
 237 408 237 408 148 408 c 0,13,14
 111 408 111 408 79 414.5 c 128,-1,15
 47 421 47 421 17 436 c 1,16,-1
 17 499 l 1,17,18
 87 465 87 465 149 465 c 0,19,20
 201 465 201 465 225 485.5 c 128,-1,21
 249 506 249 506 249 541 c 0,22,23
 249 577 249 577 220 593.5 c 128,-1,24
 191 610 191 610 139 610 c 2,25,-1
 82 610 l 1,26,-1
 82 665 l 1,27,-1
 139 665 l 2,28,29
 189 665 189 665 212.5 684.5 c 128,-1,30
 236 704 236 704 236 735 c 0,31,32
 236 767 236 767 215.5 781.5 c 128,-1,33
 195 796 195 796 166 796 c 0,34,35
 135 796 135 796 108.5 785.5 c 128,-1,36
 82 775 82 775 55 758 c 1,37,-1
 19 804 l 1,38,39
 50 827 50 827 84.5 840 c 128,-1,40
 119 853 119 853 165 853 c 0,0,1
EndSplineSet
EndChar

StartChar: acute
Encoding: 180 180 118
Width: 281
Flags: W
LayerCount: 2
Fore
SplineSet
241 756 m 1,0,1
 229 738 229 738 204 709.5 c 128,-1,2
 179 681 179 681 150.5 652.5 c 128,-1,3
 122 624 122 624 98 606 c 1,4,-1
 40 606 l 1,5,-1
 40 618 l 1,6,7
 55 637 55 637 72.5 663 c 128,-1,8
 90 689 90 689 107 716.5 c 128,-1,9
 124 744 124 744 135 766 c 1,10,-1
 241 766 l 1,11,-1
 241 756 l 1,0,1
EndSplineSet
EndChar

StartChar: uni00B5
Encoding: 181 181 119
Width: 623
Flags: W
LayerCount: 2
Fore
SplineSet
538 536 m 1,0,-1
 538 0 l 1,1,-1
 467 0 l 1,2,-1
 453 72 l 1,3,-1
 448 72 l 1,4,5
 423 32 423 32 383 11 c 128,-1,6
 343 -10 343 -10 287 -10 c 0,7,8
 248 -10 248 -10 220 2.5 c 128,-1,9
 192 15 192 15 172 35 c 1,10,-1
 168 35 l 1,11,12
 170 17 170 17 171.5 -13 c 128,-1,13
 173 -43 173 -43 173 -84 c 2,14,-1
 173 -240 l 1,15,-1
 85 -240 l 1,16,-1
 85 536 l 1,17,-1
 173 536 l 1,18,-1
 173 190 l 2,19,20
 173 63 173 63 293 63 c 0,21,22
 382 63 382 63 416 113 c 128,-1,23
 450 163 450 163 450 257 c 2,24,-1
 450 536 l 1,25,-1
 538 536 l 1,0,-1
EndSplineSet
EndChar

StartChar: paragraph
Encoding: 182 182 120
Width: 655
Flags: W
LayerCount: 2
Fore
SplineSet
549 -127 m 1,0,-1
 491 -127 l 1,1,-1
 491 704 l 1,2,-1
 389 704 l 1,3,-1
 389 -127 l 1,4,-1
 331 -127 l 1,5,-1
 331 273 l 1,6,7
 316 269 316 269 296.5 266.5 c 128,-1,8
 277 264 277 264 260 264 c 0,9,10
 198 264 198 264 152 287 c 128,-1,11
 106 310 106 310 80.5 364 c 128,-1,12
 55 418 55 418 55 509 c 0,13,14
 55 605 55 605 82.5 659.5 c 128,-1,15
 110 714 110 714 160 737 c 128,-1,16
 210 760 210 760 275 760 c 2,17,-1
 549 760 l 1,18,-1
 549 -127 l 1,0,-1
EndSplineSet
EndChar

StartChar: cedilla
Encoding: 184 184 122
Width: 225
Flags: W
LayerCount: 2
Fore
SplineSet
212 -139 m 0,0,1
 212 -187 212 -187 175 -213.5 c 128,-1,2
 138 -240 138 -240 64 -240 c 0,3,4
 32 -240 32 -240 14 -235 c 1,5,-1
 14 -180 l 1,6,7
 23 -182 23 -182 38 -183.5 c 128,-1,8
 53 -185 53 -185 67 -185 c 0,9,10
 103 -185 103 -185 122 -175.5 c 128,-1,11
 141 -166 141 -166 141 -141 c 0,12,13
 141 -115 141 -115 114.5 -103 c 128,-1,14
 88 -91 88 -91 50 -86 c 1,15,-1
 93 0 l 1,16,-1
 151 0 l 1,17,-1
 125 -53 l 1,18,19
 161 -61 161 -61 186.5 -81 c 128,-1,20
 212 -101 212 -101 212 -139 c 0,0,1
EndSplineSet
EndChar

StartChar: uni00B9
Encoding: 185 185 123
Width: 350
Flags: W
LayerCount: 2
Fore
SplineSet
240 844 m 1,0,-1
 240 416 l 1,1,-1
 169 416 l 1,2,-1
 169 692 l 2,3,4
 169 718 169 718 170.5 739 c 128,-1,5
 172 760 172 760 173 781 c 1,6,7
 163 772 163 772 151 761.5 c 128,-1,8
 139 751 139 751 126 742 c 2,9,-1
 72 703 l 1,10,-1
 37 752 l 1,11,-1
 167 844 l 1,12,-1
 240 844 l 1,0,-1
EndSplineSet
EndChar

StartChar: ordmasculine
Encoding: 186 186 124
Width: 376
GlyphClass: 2
Flags: W
AnchorPoint: "Anchor-1" 190 725 basechar 0
AnchorPoint: "Anchor-0" 184 380 basechar 0
LayerCount: 2
Fore
SplineSet
345 553 m 0,0,1
 345 472 345 472 302 427.5 c 128,-1,2
 259 383 259 383 187 383 c 0,3,4
 120 383 120 383 76 426.5 c 128,-1,5
 32 470 32 470 32 553 c 0,6,7
 32 635 32 635 74 678.5 c 128,-1,8
 116 722 116 722 189 722 c 0,9,10
 260 722 260 722 302.5 679 c 128,-1,11
 345 636 345 636 345 553 c 0,0,1
95 553 m 0,12,13
 95 495 95 495 117 465.5 c 128,-1,14
 139 436 139 436 188 436 c 256,15,16
 237 436 237 436 259 465.5 c 128,-1,17
 281 495 281 495 281 553 c 0,18,19
 281 612 281 612 259 640.5 c 128,-1,20
 237 669 237 669 188 669 c 256,21,22
 139 669 139 669 117 640.5 c 128,-1,23
 95 612 95 612 95 553 c 0,12,13
EndSplineSet
EndChar

StartChar: guillemotright
Encoding: 187 187 125
Width: 509
Flags: W
LayerCount: 2
Fore
SplineSet
469 257 m 1,0,-1
 299 56 l 1,1,-1
 237 93 l 1,2,-1
 377 264 l 1,3,-1
 237 435 l 1,4,-1
 299 471 l 1,5,-1
 469 270 l 1,6,-1
 469 257 l 1,0,-1
270 257 m 1,7,-1
 101 56 l 1,8,-1
 39 93 l 1,9,-1
 179 264 l 1,10,-1
 39 435 l 1,11,-1
 101 471 l 1,12,-1
 270 270 l 1,13,-1
 270 257 l 1,7,-1
EndSplineSet
EndChar

StartChar: onequarter
Encoding: 188 188 126
Width: 745
Flags: W
LayerCount: 2
Fore
SplineSet
126 0 m 1,0,-1
 562 714 l 1,1,-1
 637 714 l 1,2,-1
 201 0 l 1,3,-1
 126 0 l 1,0,-1
166 562 m 2,4,5
 166 588 166 588 167.5 609 c 128,-1,6
 169 630 169 630 170 651 c 1,7,8
 160 642 160 642 148 631.5 c 128,-1,9
 136 621 136 621 123 612 c 2,10,-1
 69 573 l 1,11,-1
 34 622 l 1,12,-1
 164 714 l 1,13,-1
 237 714 l 1,14,-1
 237 286 l 1,15,-1
 166 286 l 1,16,-1
 166 562 l 2,4,5
600 0 m 1,17,-1
 600 96 l 1,18,-1
 405 96 l 1,19,-1
 405 148 l 1,20,-1
 602 431 l 1,21,-1
 675 431 l 1,22,-1
 675 156 l 1,23,-1
 736 156 l 1,24,-1
 736 96 l 1,25,-1
 675 96 l 1,26,-1
 675 0 l 1,27,-1
 600 0 l 1,17,-1
475 156 m 1,28,-1
 600 156 l 1,29,-1
 600 249 l 2,30,31
 600 270 600 270 601 298 c 128,-1,32
 602 326 602 326 603 350 c 1,33,34
 598 339 598 339 582 314.5 c 128,-1,35
 566 290 566 290 555 273 c 2,36,-1
 475 156 l 1,28,-1
EndSplineSet
EndChar

StartChar: onehalf
Encoding: 189 189 127
Width: 771
Flags: W
LayerCount: 2
Fore
SplineSet
96 0 m 1,0,-1
 532 714 l 1,1,-1
 607 714 l 1,2,-1
 171 0 l 1,3,-1
 96 0 l 1,0,-1
154 562 m 2,4,5
 154 588 154 588 155.5 609 c 128,-1,6
 157 630 157 630 158 651 c 1,7,8
 148 642 148 642 136 631.5 c 128,-1,9
 124 621 124 621 111 612 c 2,10,-1
 57 573 l 1,11,-1
 22 622 l 1,12,-1
 152 714 l 1,13,-1
 225 714 l 1,14,-1
 225 286 l 1,15,-1
 154 286 l 1,16,-1
 154 562 l 2,4,5
445 0 m 1,17,-1
 445 54 l 1,18,-1
 560 166 l 2,19,20
 601 205 601 205 621.5 229.5 c 128,-1,21
 642 254 642 254 649.5 273.5 c 128,-1,22
 657 293 657 293 657 315 c 0,23,24
 657 347 657 347 638.5 363 c 128,-1,25
 620 379 620 379 590 379 c 256,26,27
 560 379 560 379 535.5 367.5 c 128,-1,28
 511 356 511 356 485 336 c 1,29,-1
 450 382 l 1,30,31
 479 407 479 407 513.5 422 c 128,-1,32
 548 437 548 437 591 437 c 0,33,34
 655 437 655 437 691.5 405.5 c 128,-1,35
 728 374 728 374 728 319 c 0,36,37
 728 270 728 270 698.5 231 c 128,-1,38
 669 192 669 192 613 139 c 2,39,-1
 532 62 l 1,40,-1
 727 62 l 1,41,-1
 727 0 l 1,42,-1
 445 0 l 1,17,-1
EndSplineSet
EndChar

StartChar: threequarters
Encoding: 190 190 128
Width: 781
Flags: W
LayerCount: 2
Fore
SplineSet
146 278 m 0,0,1
 109 278 109 278 77 284.5 c 128,-1,2
 45 291 45 291 15 306 c 1,3,-1
 15 369 l 1,4,5
 85 335 85 335 147 335 c 0,6,7
 199 335 199 335 223 355.5 c 128,-1,8
 247 376 247 376 247 411 c 0,9,10
 247 447 247 447 218 463.5 c 128,-1,11
 189 480 189 480 137 480 c 2,12,-1
 80 480 l 1,13,-1
 80 535 l 1,14,-1
 137 535 l 2,15,16
 187 535 187 535 210.5 554.5 c 128,-1,17
 234 574 234 574 234 605 c 0,18,19
 234 637 234 637 213.5 651.5 c 128,-1,20
 193 666 193 666 164 666 c 0,21,22
 133 666 133 666 106.5 655.5 c 128,-1,23
 80 645 80 645 53 628 c 1,24,-1
 17 674 l 1,25,26
 48 697 48 697 82.5 710 c 128,-1,27
 117 723 117 723 163 723 c 0,28,29
 234 723 234 723 270 692 c 128,-1,30
 306 661 306 661 306 613 c 0,31,32
 306 573 306 573 284.5 547 c 128,-1,33
 263 521 263 521 233 511 c 1,34,-1
 233 508 l 1,35,36
 272 501 272 501 295.5 475.5 c 128,-1,37
 319 450 319 450 319 409 c 0,38,39
 319 351 319 351 277 314.5 c 128,-1,40
 235 278 235 278 146 278 c 0,0,1
170 0 m 1,41,-1
 606 714 l 1,42,-1
 681 714 l 1,43,-1
 245 0 l 1,44,-1
 170 0 l 1,41,-1
636 0 m 1,45,-1
 636 96 l 1,46,-1
 441 96 l 1,47,-1
 441 148 l 1,48,-1
 638 431 l 1,49,-1
 711 431 l 1,50,-1
 711 156 l 1,51,-1
 772 156 l 1,52,-1
 772 96 l 1,53,-1
 711 96 l 1,54,-1
 711 0 l 1,55,-1
 636 0 l 1,45,-1
511 156 m 1,56,-1
 636 156 l 1,57,-1
 636 249 l 2,58,59
 636 270 636 270 637 298 c 128,-1,60
 638 326 638 326 639 350 c 1,61,62
 634 339 634 339 618 314.5 c 128,-1,63
 602 290 602 290 591 273 c 2,64,-1
 511 156 l 1,56,-1
EndSplineSet
EndChar

StartChar: AE
Encoding: 198 198 136
Width: 881
GlyphClass: 2
Flags: W
AnchorPoint: "Anchor-1" 493 714 basechar 0
AnchorPoint: "Anchor-0" 441 0 basechar 0
LayerCount: 2
Fore
SplineSet
821 0 m 1,0,-1
 449 0 l 1,1,-1
 449 221 l 1,2,-1
 199 221 l 1,3,-1
 92 0 l 1,4,-1
 -1 0 l 1,5,-1
 338 714 l 1,6,-1
 821 714 l 1,7,-1
 821 635 l 1,8,-1
 539 635 l 1,9,-1
 539 412 l 1,10,-1
 802 412 l 1,11,-1
 802 334 l 1,12,-1
 539 334 l 1,13,-1
 539 79 l 1,14,-1
 821 79 l 1,15,-1
 821 0 l 1,0,-1
234 301 m 1,16,-1
 449 301 l 1,17,-1
 449 634 l 1,18,-1
 391 634 l 1,19,-1
 234 301 l 1,16,-1
EndSplineSet
Substitution2: "'c2sc' Capitals to Small Capitals lookup 36 subtable" ae.sc
Substitution2: "'aalt' Access All Alternates lookup 0 subtable" ae.sc
EndChar

StartChar: Eth
Encoding: 208 208 146
Width: 730
GlyphClass: 2
Flags: W
AnchorPoint: "Anchor-1" 365 714 basechar 0
AnchorPoint: "Anchor-0" 365 0 basechar 0
LayerCount: 2
Fore
SplineSet
317 714 m 2,0,1
 424 714 424 714 503 674 c 128,-1,2
 582 634 582 634 625.5 556.5 c 128,-1,3
 669 479 669 479 669 364 c 0,4,5
 669 183 669 183 570.5 91.5 c 128,-1,6
 472 0 472 0 295 0 c 2,7,-1
 104 0 l 1,8,-1
 104 314 l 1,9,-1
 30 314 l 1,10,-1
 30 392 l 1,11,-1
 104 392 l 1,12,-1
 104 714 l 1,13,-1
 317 714 l 2,0,1
304 637 m 2,14,-1
 194 637 l 1,15,-1
 194 392 l 1,16,-1
 372 392 l 1,17,-1
 372 314 l 1,18,-1
 194 314 l 1,19,-1
 194 77 l 1,20,-1
 284 77 l 2,21,22
 574 77 574 77 574 361 c 0,23,24
 574 504 574 504 503 570.5 c 128,-1,25
 432 637 432 637 304 637 c 2,14,-1
EndSplineSet
Substitution2: "'c2sc' Capitals to Small Capitals lookup 36 subtable" eth.sc
Substitution2: "'aalt' Access All Alternates lookup 0 subtable" eth.sc
EndChar

StartChar: multiply
Encoding: 215 215 153
Width: 572
Flags: W
LayerCount: 2
Fore
SplineSet
456 574 m 1,0,-1
 506 523 l 1,1,-1
 336 353 l 1,2,-1
 505 183 l 1,3,-1
 455 132 l 1,4,-1
 284 301 l 1,5,-1
 117 132 l 1,6,-1
 65 183 l 1,7,-1
 234 353 l 1,8,-1
 64 522 l 1,9,-1
 116 574 l 1,10,-1
 285 403 l 1,11,-1
 456 574 l 1,0,-1
EndSplineSet
EndChar

StartChar: Oslash
Encoding: 216 216 154
Width: 781
GlyphClass: 2
Flags: W
AnchorPoint: "Anchor-1" 392 714 basechar 0
AnchorPoint: "Anchor-0" 391 0 basechar 0
LayerCount: 2
Fore
SplineSet
720 358 m 0,0,1
 720 247 720 247 682.5 164.5 c 128,-1,2
 645 82 645 82 572 36 c 128,-1,3
 499 -10 499 -10 391 -10 c 0,4,5
 279 -10 279 -10 206 37 c 1,6,-1
 158 -31 l 1,7,-1
 97 9 l 1,8,-1
 149 83 l 1,9,10
 105 132 105 132 83 202 c 128,-1,11
 61 272 61 272 61 359 c 0,12,13
 61 469 61 469 97 551 c 128,-1,14
 133 633 133 633 206.5 679 c 128,-1,15
 280 725 280 725 392 725 c 0,16,17
 444 725 444 725 488.5 713 c 128,-1,18
 533 701 533 701 570 680 c 1,19,-1
 616 746 l 1,20,-1
 677 705 l 1,21,-1
 626 634 l 1,22,23
 720 535 720 535 720 358 c 0,0,1
156 358 m 0,24,25
 156 297 156 297 167.5 247 c 128,-1,26
 179 197 179 197 203 160 c 1,27,-1
 522 611 l 1,28,29
 470 646 470 646 392 646 c 0,30,31
 271 646 271 646 213.5 569.5 c 128,-1,32
 156 493 156 493 156 358 c 0,24,25
625 358 m 0,33,34
 625 487 625 487 574 560 c 1,35,-1
 254 106 l 1,36,37
 280 88 280 88 314.5 78 c 128,-1,38
 349 68 349 68 391 68 c 0,39,40
 513 68 513 68 569 145.5 c 128,-1,41
 625 223 625 223 625 358 c 0,33,34
EndSplineSet
Substitution2: "'c2sc' Capitals to Small Capitals lookup 36 subtable" oslash.sc
Substitution2: "'aalt' Access All Alternates lookup 0 subtable" oslash.sc
EndChar

StartChar: Thorn
Encoding: 222 222 160
Width: 605
GlyphClass: 2
Flags: W
AnchorPoint: "Anchor-1" 303 714 basechar 0
AnchorPoint: "Anchor-0" 303 0 basechar 0
LayerCount: 2
Fore
SplineSet
554 382 m 0,0,1
 554 322 554 322 528 270.5 c 128,-1,2
 502 219 502 219 439.5 187 c 128,-1,3
 377 155 377 155 268 155 c 2,4,-1
 187 155 l 1,5,-1
 187 0 l 1,6,-1
 97 0 l 1,7,-1
 97 714 l 1,8,-1
 187 714 l 1,9,-1
 187 590 l 1,10,-1
 283 590 l 2,11,12
 428 590 428 590 491 535 c 128,-1,13
 554 480 554 480 554 382 c 0,0,1
259 231 m 2,14,15
 364 231 364 231 412.5 264.5 c 128,-1,16
 461 298 461 298 461 377 c 0,17,18
 461 446 461 446 417.5 479.5 c 128,-1,19
 374 513 374 513 276 513 c 2,20,-1
 187 513 l 1,21,-1
 187 231 l 1,22,-1
 259 231 l 2,14,15
EndSplineSet
Substitution2: "'c2sc' Capitals to Small Capitals lookup 36 subtable" thorn.sc
Substitution2: "'aalt' Access All Alternates lookup 0 subtable" thorn.sc
EndChar

StartChar: germandbls
Encoding: 223 223 161
Width: 631
GlyphClass: 2
Flags: W
AnchorPoint: "Anchor-1" 316 765 basechar 0
AnchorPoint: "Anchor-0" 316 0 basechar 0
LayerCount: 2
Fore
SplineSet
522 617 m 0,0,1
 522 583 522 583 508 557.5 c 128,-1,2
 494 532 494 532 473 512.5 c 128,-1,3
 452 493 452 493 431 477 c 128,-1,4
 410 461 410 461 396 445.5 c 128,-1,5
 382 430 382 430 382 412 c 0,6,7
 382 399 382 399 388.5 388 c 128,-1,8
 395 377 395 377 414 362.5 c 128,-1,9
 433 348 433 348 470 323 c 0,10,11
 524 287 524 287 555 249.5 c 128,-1,12
 586 212 586 212 586 153 c 0,13,14
 586 68 586 68 534.5 29 c 128,-1,15
 483 -10 483 -10 400 -10 c 0,16,17
 353 -10 353 -10 317 -1 c 128,-1,18
 281 8 281 8 255 24 c 1,19,-1
 255 103 l 1,20,21
 281 87 281 87 319 74 c 128,-1,22
 357 61 357 61 397 61 c 0,23,24
 452 61 452 61 476 84 c 128,-1,25
 500 107 500 107 500 147 c 0,26,27
 500 183 500 183 479.5 208 c 128,-1,28
 459 233 459 233 406 267 c 0,29,30
 343 308 343 308 320 337.5 c 128,-1,31
 297 367 297 367 297 407 c 0,32,33
 297 438 297 438 310.5 460 c 128,-1,34
 324 482 324 482 344.5 498.5 c 128,-1,35
 365 515 365 515 385.5 531 c 128,-1,36
 406 547 406 547 419.5 566 c 128,-1,37
 433 585 433 585 433 612 c 0,38,39
 433 654 433 654 397.5 673 c 128,-1,40
 362 692 362 692 306 692 c 0,41,42
 271 692 271 692 240.5 682.5 c 128,-1,43
 210 673 210 673 191.5 650 c 128,-1,44
 173 627 173 627 173 584 c 2,45,-1
 173 0 l 1,46,-1
 85 0 l 1,47,-1
 85 584 l 2,48,49
 85 651 85 651 114 690.5 c 128,-1,50
 143 730 143 730 193 747.5 c 128,-1,51
 243 765 243 765 306 765 c 0,52,53
 403 765 403 765 462.5 728 c 128,-1,54
 522 691 522 691 522 617 c 0,0,1
EndSplineSet
Substitution2: "'smcp' Lowercase to Small Capitals lookup 37 subtable" germandbls.sc
Substitution2: "'aalt' Access All Alternates lookup 0 subtable" germandbls.sc
EndChar

StartChar: ae
Encoding: 230 230 168
Width: 864
GlyphClass: 2
Flags: W
AnchorPoint: "Anchor-1" 439 536 basechar 0
AnchorPoint: "Anchor-0" 432 0 basechar 0
LayerCount: 2
Fore
SplineSet
603 546 m 0,0,1
 668 546 668 546 715 516 c 128,-1,2
 762 486 762 486 787.5 432 c 128,-1,3
 813 378 813 378 813 306 c 2,4,-1
 813 252 l 1,5,-1
 470 252 l 1,6,7
 472 156 472 156 511.5 110.5 c 128,-1,8
 551 65 551 65 625 65 c 0,9,10
 675 65 675 65 713 74.5 c 128,-1,11
 751 84 751 84 789 102 c 1,12,-1
 789 25 l 1,13,14
 749 7 749 7 710.5 -1.5 c 128,-1,15
 672 -10 672 -10 622 -10 c 0,16,17
 481 -10 481 -10 419 103 c 1,18,19
 385 51 385 51 339 20.5 c 128,-1,20
 293 -10 293 -10 216 -10 c 0,21,22
 143 -10 143 -10 94.5 28.5 c 128,-1,23
 46 67 46 67 46 149 c 0,24,25
 46 229 46 229 106 272.5 c 128,-1,26
 166 316 166 316 290 320 c 2,27,-1
 380 323 l 1,28,-1
 380 357 l 2,29,30
 380 422 380 422 349.5 448 c 128,-1,31
 319 474 319 474 268 474 c 0,32,33
 228 474 228 474 189.5 462 c 128,-1,34
 151 450 151 450 118 433 c 1,35,-1
 91 499 l 1,36,37
 126 519 126 519 176 532 c 128,-1,38
 226 545 226 545 275 545 c 0,39,40
 337 545 337 545 377.5 524.5 c 128,-1,41
 418 504 418 504 439 459 c 1,42,43
 465 500 465 500 507 523 c 128,-1,44
 549 546 549 546 603 546 c 0,0,1
602 474 m 0,45,46
 544 474 544 474 510.5 434.5 c 128,-1,47
 477 395 477 395 472 321 c 1,48,-1
 720 321 l 1,49,50
 720 390 720 390 691.5 432 c 128,-1,51
 663 474 663 474 602 474 c 0,45,46
303 259 m 2,52,53
 209 255 209 255 173 227 c 128,-1,54
 137 199 137 199 137 148 c 0,55,56
 137 103 137 103 162.5 82 c 128,-1,57
 188 61 188 61 230 61 c 0,58,59
 293 61 293 61 335.5 98.5 c 128,-1,60
 378 136 378 136 378 214 c 2,61,-1
 378 262 l 1,62,-1
 303 259 l 2,52,53
EndSplineSet
Substitution2: "'smcp' Lowercase to Small Capitals lookup 37 subtable" ae.sc
Substitution2: "'aalt' Access All Alternates lookup 0 subtable" ae.sc
EndChar

StartChar: eth
Encoding: 240 240 178
Width: 605
GlyphClass: 2
Flags: W
AnchorPoint: "Anchor-1" 303 765 basechar 0
AnchorPoint: "Anchor-0" 303 0 basechar 0
LayerCount: 2
Fore
SplineSet
216 765 m 1,0,1
 248 750 248 750 280.5 732 c 128,-1,2
 313 714 313 714 342 693 c 1,3,-1
 457 760 l 1,4,-1
 495 706 l 1,5,-1
 396 649 l 1,6,7
 464 585 464 585 507.5 491 c 128,-1,8
 551 397 551 397 551 275 c 0,9,10
 551 133 551 133 484 61.5 c 128,-1,11
 417 -10 417 -10 301 -10 c 0,12,13
 229 -10 229 -10 173.5 19.5 c 128,-1,14
 118 49 118 49 86.5 103.5 c 128,-1,15
 55 158 55 158 55 233 c 0,16,17
 55 345 55 345 118.5 409 c 128,-1,18
 182 473 182 473 290 473 c 0,19,20
 343 473 343 473 382.5 459 c 128,-1,21
 422 445 422 445 446 415 c 1,22,-1
 450 417 l 1,23,24
 434 474 434 474 401 522 c 128,-1,25
 368 570 368 570 326 608 c 1,26,-1
 196 533 l 1,27,-1
 158 588 l 1,28,-1
 270 652 l 1,29,30
 249 666 249 666 226 679.5 c 128,-1,31
 203 693 203 693 180 705 c 1,32,-1
 216 765 l 1,0,1
303 402 m 0,33,34
 219 402 219 402 181.5 357.5 c 128,-1,35
 144 313 144 313 144 230 c 0,36,37
 144 157 144 157 182 109.5 c 128,-1,38
 220 62 220 62 303 62 c 256,39,40
 386 62 386 62 424 110.5 c 128,-1,41
 462 159 462 159 462 251 c 0,42,43
 462 313 462 313 423 357.5 c 128,-1,44
 384 402 384 402 303 402 c 0,33,34
EndSplineSet
Substitution2: "'smcp' Lowercase to Small Capitals lookup 37 subtable" eth.sc
Substitution2: "'aalt' Access All Alternates lookup 0 subtable" eth.sc
EndChar

StartChar: divide
Encoding: 247 247 185
Width: 572
Flags: W
LayerCount: 2
Fore
SplineSet
285 462 m 256,0,1
 262 462 262 462 245.5 476.5 c 128,-1,2
 229 491 229 491 229 523 c 0,3,4
 229 557 229 557 245.5 570 c 128,-1,5
 262 583 262 583 285 583 c 256,6,7
 308 583 308 583 324 570 c 128,-1,8
 340 557 340 557 340 523 c 0,9,10
 340 491 340 491 324 476.5 c 128,-1,11
 308 462 308 462 285 462 c 256,0,1
50 317 m 1,12,-1
 50 388 l 1,13,-1
 521 388 l 1,14,-1
 521 317 l 1,15,-1
 50 317 l 1,12,-1
285 121 m 256,16,17
 262 121 262 121 245.5 135.5 c 128,-1,18
 229 150 229 150 229 182 c 0,19,20
 229 216 229 216 245.5 229 c 128,-1,21
 262 242 262 242 285 242 c 256,22,23
 308 242 308 242 324 229 c 128,-1,24
 340 216 340 216 340 182 c 0,25,26
 340 150 340 150 324 135.5 c 128,-1,27
 308 121 308 121 285 121 c 256,16,17
EndSplineSet
EndChar

StartChar: oslash
Encoding: 248 248 186
Width: 605
GlyphClass: 2
Flags: W
AnchorPoint: "Anchor-1" 303 536 basechar 0
AnchorPoint: "Anchor-0" 303 0 basechar 0
LayerCount: 2
Fore
SplineSet
551 269 m 0,0,1
 551 136 551 136 483.5 63 c 128,-1,2
 416 -10 416 -10 301 -10 c 0,3,4
 228 -10 228 -10 172 23 c 1,5,-1
 132 -33 l 1,6,-1
 74 6 l 1,7,-1
 119 68 l 1,8,9
 88 104 88 104 71.5 154.5 c 128,-1,10
 55 205 55 205 55 269 c 0,11,12
 55 402 55 402 122 474 c 128,-1,13
 189 546 189 546 304 546 c 0,14,15
 377 546 377 546 435 510 c 1,16,-1
 474 566 l 1,17,-1
 533 528 l 1,18,-1
 488 465 l 1,19,20
 517 430 517 430 534 380.5 c 128,-1,21
 551 331 551 331 551 269 c 0,0,1
146 269 m 0,22,23
 146 231 146 231 151.5 198.5 c 128,-1,24
 157 166 157 166 170 141 c 1,25,-1
 390 447 l 1,26,27
 354 472 354 472 302 472 c 0,28,29
 220 472 220 472 183 418 c 128,-1,30
 146 364 146 364 146 269 c 0,22,23
460 269 m 0,31,32
 460 343 460 343 437 392 c 1,33,-1
 217 86 l 1,34,35
 251 63 251 63 303 63 c 0,36,37
 384 63 384 63 422 118.5 c 128,-1,38
 460 174 460 174 460 269 c 0,31,32
EndSplineSet
Substitution2: "'smcp' Lowercase to Small Capitals lookup 37 subtable" oslash.sc
Substitution2: "'aalt' Access All Alternates lookup 0 subtable" oslash.sc
EndChar

StartChar: thorn
Encoding: 254 254 192
Width: 615
GlyphClass: 2
Flags: W
AnchorPoint: "Anchor-1" 308 760 basechar 0
AnchorPoint: "Anchor-0" 308 -240 basechar 0
LayerCount: 2
Fore
SplineSet
560 269 m 256,0,1
 560 132 560 132 499.5 61 c 128,-1,2
 439 -10 439 -10 340 -10 c 0,3,4
 277 -10 277 -10 237 13 c 128,-1,5
 197 36 197 36 173 68 c 1,6,-1
 167 68 l 1,7,8
 168 61 168 61 169.5 45 c 128,-1,9
 171 29 171 29 172 12 c 128,-1,10
 173 -5 173 -5 173 -16 c 2,11,-1
 173 -240 l 1,12,-1
 85 -240 l 1,13,-1
 85 760 l 1,14,-1
 173 760 l 1,15,-1
 173 536 l 2,16,17
 173 522 173 522 172 499.5 c 128,-1,18
 171 477 171 477 170 464 c 1,19,-1
 174 464 l 1,20,21
 198 498 198 498 237 522 c 128,-1,22
 276 546 276 546 340 546 c 0,23,24
 439 546 439 546 499.5 476 c 128,-1,25
 560 406 560 406 560 269 c 256,0,1
469 270 m 0,26,27
 469 371 469 371 434 421.5 c 128,-1,28
 399 472 399 472 325 472 c 0,29,30
 243 472 243 472 209 426 c 128,-1,31
 175 380 175 380 173 288 c 2,32,-1
 173 269 l 2,33,34
 173 170 173 170 205.5 116.5 c 128,-1,35
 238 63 238 63 326 63 c 0,36,37
 400 63 400 63 434.5 116.5 c 128,-1,38
 469 170 469 170 469 270 c 0,26,27
EndSplineSet
Substitution2: "'smcp' Lowercase to Small Capitals lookup 37 subtable" thorn.sc
Substitution2: "'aalt' Access All Alternates lookup 0 subtable" thorn.sc
EndChar

StartChar: dcaron
Encoding: 271 271 209
Width: 615
GlyphClass: 2
Flags: W
AnchorPoint: "Anchor-3" 308 268 basechar 0
AnchorPoint: "Anchor-2" 553 760 basechar 0
AnchorPoint: "Anchor-1" 275 760 basechar 0
AnchorPoint: "Anchor-0" 292 0 basechar 0
LayerCount: 2
Fore
SplineSet
688 751 m 1,0,1
 684 733 684 733 672.5 706 c 128,-1,2
 661 679 661 679 646 650.5 c 128,-1,3
 631 622 631 622 616 600 c 1,4,-1
 568 600 l 1,5,-1
 568 612 l 1,6,7
 575 631 575 631 581.5 657.5 c 128,-1,8
 588 684 588 684 593.5 711.5 c 128,-1,9
 599 739 599 739 601 760 c 1,10,-1
 688 760 l 1,11,-1
 688 751 l 1,0,1
275 -10 m 0,12,13
 175 -10 175 -10 115 59.5 c 128,-1,14
 55 129 55 129 55 267 c 256,15,16
 55 405 55 405 115.5 475.5 c 128,-1,17
 176 546 176 546 276 546 c 0,18,19
 338 546 338 546 377.5 523 c 128,-1,20
 417 500 417 500 442 467 c 1,21,-1
 448 467 l 1,22,23
 447 480 447 480 444.5 505.5 c 128,-1,24
 442 531 442 531 442 546 c 2,25,-1
 442 760 l 1,26,-1
 530 760 l 1,27,-1
 530 0 l 1,28,-1
 459 0 l 1,29,-1
 446 72 l 1,30,-1
 442 72 l 1,31,32
 418 38 418 38 378 14 c 128,-1,33
 338 -10 338 -10 275 -10 c 0,12,13
289 63 m 0,34,35
 374 63 374 63 408.5 109.5 c 128,-1,36
 443 156 443 156 443 250 c 2,37,-1
 443 266 l 2,38,39
 443 366 443 366 410 419.5 c 128,-1,40
 377 473 377 473 288 473 c 0,41,42
 217 473 217 473 181.5 416.5 c 128,-1,43
 146 360 146 360 146 265 c 0,44,45
 146 169 146 169 181.5 116 c 128,-1,46
 217 63 217 63 289 63 c 0,34,35
EndSplineSet
Substitution2: "'smcp' Lowercase to Small Capitals lookup 37 subtable" dcaron.sc
Substitution2: "'aalt' Access All Alternates lookup 0 subtable" dcaron.sc
EndChar

StartChar: dcroat
Encoding: 273 273 211
Width: 617
GlyphClass: 2
Flags: W
AnchorPoint: "Anchor-1" 309 760 basechar 0
AnchorPoint: "Anchor-0" 309 0 basechar 0
LayerCount: 2
Fore
SplineSet
275 -10 m 0,0,1
 175 -10 175 -10 115 59.5 c 128,-1,2
 55 129 55 129 55 265 c 0,3,4
 55 405 55 405 115.5 474 c 128,-1,5
 176 543 176 543 275 543 c 0,6,7
 338 543 338 543 377.5 520 c 128,-1,8
 417 497 417 497 442 464 c 1,9,-1
 448 464 l 1,10,11
 446 477 446 477 444 502.5 c 128,-1,12
 442 528 442 528 442 544 c 2,13,-1
 442 605 l 1,14,-1
 229 605 l 1,15,-1
 229 671 l 1,16,-1
 442 671 l 1,17,-1
 442 760 l 1,18,-1
 530 760 l 1,19,-1
 530 671 l 1,20,-1
 606 671 l 1,21,-1
 606 605 l 1,22,-1
 530 605 l 1,23,-1
 530 0 l 1,24,-1
 458 0 l 1,25,-1
 445 72 l 1,26,-1
 441 72 l 1,27,28
 417 38 417 38 377 14 c 128,-1,29
 337 -10 337 -10 275 -10 c 0,0,1
290 63 m 0,30,31
 374 63 374 63 408.5 109 c 128,-1,32
 443 155 443 155 443 248 c 2,33,-1
 443 265 l 2,34,35
 443 366 443 366 410 418 c 128,-1,36
 377 470 377 470 288 470 c 0,37,38
 217 470 217 470 182 415 c 128,-1,39
 147 360 147 360 147 264 c 256,40,41
 147 168 147 168 182 115.5 c 128,-1,42
 217 63 217 63 290 63 c 0,30,31
EndSplineSet
Substitution2: "'smcp' Lowercase to Small Capitals lookup 37 subtable" dcroat.sc
Substitution2: "'aalt' Access All Alternates lookup 0 subtable" dcroat.sc
EndChar

StartChar: eogonek
Encoding: 281 281 219
Width: 564
GlyphClass: 2
Flags: W
AnchorPoint: "Anchor-2" 544 536 basechar 0
AnchorPoint: "Anchor-1" 285 536 basechar 0
AnchorPoint: "Anchor-0" 301 -220 basechar 0
LayerCount: 2
Fore
SplineSet
389 -116 m 0,0,1
 389 -161 389 -161 434 -161 c 0,2,3
 451 -161 451 -161 462.5 -158.5 c 128,-1,4
 474 -156 474 -156 482 -155 c 1,5,-1
 482 -211 l 1,6,7
 468 -215 468 -215 454 -217.5 c 128,-1,8
 440 -220 440 -220 420 -220 c 0,9,10
 367 -220 367 -220 342 -195 c 128,-1,11
 317 -170 317 -170 317 -126 c 0,12,13
 317 -92 317 -92 337.5 -60.5 c 128,-1,14
 358 -29 358 -29 383 -6 c 1,15,16
 352 -10 352 -10 313 -10 c 0,17,18
 237 -10 237 -10 178.5 21 c 128,-1,19
 120 52 120 52 87.5 113.5 c 128,-1,20
 55 175 55 175 55 264 c 0,21,22
 55 352 55 352 84.5 415 c 128,-1,23
 114 478 114 478 167.5 512 c 128,-1,24
 221 546 221 546 292 546 c 0,25,26
 361 546 361 546 410.5 516 c 128,-1,27
 460 486 460 486 486.5 431.5 c 128,-1,28
 513 377 513 377 513 304 c 2,29,-1
 513 251 l 1,30,-1
 146 251 l 1,31,32
 148 160 148 160 192.5 112.5 c 128,-1,33
 237 65 237 65 317 65 c 0,34,35
 368 65 368 65 407.5 74.5 c 128,-1,36
 447 84 447 84 489 102 c 1,37,-1
 489 25 l 1,38,39
 449 -7 449 -7 427 -31 c 128,-1,40
 405 -55 405 -55 397 -75 c 128,-1,41
 389 -95 389 -95 389 -116 c 0,0,1
291 474 m 0,42,43
 228 474 228 474 191.5 433.5 c 128,-1,44
 155 393 155 393 148 321 c 1,45,-1
 421 321 l 1,46,47
 420 389 420 389 389 431.5 c 128,-1,48
 358 474 358 474 291 474 c 0,42,43
EndSplineSet
Substitution2: "'smcp' Lowercase to Small Capitals lookup 37 subtable" eogonek.sc
Substitution2: "'locl' Localized Forms in Latin lookup 8 subtable" eogonek.loclNAV
Ligature2: "'ccmp' Glyph Composition/Decomposition lookup 6 subtable" e uni0328
AlternateSubs2: "'aalt' Access All Alternates lookup 1 subtable" eogonek.loclNAV eogonek.sc
EndChar

StartChar: uni0123
Encoding: 291 291 229
Width: 615
GlyphClass: 2
Flags: W
AnchorPoint: "Anchor-2" 555 536 basechar 0
AnchorPoint: "Anchor-1" 297 766 basechar 0
AnchorPoint: "Anchor-0" 298 -240 basechar 0
LayerCount: 2
Fore
SplineSet
363 754 m 1,0,1
 355 737 355 737 346.5 710.5 c 128,-1,2
 338 684 338 684 331 656 c 128,-1,3
 324 628 324 628 321 606 c 1,4,-1
 234 606 l 1,5,-1
 234 615 l 1,6,7
 239 633 239 633 251 660 c 128,-1,8
 263 687 263 687 279.5 715.5 c 128,-1,9
 296 744 296 744 314 766 c 1,10,-1
 363 766 l 1,11,-1
 363 754 l 1,0,1
275 546 m 0,12,13
 328 546 328 546 370.5 526 c 128,-1,14
 413 506 413 506 443 465 c 1,15,-1
 448 465 l 1,16,-1
 460 536 l 1,17,-1
 530 536 l 1,18,-1
 530 -9 l 2,19,20
 530 -124 530 -124 471.5 -182 c 128,-1,21
 413 -240 413 -240 290 -240 c 0,22,23
 172 -240 172 -240 97 -206 c 1,24,-1
 97 -125 l 1,25,26
 176 -167 176 -167 295 -167 c 0,27,28
 364 -167 364 -167 403.5 -126.5 c 128,-1,29
 443 -86 443 -86 443 -16 c 2,30,-1
 443 5 l 2,31,32
 443 17 443 17 444 39.5 c 128,-1,33
 445 62 445 62 446 71 c 1,34,-1
 442 71 l 1,35,36
 388 -10 388 -10 276 -10 c 0,37,38
 172 -10 172 -10 113.5 63 c 128,-1,39
 55 136 55 136 55 267 c 0,40,41
 55 395 55 395 113.5 470.5 c 128,-1,42
 172 546 172 546 275 546 c 0,12,13
287 472 m 0,43,44
 220 472 220 472 183 418.5 c 128,-1,45
 146 365 146 365 146 266 c 256,46,47
 146 167 146 167 182.5 114.5 c 128,-1,48
 219 62 219 62 289 62 c 0,49,50
 370 62 370 62 407 105.5 c 128,-1,51
 444 149 444 149 444 246 c 2,52,-1
 444 267 l 2,53,54
 444 377 444 377 406 424.5 c 128,-1,55
 368 472 368 472 287 472 c 0,43,44
EndSplineSet
Substitution2: "'smcp' Lowercase to Small Capitals lookup 37 subtable" uni0123.sc
Substitution2: "'aalt' Access All Alternates lookup 0 subtable" uni0123.sc
EndChar

StartChar: Hbar
Encoding: 294 294 232
Width: 741
GlyphClass: 2
Flags: W
AnchorPoint: "Anchor-1" 371 714 basechar 0
AnchorPoint: "Anchor-0" 371 0 basechar 0
LayerCount: 2
Fore
SplineSet
97 0 m 1,0,-1
 97 523 l 1,1,-1
 0 523 l 1,2,-1
 0 595 l 1,3,-1
 97 595 l 1,4,-1
 97 714 l 1,5,-1
 187 714 l 1,6,-1
 187 595 l 1,7,-1
 553 595 l 1,8,-1
 553 714 l 1,9,-1
 643 714 l 1,10,-1
 643 595 l 1,11,-1
 740 595 l 1,12,-1
 740 523 l 1,13,-1
 643 523 l 1,14,-1
 643 0 l 1,15,-1
 553 0 l 1,16,-1
 553 333 l 1,17,-1
 187 333 l 1,18,-1
 187 0 l 1,19,-1
 97 0 l 1,0,-1
187 412 m 1,20,-1
 553 412 l 1,21,-1
 553 523 l 1,22,-1
 187 523 l 1,23,-1
 187 412 l 1,20,-1
EndSplineSet
Substitution2: "'c2sc' Capitals to Small Capitals lookup 36 subtable" hbar.sc
Substitution2: "'aalt' Access All Alternates lookup 0 subtable" hbar.sc
EndChar

StartChar: hbar
Encoding: 295 295 233
Width: 618
GlyphClass: 2
Flags: W
AnchorPoint: "Anchor-1" 130 760 basechar 0
AnchorPoint: "Anchor-0" 309 0 basechar 0
LayerCount: 2
Fore
SplineSet
173 760 m 1,0,-1
 173 670 l 1,1,-1
 385 670 l 1,2,-1
 385 604 l 1,3,-1
 173 604 l 1,4,-1
 173 517 l 2,5,6
 173 498 173 498 171.5 478.5 c 128,-1,7
 170 459 170 459 168 443 c 1,8,-1
 174 443 l 1,9,10
 200 484 200 484 245 505 c 128,-1,11
 290 526 290 526 342 526 c 0,12,13
 439 526 439 526 488 479 c 128,-1,14
 537 432 537 432 537 329 c 2,15,-1
 537 0 l 1,16,-1
 450 0 l 1,17,-1
 450 323 l 2,18,19
 450 452 450 452 330 452 c 0,20,21
 240 452 240 452 206.5 402 c 128,-1,22
 173 352 173 352 173 258 c 2,23,-1
 173 0 l 1,24,-1
 85 0 l 1,25,-1
 85 604 l 1,26,-1
 9 604 l 1,27,-1
 9 670 l 1,28,-1
 85 670 l 1,29,-1
 85 760 l 1,30,-1
 173 760 l 1,0,-1
EndSplineSet
Substitution2: "'smcp' Lowercase to Small Capitals lookup 37 subtable" hbar.sc
Substitution2: "'aalt' Access All Alternates lookup 0 subtable" hbar.sc
EndChar

StartChar: kgreenlandic
Encoding: 312 312 249
Width: 534
GlyphClass: 2
Flags: W
AnchorPoint: "Anchor-1" 267 536 basechar 0
AnchorPoint: "Anchor-0" 267 0 basechar 0
LayerCount: 2
Fore
SplineSet
509 536 m 1,0,-1
 306 299 l 1,1,-1
 525 0 l 1,2,-1
 420 0 l 1,3,-1
 244 242 l 1,4,-1
 178 188 l 1,5,-1
 178 0 l 1,6,-1
 85 0 l 1,7,-1
 85 536 l 1,8,-1
 178 536 l 1,9,-1
 178 397 l 2,10,11
 178 357 178 357 176 319 c 128,-1,12
 174 281 174 281 172 261 c 1,13,-1
 174 261 l 1,14,15
 183 274 183 274 193.5 287.5 c 128,-1,16
 204 301 204 301 213 312 c 2,17,-1
 403 536 l 1,18,-1
 509 536 l 1,0,-1
EndSplineSet
EndChar

StartChar: Lcaron
Encoding: 317 317 254
Width: 524
GlyphClass: 2
Flags: W
AnchorPoint: "Anchor-3" 262 357 basechar 0
AnchorPoint: "Anchor-2" 364 714 basechar 0
AnchorPoint: "Anchor-1" 140 714 basechar 0
AnchorPoint: "Anchor-0" 300 0 basechar 0
LayerCount: 2
Fore
SplineSet
499 705 m 1,0,1
 495 687 495 687 483.5 660 c 128,-1,2
 472 633 472 633 457 604.5 c 128,-1,3
 442 576 442 576 427 554 c 1,4,-1
 379 554 l 1,5,-1
 379 566 l 1,6,7
 386 585 386 585 392.5 611.5 c 128,-1,8
 399 638 399 638 404.5 665.5 c 128,-1,9
 410 693 410 693 412 714 c 1,10,-1
 499 714 l 1,11,-1
 499 705 l 1,0,1
97 0 m 1,12,-1
 97 714 l 1,13,-1
 187 714 l 1,14,-1
 187 80 l 1,15,-1
 499 80 l 1,16,-1
 499 0 l 1,17,-1
 97 0 l 1,12,-1
EndSplineSet
Substitution2: "'c2sc' Capitals to Small Capitals lookup 36 subtable" lcaron.sc
Substitution2: "'aalt' Access All Alternates lookup 0 subtable" lcaron.sc
EndChar

StartChar: lcaron
Encoding: 318 318 255
Width: 258
GlyphClass: 2
Flags: W
AnchorPoint: "Anchor-3" 129 268 basechar 0
AnchorPoint: "Anchor-2" 202 760 basechar 0
AnchorPoint: "Anchor-1" 129 760 basechar 0
AnchorPoint: "Anchor-0" 129 0 basechar 0
LayerCount: 2
Fore
SplineSet
337 751 m 1,0,1
 333 733 333 733 321.5 706 c 128,-1,2
 310 679 310 679 295 650.5 c 128,-1,3
 280 622 280 622 265 600 c 1,4,-1
 217 600 l 1,5,-1
 217 612 l 1,6,7
 224 631 224 631 230.5 657.5 c 128,-1,8
 237 684 237 684 242.5 711.5 c 128,-1,9
 248 739 248 739 250 760 c 1,10,-1
 337 760 l 1,11,-1
 337 751 l 1,0,1
173 0 m 1,12,-1
 85 0 l 1,13,-1
 85 760 l 1,14,-1
 173 760 l 1,15,-1
 173 0 l 1,12,-1
EndSplineSet
Substitution2: "'smcp' Lowercase to Small Capitals lookup 37 subtable" lcaron.sc
Substitution2: "'aalt' Access All Alternates lookup 0 subtable" lcaron.sc
EndChar

StartChar: Lslash
Encoding: 321 321 258
Width: 524
GlyphClass: 2
Flags: W
AnchorPoint: "Anchor-1" 140 714 basechar 0
AnchorPoint: "Anchor-0" 300 0 basechar 0
LayerCount: 2
Fore
SplineSet
97 0 m 1,0,-1
 97 247 l 1,1,-1
 48 219 l 1,2,-1
 13 279 l 1,3,-1
 97 329 l 1,4,-1
 97 714 l 1,5,-1
 187 714 l 1,6,-1
 187 382 l 1,7,-1
 324 463 l 1,8,-1
 360 400 l 1,9,-1
 187 300 l 1,10,-1
 187 80 l 1,11,-1
 499 80 l 1,12,-1
 499 0 l 1,13,-1
 97 0 l 1,0,-1
EndSplineSet
Substitution2: "'c2sc' Capitals to Small Capitals lookup 36 subtable" lslash.sc
Substitution2: "'aalt' Access All Alternates lookup 0 subtable" lslash.sc
EndChar

StartChar: lslash
Encoding: 322 322 259
Width: 258
GlyphClass: 2
Flags: W
AnchorPoint: "Anchor-1" 129 760 basechar 0
AnchorPoint: "Anchor-0" 129 0 basechar 0
LayerCount: 2
Fore
SplineSet
78 0 m 1,0,-1
 78 285 l 1,1,-1
 27 253 l 1,2,-1
 -9 312 l 1,3,-1
 78 368 l 1,4,-1
 78 760 l 1,5,-1
 166 760 l 1,6,-1
 166 425 l 1,7,-1
 230 469 l 1,8,-1
 267 410 l 1,9,-1
 166 342 l 1,10,-1
 166 0 l 1,11,-1
 78 0 l 1,0,-1
EndSplineSet
Substitution2: "'smcp' Lowercase to Small Capitals lookup 37 subtable" lslash.sc
Substitution2: "'aalt' Access All Alternates lookup 0 subtable" lslash.sc
EndChar

StartChar: Eng
Encoding: 330 330 267
Width: 760
GlyphClass: 2
Flags: W
AnchorPoint: "Anchor-1" 380 714 basechar 0
AnchorPoint: "Anchor-0" 380 -190 basechar 0
LayerCount: 2
Fore
SplineSet
475 -190 m 0,0,1
 450 -190 450 -190 431.5 -186.5 c 128,-1,2
 413 -183 413 -183 399 -177 c 1,3,-1
 399 -101 l 1,4,5
 415 -105 415 -105 434 -108 c 128,-1,6
 453 -111 453 -111 475 -111 c 0,7,8
 501 -111 501 -111 524.5 -101.5 c 128,-1,9
 548 -92 548 -92 563.5 -67.5 c 128,-1,10
 579 -43 579 -43 579 0 c 1,11,-1
 176 593 l 1,12,-1
 172 593 l 1,13,14
 174 574 174 574 175.5 539 c 128,-1,15
 177 504 177 504 178.5 464 c 128,-1,16
 180 424 180 424 180 387 c 2,17,-1
 180 0 l 1,18,-1
 97 0 l 1,19,-1
 97 714 l 1,20,-1
 201 714 l 1,21,-1
 582 142 l 1,22,-1
 586 142 l 1,23,24
 583 174 583 174 581 230.5 c 128,-1,25
 579 287 579 287 579 342 c 2,26,-1
 579 714 l 1,27,-1
 663 714 l 1,28,-1
 663 6 l 2,29,30
 663 -94 663 -94 612 -142 c 128,-1,31
 561 -190 561 -190 475 -190 c 0,0,1
EndSplineSet
Substitution2: "'c2sc' Capitals to Small Capitals lookup 36 subtable" eng.sc
AlternateSubs2: "'aalt' Access All Alternates lookup 1 subtable" Eng.alt1 Eng.alt2 Eng.alt3 eng.sc
EndChar

StartChar: eng
Encoding: 331 331 268
Width: 618
GlyphClass: 2
Flags: W
AnchorPoint: "Anchor-2" 562 536 basechar 0
AnchorPoint: "Anchor-1" 309 536 basechar 0
AnchorPoint: "Anchor-0" 309 -240 basechar 0
LayerCount: 2
Fore
SplineSet
394 -240 m 0,0,1
 370 -240 370 -240 353 -236.5 c 128,-1,2
 336 -233 336 -233 323 -228 c 1,3,-1
 323 -157 l 1,4,5
 337 -161 337 -161 351 -164 c 128,-1,6
 365 -167 365 -167 383 -167 c 0,7,8
 412 -167 412 -167 431 -149.5 c 128,-1,9
 450 -132 450 -132 450 -83 c 2,10,-1
 450 344 l 2,11,12
 450 472 450 472 331 472 c 0,13,14
 242 472 242 472 207.5 422.5 c 128,-1,15
 173 373 173 373 173 279 c 2,16,-1
 173 0 l 1,17,-1
 85 0 l 1,18,-1
 85 536 l 1,19,-1
 156 536 l 1,20,-1
 170 463 l 1,21,-1
 175 463 l 1,22,23
 201 505 201 505 245.5 525.5 c 128,-1,24
 290 546 290 546 342 546 c 0,25,26
 440 546 440 546 489 499.5 c 128,-1,27
 538 453 538 453 538 350 c 2,28,-1
 538 -80 l 2,29,30
 538 -155 538 -155 503 -197.5 c 128,-1,31
 468 -240 468 -240 394 -240 c 0,0,1
EndSplineSet
Substitution2: "'smcp' Lowercase to Small Capitals lookup 37 subtable" eng.sc
Substitution2: "'aalt' Access All Alternates lookup 0 subtable" eng.sc
EndChar

StartChar: OE
Encoding: 338 338 275
Width: 928
GlyphClass: 2
Flags: W
AnchorPoint: "Anchor-1" 464 714 basechar 0
AnchorPoint: "Anchor-0" 464 0 basechar 0
LayerCount: 2
Fore
SplineSet
386 725 m 0,0,1
 436 725 436 725 482 714 c 1,2,-1
 868 714 l 1,3,-1
 868 635 l 1,4,-1
 581 635 l 1,5,-1
 581 412 l 1,6,-1
 849 412 l 1,7,-1
 849 334 l 1,8,-1
 581 334 l 1,9,-1
 581 79 l 1,10,-1
 868 79 l 1,11,-1
 868 0 l 1,12,-1
 488 0 l 1,13,14
 466 -4 466 -4 441.5 -7 c 128,-1,15
 417 -10 417 -10 391 -10 c 0,16,17
 280 -10 280 -10 206.5 36 c 128,-1,18
 133 82 133 82 97 165 c 128,-1,19
 61 248 61 248 61 359 c 256,20,21
 61 470 61 470 96.5 552 c 128,-1,22
 132 634 132 634 204.5 679.5 c 128,-1,23
 277 725 277 725 386 725 c 0,0,1
394 646 m 0,24,25
 271 646 271 646 213 569.5 c 128,-1,26
 155 493 155 493 155 358 c 256,27,28
 155 223 155 223 213 145.5 c 128,-1,29
 271 68 271 68 393 68 c 0,30,31
 450 68 450 68 492 85 c 1,32,-1
 492 630 l 1,33,34
 451 646 451 646 394 646 c 0,24,25
EndSplineSet
Substitution2: "'c2sc' Capitals to Small Capitals lookup 36 subtable" oe.sc
Substitution2: "'aalt' Access All Alternates lookup 0 subtable" oe.sc
EndChar

StartChar: oe
Encoding: 339 339 276
Width: 946
GlyphClass: 2
Flags: W
AnchorPoint: "Anchor-1" 473 536 basechar 0
AnchorPoint: "Anchor-0" 473 0 basechar 0
LayerCount: 2
Fore
SplineSet
677 545 m 0,0,1
 778 545 778 545 836 479.5 c 128,-1,2
 894 414 894 414 894 304 c 2,3,-1
 894 251 l 1,4,-1
 538 251 l 1,5,6
 540 155 540 155 581.5 110 c 128,-1,7
 623 65 623 65 700 65 c 0,8,9
 753 65 753 65 791.5 74.5 c 128,-1,10
 830 84 830 84 870 102 c 1,11,-1
 870 25 l 1,12,13
 830 7 830 7 791 -1.5 c 128,-1,14
 752 -10 752 -10 699 -10 c 0,15,16
 631 -10 631 -10 579 18 c 128,-1,17
 527 46 527 46 495 101 c 1,18,19
 464 46 464 46 413 18 c 128,-1,20
 362 -10 362 -10 296 -10 c 0,21,22
 226 -10 226 -10 171.5 22.5 c 128,-1,23
 117 55 117 55 85.5 117.5 c 128,-1,24
 54 180 54 180 54 269 c 0,25,26
 54 401 54 401 119.5 473 c 128,-1,27
 185 545 185 545 299 545 c 0,28,29
 362 545 362 545 412 517 c 128,-1,30
 462 489 462 489 492 435 c 1,31,32
 521 488 521 488 568.5 516.5 c 128,-1,33
 616 545 616 545 677 545 c 0,0,1
676 473 m 0,34,35
 616 473 616 473 581 434 c 128,-1,36
 546 395 546 395 540 321 c 1,37,-1
 801 321 l 1,38,39
 801 390 801 390 771 431.5 c 128,-1,40
 741 473 741 473 676 473 c 0,34,35
295 472 m 256,41,42
 216 472 216 472 181 421 c 128,-1,43
 146 370 146 370 146 269 c 256,44,45
 146 168 146 168 182 115.5 c 128,-1,46
 218 63 218 63 297 63 c 0,47,48
 375 63 375 63 411 114 c 128,-1,49
 447 165 447 165 447 265 c 0,50,51
 447 369 447 369 410.5 420.5 c 128,-1,52
 374 472 374 472 295 472 c 256,41,42
EndSplineSet
Substitution2: "'smcp' Lowercase to Small Capitals lookup 37 subtable" oe.sc
Substitution2: "'aalt' Access All Alternates lookup 0 subtable" oe.sc
EndChar

StartChar: tcaron
Encoding: 357 357 294
Width: 361
GlyphClass: 2
Flags: W
AnchorPoint: "Anchor-3" 181 268 basechar 0
AnchorPoint: "Anchor-2" 225 840 basechar 0
AnchorPoint: "Anchor-1" 154 760 basechar 0
AnchorPoint: "Anchor-0" 214 0 basechar 0
LayerCount: 2
Fore
SplineSet
470 751 m 1,0,1
 466 733 466 733 454.5 706 c 128,-1,2
 443 679 443 679 428 650.5 c 128,-1,3
 413 622 413 622 398 600 c 1,4,-1
 350 600 l 1,5,-1
 350 612 l 1,6,7
 357 631 357 631 363.5 657.5 c 128,-1,8
 370 684 370 684 375.5 711.5 c 128,-1,9
 381 739 381 739 383 760 c 1,10,-1
 470 760 l 1,11,-1
 470 751 l 1,0,1
264 62 m 0,12,13
 284 62 284 62 305 65.5 c 128,-1,14
 326 69 326 69 339 73 c 1,15,-1
 339 6 l 1,16,17
 325 -1 325 -1 299 -5.5 c 128,-1,18
 273 -10 273 -10 249 -10 c 0,19,20
 207 -10 207 -10 171.5 4.5 c 128,-1,21
 136 19 136 19 114 55 c 128,-1,22
 92 91 92 91 92 156 c 2,23,-1
 92 468 l 1,24,-1
 16 468 l 1,25,-1
 16 510 l 1,26,-1
 93 545 l 1,27,-1
 128 659 l 1,28,-1
 180 659 l 1,29,-1
 180 536 l 1,30,-1
 335 536 l 1,31,-1
 335 468 l 1,32,-1
 180 468 l 1,33,-1
 180 158 l 2,34,35
 180 109 180 109 203.5 85.5 c 128,-1,36
 227 62 227 62 264 62 c 0,12,13
EndSplineSet
Substitution2: "'smcp' Lowercase to Small Capitals lookup 37 subtable" tcaron.sc
Substitution2: "'aalt' Access All Alternates lookup 0 subtable" tcaron.sc
EndChar

StartChar: Tbar
Encoding: 358 358 295
Width: 556
GlyphClass: 2
Flags: W
AnchorPoint: "Anchor-1" 278 714 basechar 0
AnchorPoint: "Anchor-0" 278 0 basechar 0
LayerCount: 2
Fore
SplineSet
232 0 m 1,0,-1
 232 325 l 1,1,-1
 83 325 l 1,2,-1
 83 399 l 1,3,-1
 232 399 l 1,4,-1
 232 634 l 1,5,-1
 10 634 l 1,6,-1
 10 714 l 1,7,-1
 545 714 l 1,8,-1
 545 634 l 1,9,-1
 322 634 l 1,10,-1
 322 399 l 1,11,-1
 470 399 l 1,12,-1
 470 325 l 1,13,-1
 322 325 l 1,14,-1
 322 0 l 1,15,-1
 232 0 l 1,0,-1
EndSplineSet
Substitution2: "'c2sc' Capitals to Small Capitals lookup 36 subtable" tbar.sc
Substitution2: "'aalt' Access All Alternates lookup 0 subtable" tbar.sc
EndChar

StartChar: tbar
Encoding: 359 359 296
Width: 361
GlyphClass: 2
Flags: W
AnchorPoint: "Anchor-3" 181 268 basechar 0
AnchorPoint: "Anchor-2" 225 840 basechar 0
AnchorPoint: "Anchor-1" 154 659 basechar 0
AnchorPoint: "Anchor-0" 214 0 basechar 0
LayerCount: 2
Fore
SplineSet
264 62 m 0,0,1
 284 62 284 62 305 65.5 c 128,-1,2
 326 69 326 69 339 73 c 1,3,-1
 339 6 l 1,4,5
 325 -1 325 -1 299 -5.5 c 128,-1,6
 273 -10 273 -10 249 -10 c 0,7,8
 207 -10 207 -10 171.5 4.5 c 128,-1,9
 136 19 136 19 114 55 c 128,-1,10
 92 91 92 91 92 156 c 2,11,-1
 92 280 l 1,12,-1
 24 280 l 1,13,-1
 24 346 l 1,14,-1
 92 346 l 1,15,-1
 92 468 l 1,16,-1
 16 468 l 1,17,-1
 16 510 l 1,18,-1
 93 545 l 1,19,-1
 128 659 l 1,20,-1
 180 659 l 1,21,-1
 180 536 l 1,22,-1
 335 536 l 1,23,-1
 335 468 l 1,24,-1
 180 468 l 1,25,-1
 180 346 l 1,26,-1
 326 346 l 1,27,-1
 326 280 l 1,28,-1
 180 280 l 1,29,-1
 180 158 l 2,30,31
 180 109 180 109 203.5 85.5 c 128,-1,32
 227 62 227 62 264 62 c 0,0,1
EndSplineSet
Substitution2: "'smcp' Lowercase to Small Capitals lookup 37 subtable" tbar.sc
Substitution2: "'aalt' Access All Alternates lookup 0 subtable" tbar.sc
EndChar

StartChar: Uogonek
Encoding: 370 370 307
Width: 731
GlyphClass: 2
Flags: W
AnchorPoint: "Anchor-2" 711 714 basechar 0
AnchorPoint: "Anchor-1" 366 714 basechar 0
AnchorPoint: "Anchor-0" 364 -220 basechar 0
LayerCount: 2
Fore
SplineSet
466 -107 m 0,0,1
 466 -136 466 -136 478 -148.5 c 128,-1,2
 490 -161 490 -161 511 -161 c 0,3,4
 528 -161 528 -161 539.5 -158.5 c 128,-1,5
 551 -156 551 -156 559 -155 c 1,6,-1
 559 -211 l 1,7,8
 545 -215 545 -215 531 -217.5 c 128,-1,9
 517 -220 517 -220 497 -220 c 0,10,11
 444 -220 444 -220 419 -194 c 128,-1,12
 394 -168 394 -168 394 -117 c 0,13,14
 394 -86 394 -86 410 -55.5 c 128,-1,15
 426 -25 426 -25 447 -1 c 1,16,17
 408 -10 408 -10 362 -10 c 0,18,19
 229 -10 229 -10 159.5 62.5 c 128,-1,20
 90 135 90 135 90 254 c 2,21,-1
 90 714 l 1,22,-1
 180 714 l 1,23,-1
 180 251 l 2,24,25
 180 164 180 164 226.5 116 c 128,-1,26
 273 68 273 68 367 68 c 0,27,28
 464 68 464 68 507.5 119.5 c 128,-1,29
 551 171 551 171 551 252 c 2,30,-1
 551 714 l 1,31,-1
 640 714 l 1,32,-1
 640 252 l 2,33,34
 640 189 640 189 618 136 c 128,-1,35
 596 83 596 83 552 47 c 1,36,37
 508 -3 508 -3 487 -37.5 c 128,-1,38
 466 -72 466 -72 466 -107 c 0,0,1
EndSplineSet
Substitution2: "'c2sc' Capitals to Small Capitals lookup 36 subtable" uogonek.sc
Substitution2: "'locl' Localized Forms in Latin lookup 8 subtable" Uogonek.loclNAV
Ligature2: "'ccmp' Glyph Composition/Decomposition lookup 6 subtable" U uni0328
AlternateSubs2: "'aalt' Access All Alternates lookup 1 subtable" Uogonek.loclNAV uogonek.sc
EndChar

StartChar: longs
Encoding: 383 383 320
Width: 326
GlyphClass: 2
Flags: W
AnchorPoint: "Anchor-1" 213 765 basechar 0
AnchorPoint: "Anchor-0" 163 0 basechar 0
LayerCount: 2
Fore
SplineSet
261 692 m 0,0,1
 220 692 220 692 196.5 666 c 128,-1,2
 173 640 173 640 173 577 c 2,3,-1
 173 0 l 1,4,-1
 85 0 l 1,5,-1
 85 577 l 2,6,7
 85 680 85 680 133.5 722.5 c 128,-1,8
 182 765 182 765 262 765 c 0,9,10
 293 765 293 765 318 759.5 c 128,-1,11
 343 754 343 754 362 746 c 1,12,-1
 339 677 l 1,13,14
 323 682 323 682 302 687 c 128,-1,15
 281 692 281 692 261 692 c 0,0,1
EndSplineSet
EndChar

StartChar: fhook
Encoding: 402 402 321
Width: 414
GlyphClass: 2
Flags: W
AnchorPoint: "Anchor-2" 450 765 basechar 0
AnchorPoint: "Anchor-1" 322 765 basechar 0
AnchorPoint: "Anchor-0" 120 0 basechar 0
LayerCount: 2
Fore
SplineSet
130 -242 m 0,0,1
 66 -242 66 -242 26.5 -207 c 128,-1,2
 -13 -172 -13 -172 -13 -113 c 0,3,4
 -13 -103 -13 -103 -12 -92 c 128,-1,5
 -11 -81 -11 -81 -8 -70 c 1,6,-1
 67 -86 l 1,7,8
 66 -90 66 -90 65.5 -95.5 c 128,-1,9
 65 -101 65 -101 65 -107 c 0,10,11
 65 -138 65 -138 81.5 -153.5 c 128,-1,12
 98 -169 98 -169 120 -169 c 0,13,14
 148 -169 148 -169 163.5 -150 c 128,-1,15
 179 -131 179 -131 179 -82 c 2,16,-1
 179 468 l 1,17,-1
 85 468 l 1,18,-1
 85 509 l 1,19,-1
 179 539 l 1,20,-1
 179 570 l 2,21,22
 179 674 179 674 225 719.5 c 128,-1,23
 271 765 271 765 353 765 c 0,24,25
 385 765 385 765 411.5 759.5 c 128,-1,26
 438 754 438 754 457 747 c 1,27,-1
 434 678 l 1,28,29
 418 683 418 683 397 688 c 128,-1,30
 376 693 376 693 354 693 c 0,31,32
 310 693 310 693 288.5 663.5 c 128,-1,33
 267 634 267 634 267 571 c 2,34,-1
 267 536 l 1,35,-1
 402 536 l 1,36,-1
 402 468 l 1,37,-1
 267 468 l 1,38,-1
 267 -79 l 2,39,40
 267 -155 267 -155 233.5 -198.5 c 128,-1,41
 200 -242 200 -242 130 -242 c 0,0,1
EndSplineSet
Substitution2: "'ss03' Style Set 3 lookup 42 subtable" fhook.ss03
Substitution2: "'aalt' Access All Alternates lookup 0 subtable" fhook.ss03
EndChar

StartChar: Aringacute
Encoding: 506 506 322
Width: 640
GlyphClass: 2
Flags: W
AnchorPoint: "Anchor-1" 320 958 basechar 0
AnchorPoint: "Anchor-0" 320 0 basechar 0
LayerCount: 2
Fore
SplineSet
271 838 m 1,0,1
 292 862 292 862 316 896 c 128,-1,2
 340 930 340 930 356 958 c 1,3,-1
 462 958 l 1,4,-1
 462 950 l 1,5,6
 452 936 452 936 429 913 c 128,-1,7
 406 890 406 890 379 867 c 128,-1,8
 352 844 352 844 330 829 c 1,9,-1
 271 829 l 1,10,-1
 271 838 l 1,0,1
258 608 m 1,11,12
 209 635 209 635 209 698 c 0,13,14
 209 748 209 748 239.5 776 c 128,-1,15
 270 804 270 804 318 804 c 0,16,17
 365 804 365 804 397.5 776.5 c 128,-1,18
 430 749 430 749 430 699 c 0,19,20
 430 668 430 668 417 645 c 128,-1,21
 404 622 404 622 382 609 c 1,22,-1
 640 0 l 1,23,-1
 547 0 l 1,24,-1
 465 192 l 1,25,-1
 170 192 l 1,26,-1
 92 0 l 1,27,-1
 0 0 l 1,28,-1
 258 608 l 1,11,12
318 642 m 0,29,30
 343 642 343 642 358.5 656.5 c 128,-1,31
 374 671 374 671 374 698 c 256,32,33
 374 725 374 725 358.5 739.5 c 128,-1,34
 343 754 343 754 318 754 c 0,35,36
 294 754 294 754 278 739.5 c 128,-1,37
 262 725 262 725 262 698 c 0,38,39
 262 672 262 672 276.5 657 c 128,-1,40
 291 642 291 642 318 642 c 0,29,30
201 272 m 1,41,-1
 439 272 l 1,42,-1
 355 479 l 2,43,44
 348 497 348 497 337.5 525 c 128,-1,45
 327 553 327 553 319 580 c 1,46,47
 311 553 311 553 301 523.5 c 128,-1,48
 291 494 291 494 284 477 c 2,49,-1
 201 272 l 1,41,-1
EndSplineSet
Substitution2: "'c2sc' Capitals to Small Capitals lookup 36 subtable" aringacute.sc
Substitution2: "'aalt' Access All Alternates lookup 0 subtable" aringacute.sc
EndChar

StartChar: aringacute
Encoding: 507 507 323
Width: 561
GlyphClass: 2
Flags: W
AnchorPoint: "Anchor-1" 281 958 basechar 0
AnchorPoint: "Anchor-0" 281 0 basechar 0
LayerCount: 2
Fore
SplineSet
446 952 m 1,0,1
 436 941 436 941 408 922.5 c 128,-1,2
 380 904 380 904 348 886 c 128,-1,3
 316 868 316 868 293 856 c 1,4,-1
 230 856 l 1,5,-1
 230 864 l 1,6,7
 251 883 251 883 275 909.5 c 128,-1,8
 299 936 299 936 315 958 c 1,9,-1
 446 958 l 1,10,-1
 446 952 l 1,0,1
285 817 m 0,11,12
 332 817 332 817 364 789.5 c 128,-1,13
 396 762 396 762 396 713 c 0,14,15
 396 662 396 662 364.5 634 c 128,-1,16
 333 606 333 606 285 606 c 0,17,18
 236 606 236 606 206 634 c 128,-1,19
 176 662 176 662 176 712 c 256,20,21
 176 762 176 762 206 789.5 c 128,-1,22
 236 817 236 817 285 817 c 0,11,12
285 768 m 256,23,24
 261 768 261 768 245 753 c 128,-1,25
 229 738 229 738 229 712 c 256,26,27
 229 686 229 686 243.5 671 c 128,-1,28
 258 656 258 656 285 656 c 0,29,30
 310 656 310 656 325.5 671 c 128,-1,31
 341 686 341 686 341 712 c 256,32,33
 341 738 341 738 325 753 c 128,-1,34
 309 768 309 768 285 768 c 256,23,24
288 545 m 0,35,36
 386 545 386 545 433 502 c 128,-1,37
 480 459 480 459 480 365 c 2,38,-1
 480 0 l 1,39,-1
 416 0 l 1,40,-1
 399 76 l 1,41,-1
 395 76 l 1,42,43
 360 32 360 32 321.5 11 c 128,-1,44
 283 -10 283 -10 215 -10 c 0,45,46
 142 -10 142 -10 94 28.5 c 128,-1,47
 46 67 46 67 46 149 c 0,48,49
 46 229 46 229 109 272.5 c 128,-1,50
 172 316 172 316 303 320 c 2,51,-1
 394 323 l 1,52,-1
 394 355 l 2,53,54
 394 422 394 422 365 448 c 128,-1,55
 336 474 336 474 283 474 c 0,56,57
 241 474 241 474 203 461.5 c 128,-1,58
 165 449 165 449 132 433 c 1,59,-1
 105 499 l 1,60,61
 140 518 140 518 188 531.5 c 128,-1,62
 236 545 236 545 288 545 c 0,35,36
314 259 m 2,63,64
 214 255 214 255 175.5 227 c 128,-1,65
 137 199 137 199 137 148 c 0,66,67
 137 103 137 103 164.5 82 c 128,-1,68
 192 61 192 61 235 61 c 0,69,70
 303 61 303 61 348 98.5 c 128,-1,71
 393 136 393 136 393 214 c 2,72,-1
 393 262 l 1,73,-1
 314 259 l 2,63,64
EndSplineSet
Substitution2: "'smcp' Lowercase to Small Capitals lookup 37 subtable" aringacute.sc
Substitution2: "'aalt' Access All Alternates lookup 0 subtable" aringacute.sc
EndChar

StartChar: circumflex
Encoding: 710 710 330
Width: 418
Flags: W
LayerCount: 2
Fore
SplineSet
253 766 m 1,0,1
 265 744 265 744 287.5 716.5 c 128,-1,2
 310 689 310 689 334.5 662.5 c 128,-1,3
 359 636 359 636 378 617 c 1,4,-1
 378 606 l 1,5,-1
 316 606 l 1,6,7
 290 622 290 622 262 645.5 c 128,-1,8
 234 669 234 669 207 696 c 1,9,10
 180 669 180 669 153 646 c 128,-1,11
 126 623 126 623 100 606 c 1,12,-1
 40 606 l 1,13,-1
 40 617 l 1,14,15
 59 637 59 637 82.5 663 c 128,-1,16
 106 689 106 689 128 716.5 c 128,-1,17
 150 744 150 744 163 766 c 1,18,-1
 253 766 l 1,0,1
EndSplineSet
EndChar

StartChar: caron
Encoding: 711 711 331
Width: 418
Flags: W
LayerCount: 2
Fore
SplineSet
163 606 m 1,0,1
 150 629 150 629 128 655.5 c 128,-1,2
 106 682 106 682 82 708 c 128,-1,3
 58 734 58 734 40 753 c 1,4,-1
 40 766 l 1,5,-1
 100 766 l 1,6,7
 126 749 126 749 154 725 c 128,-1,8
 182 701 182 701 207 674 c 1,9,10
 234 701 234 701 262 725 c 128,-1,11
 290 749 290 749 316 766 c 1,12,-1
 378 766 l 1,13,-1
 378 753 l 1,14,15
 359 734 359 734 334.5 708 c 128,-1,16
 310 682 310 682 287.5 655.5 c 128,-1,17
 265 629 265 629 253 606 c 1,18,-1
 163 606 l 1,0,1
EndSplineSet
EndChar

StartChar: macronmod
Encoding: 713 713 332
Width: 377
Flags: W
LayerCount: 2
Fore
SplineSet
337 677 m 1,0,-1
 337 606 l 1,1,-1
 40 606 l 1,2,-1
 40 677 l 1,3,-1
 337 677 l 1,0,-1
EndSplineSet
EndChar

StartChar: breve
Encoding: 728 728 333
Width: 391
Flags: W
LayerCount: 2
Fore
SplineSet
351 740 m 1,0,1
 346 680 346 680 305.5 643 c 128,-1,2
 265 606 265 606 193 606 c 0,3,4
 119 606 119 606 81.5 642.5 c 128,-1,5
 44 679 44 679 40 740 c 1,6,-1
 94 740 l 1,7,8
 99 699 99 699 124 688 c 128,-1,9
 149 677 149 677 195 677 c 0,10,11
 234 677 234 677 262.5 689 c 128,-1,12
 291 701 291 701 296 740 c 1,13,-1
 351 740 l 1,0,1
EndSplineSet
EndChar

StartChar: dotaccent
Encoding: 729 729 334
Width: 183
Flags: W
LayerCount: 2
Fore
SplineSet
92 737 m 0,0,1
 112 737 112 737 127.5 723.5 c 128,-1,2
 143 710 143 710 143 681 c 0,3,4
 143 653 143 653 127.5 639 c 128,-1,5
 112 625 112 625 92 625 c 0,6,7
 70 625 70 625 55 639 c 128,-1,8
 40 653 40 653 40 681 c 0,9,10
 40 710 40 710 55 723.5 c 128,-1,11
 70 737 70 737 92 737 c 0,0,1
EndSplineSet
EndChar

StartChar: ring
Encoding: 730 730 335
Width: 300
Flags: W
LayerCount: 2
Fore
SplineSet
149 606 m 0,0,1
 100 606 100 606 70 634 c 128,-1,2
 40 662 40 662 40 712 c 256,3,4
 40 762 40 762 70 789.5 c 128,-1,5
 100 817 100 817 149 817 c 0,6,7
 196 817 196 817 228 789.5 c 128,-1,8
 260 762 260 762 260 713 c 0,9,10
 260 662 260 662 228.5 634 c 128,-1,11
 197 606 197 606 149 606 c 0,0,1
149 656 m 0,12,13
 174 656 174 656 189.5 671 c 128,-1,14
 205 686 205 686 205 712 c 256,15,16
 205 738 205 738 189 753 c 128,-1,17
 173 768 173 768 149 768 c 256,18,19
 125 768 125 768 109 753 c 128,-1,20
 93 738 93 738 93 712 c 256,21,22
 93 686 93 686 107.5 671 c 128,-1,23
 122 656 122 656 149 656 c 0,12,13
EndSplineSet
EndChar

StartChar: ogonek
Encoding: 731 731 336
Width: 245
Flags: W
LayerCount: 2
Fore
SplineSet
112 -116 m 0,0,1
 112 -161 112 -161 157 -161 c 0,2,3
 174 -161 174 -161 185.5 -158.5 c 128,-1,4
 197 -156 197 -156 205 -155 c 1,5,-1
 205 -211 l 1,6,7
 191 -215 191 -215 177 -217.5 c 128,-1,8
 163 -220 163 -220 143 -220 c 0,9,10
 90 -220 90 -220 65 -195 c 128,-1,11
 40 -170 40 -170 40 -126 c 0,12,13
 40 -97 40 -97 54.5 -70 c 128,-1,14
 69 -43 69 -43 90.5 -21 c 128,-1,15
 112 1 112 1 132 15 c 1,16,-1
 180 0 l 1,17,18
 146 -32 146 -32 129 -58.5 c 128,-1,19
 112 -85 112 -85 112 -116 c 0,0,1
EndSplineSet
EndChar

StartChar: tilde
Encoding: 732 732 337
Width: 447
Flags: W
LayerCount: 2
Fore
SplineSet
40 606 m 1,0,1
 46 665 46 665 74.5 699.5 c 128,-1,2
 103 734 103 734 150 734 c 0,3,4
 180 734 180 734 206.5 719.5 c 128,-1,5
 233 705 233 705 257 691 c 128,-1,6
 281 677 281 677 302 677 c 0,7,8
 325 677 325 677 337.5 691.5 c 128,-1,9
 350 706 350 706 357 735 c 1,10,-1
 407 735 l 1,11,12
 401 677 401 677 373 642 c 128,-1,13
 345 607 345 607 298 607 c 0,14,15
 270 607 270 607 243.5 621 c 128,-1,16
 217 635 217 635 192.5 649.5 c 128,-1,17
 168 664 168 664 146 664 c 0,18,19
 122 664 122 664 110 649.5 c 128,-1,20
 98 635 98 635 91 606 c 1,21,-1
 40 606 l 1,0,1
EndSplineSet
EndChar

StartChar: hungarumlaut
Encoding: 733 733 338
Width: 439
Flags: W
LayerCount: 2
Fore
SplineSet
399 756 m 1,0,1
 389 739 389 739 366 710 c 128,-1,2
 343 681 343 681 316 652.5 c 128,-1,3
 289 624 289 624 266 606 c 1,4,-1
 216 606 l 1,5,-1
 216 618 l 1,6,7
 230 637 230 637 246 663 c 128,-1,8
 262 689 262 689 277.5 716.5 c 128,-1,9
 293 744 293 744 303 766 c 1,10,-1
 399 766 l 1,11,-1
 399 756 l 1,0,1
223 756 m 1,12,13
 213 739 213 739 190 710 c 128,-1,14
 167 681 167 681 140 652.5 c 128,-1,15
 113 624 113 624 90 606 c 1,16,-1
 40 606 l 1,17,-1
 40 618 l 1,18,19
 61 647 61 647 86 689.5 c 128,-1,20
 111 732 111 732 127 766 c 1,21,-1
 223 766 l 1,22,-1
 223 756 l 1,12,13
EndSplineSet
EndChar

StartChar: endash
Encoding: 8211 8211 347
Width: 500
Flags: W
LayerCount: 2
Fore
SplineSet
40 229 m 1,0,-1
 40 307 l 1,1,-1
 460 307 l 1,2,-1
 460 229 l 1,3,-1
 40 229 l 1,0,-1
EndSplineSet
EndChar

StartChar: emdash
Encoding: 8212 8212 348
Width: 1000
Flags: W
LayerCount: 2
Fore
SplineSet
40 229 m 1,0,-1
 40 307 l 1,1,-1
 960 307 l 1,2,-1
 960 229 l 1,3,-1
 40 229 l 1,0,-1
EndSplineSet
EndChar

StartChar: underscoredbl
Encoding: 8215 8215 350
Width: 411
Flags: W
LayerCount: 2
Fore
SplineSet
413 -90 m 1,0,-1
 -2 -90 l 1,1,-1
 -2 -26 l 1,2,-1
 413 -26 l 1,3,-1
 413 -90 l 1,0,-1
413 -222 m 1,4,-1
 -2 -222 l 1,5,-1
 -2 -158 l 1,6,-1
 413 -158 l 1,7,-1
 413 -222 l 1,4,-1
EndSplineSet
EndChar

StartChar: quoteleft
Encoding: 8216 8216 351
Width: 175
Flags: W
LayerCount: 2
Fore
SplineSet
12 480 m 1,0,1
 26 533 26 533 50 597 c 128,-1,2
 74 661 74 661 98 714 c 1,3,-1
 163 714 l 1,4,5
 154 676 154 676 144 632.5 c 128,-1,6
 134 589 134 589 126 546.5 c 128,-1,7
 118 504 118 504 113 469 c 1,8,-1
 18 469 l 1,9,-1
 12 480 l 1,0,1
EndSplineSet
EndChar

StartChar: quoteright
Encoding: 8217 8217 352
Width: 175
Flags: W
LayerCount: 2
Fore
SplineSet
163 703 m 1,0,1
 150 651 150 651 125.5 586.5 c 128,-1,2
 101 522 101 522 77 469 c 1,3,-1
 12 469 l 1,4,5
 22 507 22 507 31.5 550.5 c 128,-1,6
 41 594 41 594 49 636.5 c 128,-1,7
 57 679 57 679 62 714 c 1,8,-1
 156 714 l 1,9,-1
 163 703 l 1,0,1
EndSplineSet
EndChar

StartChar: quotereversed
Encoding: 8219 8219 354
Width: 175
Flags: W
LayerCount: 2
Fore
SplineSet
114 714 m 1,0,1
 119 679 119 679 127 636.5 c 128,-1,2
 135 594 135 594 145 550.5 c 128,-1,3
 155 507 155 507 164 469 c 1,4,-1
 99 469 l 1,5,6
 74 522 74 522 50 586.5 c 128,-1,7
 26 651 26 651 12 703 c 1,8,-1
 19 714 l 1,9,-1
 114 714 l 1,0,1
EndSplineSet
EndChar

StartChar: quotedblleft
Encoding: 8220 8220 355
Width: 359
Flags: W
LayerCount: 2
Fore
SplineSet
347 714 m 1,0,1
 333 656 333 656 319 588.5 c 128,-1,2
 305 521 305 521 297 469 c 1,3,-1
 202 469 l 1,4,-1
 195 480 l 1,5,6
 209 533 209 533 233 596.5 c 128,-1,7
 257 660 257 660 282 714 c 1,8,-1
 347 714 l 1,0,1
162 714 m 1,9,10
 148 656 148 656 134 588.5 c 128,-1,11
 120 521 120 521 112 469 c 1,12,-1
 18 469 l 1,13,-1
 12 480 l 1,14,15
 26 533 26 533 49.5 596.5 c 128,-1,16
 73 660 73 660 98 714 c 1,17,-1
 162 714 l 1,9,10
EndSplineSet
EndChar

StartChar: quotedblright
Encoding: 8221 8221 356
Width: 359
Flags: W
LayerCount: 2
Fore
SplineSet
347 703 m 1,0,1
 334 650 334 650 309.5 586 c 128,-1,2
 285 522 285 522 261 469 c 1,3,-1
 195 469 l 1,4,5
 205 507 205 507 214.5 550.5 c 128,-1,6
 224 594 224 594 232.5 636.5 c 128,-1,7
 241 679 241 679 246 714 c 1,8,-1
 340 714 l 1,9,-1
 347 703 l 1,0,1
162 703 m 1,10,11
 149 650 149 650 124.5 586 c 128,-1,12
 100 522 100 522 76 469 c 1,13,-1
 12 469 l 1,14,15
 22 507 22 507 31 550.5 c 128,-1,16
 40 594 40 594 48 636.5 c 128,-1,17
 56 679 56 679 61 714 c 1,18,-1
 155 714 l 1,19,-1
 162 703 l 1,10,11
EndSplineSet
EndChar

StartChar: dagger
Encoding: 8224 8224 358
Width: 512
Flags: W
LayerCount: 2
Fore
SplineSet
448 484 m 1,0,-1
 277 499 l 1,1,-1
 302 0 l 1,2,-1
 202 0 l 1,3,-1
 226 499 l 1,4,-1
 65 484 l 1,5,-1
 65 571 l 1,6,-1
 226 556 l 1,7,-1
 202 760 l 1,8,-1
 302 760 l 1,9,-1
 277 556 l 1,10,-1
 448 571 l 1,11,-1
 448 484 l 1,0,-1
EndSplineSet
EndChar

StartChar: daggerdbl
Encoding: 8225 8225 359
Width: 512
Flags: W
LayerCount: 2
Fore
SplineSet
281 241 m 1,0,-1
 452 256 l 1,1,-1
 452 171 l 1,2,-1
 281 185 l 1,3,-1
 305 0 l 1,4,-1
 204 0 l 1,5,-1
 228 185 l 1,6,-1
 60 171 l 1,7,-1
 60 256 l 1,8,-1
 228 241 l 1,9,-1
 207 384 l 1,10,-1
 228 519 l 1,11,-1
 60 504 l 1,12,-1
 60 589 l 1,13,-1
 228 574 l 1,14,-1
 204 760 l 1,15,-1
 305 760 l 1,16,-1
 281 574 l 1,17,-1
 452 589 l 1,18,-1
 452 504 l 1,19,-1
 281 519 l 1,20,-1
 302 384 l 1,21,-1
 281 241 l 1,0,-1
EndSplineSet
EndChar

StartChar: bullet
Encoding: 8226 8226 360
Width: 376
Flags: W
LayerCount: 2
Fore
SplineSet
77 365 m 0,0,1
 77 433 77 433 109 461 c 128,-1,2
 141 489 141 489 188 489 c 256,3,4
 235 489 235 489 267 461 c 128,-1,5
 299 433 299 433 299 365 c 0,6,7
 299 299 299 299 267 270 c 128,-1,8
 235 241 235 241 188 241 c 256,9,10
 141 241 141 241 109 270 c 128,-1,11
 77 299 77 299 77 365 c 0,0,1
EndSplineSet
EndChar

StartChar: perthousand
Encoding: 8240 8240 362
Width: 1177
Flags: W
LayerCount: 2
Fore
SplineSet
195 724 m 0,0,1
 269 724 269 724 307 665.5 c 128,-1,2
 345 607 345 607 345 501 c 256,3,4
 345 395 345 395 308.5 335.5 c 128,-1,5
 272 276 272 276 195 276 c 0,6,7
 124 276 124 276 86.5 335.5 c 128,-1,8
 49 395 49 395 49 501 c 256,9,10
 49 607 49 607 84 665.5 c 128,-1,11
 119 724 119 724 195 724 c 0,0,1
652 714 m 1,12,-1
 256 0 l 1,13,-1
 179 0 l 1,14,-1
 575 714 l 1,15,-1
 652 714 l 1,12,-1
195 662 m 0,16,17
 157 662 157 662 139.5 621.5 c 128,-1,18
 122 581 122 581 122 501 c 256,19,20
 122 421 122 421 139.5 380 c 128,-1,21
 157 339 157 339 195 339 c 0,22,23
 272 339 272 339 272 501 c 0,24,25
 272 662 272 662 195 662 c 0,16,17
632 438 m 0,26,27
 705 438 705 438 743.5 379.5 c 128,-1,28
 782 321 782 321 782 215 c 256,29,30
 782 109 782 109 745.5 49.5 c 128,-1,31
 709 -10 709 -10 632 -10 c 0,32,33
 561 -10 561 -10 523.5 49.5 c 128,-1,34
 486 109 486 109 486 215 c 256,35,36
 486 321 486 321 521 379.5 c 128,-1,37
 556 438 556 438 632 438 c 0,26,27
978 438 m 0,38,39
 1051 438 1051 438 1089.5 379.5 c 128,-1,40
 1128 321 1128 321 1128 215 c 256,41,42
 1128 109 1128 109 1091.5 49.5 c 128,-1,43
 1055 -10 1055 -10 978 -10 c 0,44,45
 907 -10 907 -10 869.5 49.5 c 128,-1,46
 832 109 832 109 832 215 c 256,47,48
 832 321 832 321 867 379.5 c 128,-1,49
 902 438 902 438 978 438 c 0,38,39
632 375 m 0,50,51
 594 375 594 375 576.5 335 c 128,-1,52
 559 295 559 295 559 215 c 0,53,54
 559 134 559 134 576.5 93.5 c 128,-1,55
 594 53 594 53 632 53 c 0,56,57
 709 53 709 53 709 215 c 0,58,59
 709 375 709 375 632 375 c 0,50,51
978 375 m 0,60,61
 940 375 940 375 922.5 335 c 128,-1,62
 905 295 905 295 905 215 c 0,63,64
 905 134 905 134 922.5 93.5 c 128,-1,65
 940 53 940 53 978 53 c 0,66,67
 1055 53 1055 53 1055 215 c 0,68,69
 1055 375 1055 375 978 375 c 0,60,61
EndSplineSet
EndChar

StartChar: minute
Encoding: 8242 8242 363
Width: 232
Flags: W
LayerCount: 2
Fore
SplineSet
168 714 m 1,0,-1
 258 714 l 1,1,-1
 97 456 l 1,2,-1
 39 456 l 1,3,-1
 168 714 l 1,0,-1
EndSplineSet
EndChar

StartChar: guilsinglleft
Encoding: 8249 8249 365
Width: 310
Flags: W
LayerCount: 2
Fore
SplineSet
40 270 m 1,0,-1
 208 471 l 1,1,-1
 271 435 l 1,2,-1
 131 264 l 1,3,-1
 271 93 l 1,4,-1
 208 56 l 1,5,-1
 40 257 l 1,6,-1
 40 270 l 1,0,-1
EndSplineSet
Substitution2: "'smcp' Lowercase to Small Capitals lookup 37 subtable" guilsinglleft.sc
Substitution2: "'c2sc' Capitals to Small Capitals lookup 36 subtable" guilsinglleft.sc
Substitution2: "'aalt' Access All Alternates lookup 0 subtable" guilsinglleft.sc
EndChar

StartChar: guilsinglright
Encoding: 8250 8250 366
Width: 310
Flags: W
LayerCount: 2
Fore
SplineSet
101 471 m 1,0,-1
 270 270 l 1,1,-1
 270 257 l 1,2,-1
 101 56 l 1,3,-1
 39 93 l 1,4,-1
 179 264 l 1,5,-1
 39 435 l 1,6,-1
 101 471 l 1,0,-1
EndSplineSet
Substitution2: "'smcp' Lowercase to Small Capitals lookup 37 subtable" guilsinglright.sc
Substitution2: "'c2sc' Capitals to Small Capitals lookup 36 subtable" guilsinglright.sc
Substitution2: "'aalt' Access All Alternates lookup 0 subtable" guilsinglright.sc
EndChar

StartChar: fraction
Encoding: 8260 8260 368
Width: 130
Flags: W
LayerCount: 2
Fore
SplineSet
320 714 m 1,0,-1
 -116 0 l 1,1,-1
 -191 0 l 1,2,-1
 245 714 l 1,3,-1
 320 714 l 1,0,-1
EndSplineSet
EndChar

StartChar: franc
Encoding: 8355 8355 370
Width: 572
Flags: W
LayerCount: 2
Fore
SplineSet
130 0 m 1,0,-1
 130 130 l 1,1,-1
 45 130 l 1,2,-1
 45 195 l 1,3,-1
 130 195 l 1,4,-1
 130 714 l 1,5,-1
 517 714 l 1,6,-1
 517 635 l 1,7,-1
 217 635 l 1,8,-1
 217 384 l 1,9,-1
 498 384 l 1,10,-1
 498 305 l 1,11,-1
 217 305 l 1,12,-1
 217 195 l 1,13,-1
 368 195 l 1,14,-1
 368 130 l 1,15,-1
 217 130 l 1,16,-1
 217 0 l 1,17,-1
 130 0 l 1,0,-1
EndSplineSet
EndChar

StartChar: lira
Encoding: 8356 8356 371
Width: 572
Flags: W
LayerCount: 2
Fore
SplineSet
336 723 m 0,0,1
 392 723 392 723 435.5 712 c 128,-1,2
 479 701 479 701 513 684 c 1,3,-1
 482 615 l 1,4,5
 451 629 451 629 414.5 639 c 128,-1,6
 378 649 378 649 337 649 c 0,7,8
 284 649 284 649 252.5 620 c 128,-1,9
 221 591 221 591 221 525 c 2,10,-1
 221 437 l 1,11,-1
 423 437 l 1,12,-1
 423 372 l 1,13,-1
 221 372 l 1,14,-1
 221 294 l 1,15,-1
 423 294 l 1,16,-1
 423 228 l 1,17,-1
 220 228 l 1,18,19
 220 163 220 163 201 129.5 c 128,-1,20
 182 96 182 96 152 80 c 1,21,-1
 536 80 l 1,22,-1
 536 0 l 1,23,-1
 33 0 l 1,24,-1
 33 74 l 1,25,26
 80 84 80 84 106.5 121 c 128,-1,27
 133 158 133 158 133 228 c 1,28,-1
 36 228 l 1,29,-1
 36 294 l 1,30,-1
 133 294 l 1,31,-1
 133 372 l 1,32,-1
 36 372 l 1,33,-1
 36 437 l 1,34,-1
 133 437 l 1,35,-1
 133 503 l 2,36,37
 133 606 133 606 180.5 664.5 c 128,-1,38
 228 723 228 723 336 723 c 0,0,1
EndSplineSet
EndChar

StartChar: peseta
Encoding: 8359 8359 372
Width: 776
Flags: W
LayerCount: 2
Fore
SplineSet
210 714 m 2,0,1
 343 714 343 714 402 659 c 128,-1,2
 461 604 461 604 461 504 c 0,3,4
 461 444 461 444 436.5 392.5 c 128,-1,5
 412 341 412 341 354 309.5 c 128,-1,6
 296 278 296 278 194 278 c 2,7,-1
 163 278 l 1,8,-1
 163 0 l 1,9,-1
 76 0 l 1,10,-1
 76 714 l 1,11,-1
 210 714 l 2,0,1
204 637 m 2,12,-1
 163 637 l 1,13,-1
 163 355 l 1,14,-1
 189 355 l 2,15,16
 281 355 281 355 326.5 388.5 c 128,-1,17
 372 422 372 422 372 500 c 0,18,19
 372 569 372 569 331 603 c 128,-1,20
 290 637 290 637 204 637 c 2,12,-1
618 517 m 1,21,-1
 618 413 l 1,22,-1
 728 413 l 1,23,-1
 728 346 l 1,24,-1
 618 346 l 1,25,-1
 618 138 l 2,26,27
 618 101 618 101 631 81 c 128,-1,28
 644 61 644 61 675 61 c 0,29,30
 690 61 690 61 710.5 64 c 128,-1,31
 731 67 731 67 741 71 c 1,32,-1
 741 6 l 1,33,34
 729 0 729 0 707.5 -5 c 128,-1,35
 686 -10 686 -10 654 -10 c 0,36,37
 599 -10 599 -10 567 23.5 c 128,-1,38
 535 57 535 57 535 127 c 2,39,-1
 535 346 l 1,40,-1
 458 346 l 1,41,-1
 458 386 l 1,42,-1
 536 422 l 1,43,-1
 567 517 l 1,44,-1
 618 517 l 1,21,-1
EndSplineSet
EndChar

StartChar: Euro
Encoding: 8364 8364 373
Width: 572
Flags: W
LayerCount: 2
Fore
SplineSet
380 723 m 0,0,1
 430 723 430 723 474 712 c 128,-1,2
 518 701 518 701 559 677 c 1,3,-1
 522 605 l 1,4,5
 494 620 494 620 456.5 633 c 128,-1,6
 419 646 419 646 380 646 c 0,7,8
 228 646 228 646 191 455 c 1,9,-1
 435 455 l 1,10,-1
 435 390 l 1,11,-1
 184 390 l 1,12,13
 183 380 183 380 183 371 c 128,-1,14
 183 362 183 362 183 352 c 0,15,16
 183 343 183 343 183 332.5 c 128,-1,17
 183 322 183 322 184 311 c 1,18,-1
 405 311 l 1,19,-1
 405 246 l 1,20,-1
 192 246 l 1,21,22
 209 161 209 161 257.5 114.5 c 128,-1,23
 306 68 306 68 388 68 c 0,24,25
 427 68 427 68 466.5 77.5 c 128,-1,26
 506 87 506 87 537 100 c 1,27,-1
 537 22 l 1,28,29
 506 9 506 9 468.5 -0.5 c 128,-1,30
 431 -10 431 -10 383 -10 c 0,31,32
 262 -10 262 -10 193.5 59 c 128,-1,33
 125 128 125 128 103 246 c 1,34,-1
 23 246 l 1,35,-1
 23 311 l 1,36,-1
 95 311 l 1,37,38
 94 323 94 323 94 331 c 128,-1,39
 94 339 94 339 94 352 c 0,40,41
 94 363 94 363 94.5 373.5 c 128,-1,42
 95 384 95 384 95 390 c 1,43,-1
 23 390 l 1,44,-1
 23 455 l 1,45,-1
 102 455 l 1,46,47
 121 578 121 578 191 650.5 c 128,-1,48
 261 723 261 723 380 723 c 0,0,1
EndSplineSet
EndChar

StartChar: uni2105
Encoding: 8453 8453 374
Width: 821
Flags: W
LayerCount: 2
Fore
SplineSet
236 383 m 0,0,1
 163 383 163 383 114 422.5 c 128,-1,2
 65 462 65 462 65 549 c 0,3,4
 65 611 65 611 88.5 648 c 128,-1,5
 112 685 112 685 152 702 c 128,-1,6
 192 719 192 719 240 719 c 0,7,8
 267 719 267 719 292 714 c 128,-1,9
 317 709 317 709 335 701 c 1,10,-1
 318 649 l 1,11,12
 301 655 301 655 279.5 659.5 c 128,-1,13
 258 664 258 664 239 664 c 0,14,15
 134 664 134 664 134 550 c 0,16,17
 134 437 134 437 237 437 c 0,18,19
 263 437 263 437 287 442 c 128,-1,20
 311 447 311 447 330 454 c 1,21,-1
 330 402 l 1,22,23
 311 393 311 393 285.5 388 c 128,-1,24
 260 383 260 383 236 383 c 0,0,1
640 714 m 1,25,-1
 244 0 l 1,26,-1
 167 0 l 1,27,-1
 563 714 l 1,28,-1
 640 714 l 1,25,-1
756 163 m 0,29,30
 756 82 756 82 713.5 38.5 c 128,-1,31
 671 -5 671 -5 600 -5 c 0,32,33
 535 -5 535 -5 491.5 38.5 c 128,-1,34
 448 82 448 82 448 163 c 0,35,36
 448 245 448 245 490.5 288 c 128,-1,37
 533 331 533 331 603 331 c 0,38,39
 668 331 668 331 712 288 c 128,-1,40
 756 245 756 245 756 163 c 0,29,30
517 163 m 0,41,42
 517 113 517 113 536.5 81 c 128,-1,43
 556 49 556 49 602 49 c 0,44,45
 647 49 647 49 666.5 81 c 128,-1,46
 686 113 686 113 686 163 c 0,47,48
 686 215 686 215 666.5 246 c 128,-1,49
 647 277 647 277 602 277 c 0,50,51
 556 277 556 277 536.5 246 c 128,-1,52
 517 215 517 215 517 163 c 0,41,42
EndSplineSet
EndChar

StartChar: uni2113
Encoding: 8467 8467 375
Width: 520
Flags: W
LayerCount: 2
Fore
SplineSet
311 58 m 0,0,1
 346 58 346 58 372.5 80.5 c 128,-1,2
 399 103 399 103 403 161 c 1,3,-1
 454 161 l 1,4,5
 450 79 450 79 412.5 34.5 c 128,-1,6
 375 -10 375 -10 302 -10 c 0,7,8
 261 -10 261 -10 226 6.5 c 128,-1,9
 191 23 191 23 169.5 61 c 128,-1,10
 148 99 148 99 148 164 c 2,11,-1
 148 277 l 1,12,13
 126 269 126 269 102 262 c 128,-1,14
 78 255 78 255 54 249 c 1,15,-1
 54 308 l 1,16,17
 80 315 80 315 103 322.5 c 128,-1,18
 126 330 126 330 148 337 c 1,19,-1
 148 576 l 2,20,21
 148 617 148 617 162.5 650.5 c 128,-1,22
 177 684 177 684 208.5 704 c 128,-1,23
 240 724 240 724 292 724 c 0,24,25
 350 724 350 724 384.5 685.5 c 128,-1,26
 419 647 419 647 419 577 c 0,27,28
 419 512 419 512 394.5 458.5 c 128,-1,29
 370 405 370 405 327 365 c 128,-1,30
 284 325 284 325 230 302 c 1,31,-1
 230 167 l 2,32,33
 230 117 230 117 249.5 87.5 c 128,-1,34
 269 58 269 58 311 58 c 0,0,1
352 574 m 0,35,36
 352 666 352 666 292 666 c 0,37,38
 254 666 254 666 242 640.5 c 128,-1,39
 230 615 230 615 230 574 c 2,40,-1
 230 366 l 1,41,42
 352 430 352 430 352 574 c 0,35,36
EndSplineSet
EndChar

StartChar: uni2116
Encoding: 8470 8470 376
Width: 1020
Flags: W
LayerCount: 2
Fore
SplineSet
95 0 m 1,0,-1
 95 714 l 1,1,-1
 196 714 l 1,2,-1
 521 126 l 1,3,-1
 525 126 l 1,4,5
 524 152 524 152 522 186 c 128,-1,6
 520 220 520 220 519 254.5 c 128,-1,7
 518 289 518 289 518 314 c 2,8,-1
 518 714 l 1,9,-1
 597 714 l 1,10,-1
 597 0 l 1,11,-1
 499 0 l 1,12,-1
 170 590 l 1,13,-1
 166 590 l 1,14,15
 168 564 168 564 169.5 528.5 c 128,-1,16
 171 493 171 493 172.5 458 c 128,-1,17
 174 423 174 423 174 396 c 2,18,-1
 174 0 l 1,19,-1
 95 0 l 1,0,-1
820 134 m 0,20,21
 756 134 756 134 714 178 c 128,-1,22
 672 222 672 222 672 304 c 256,23,24
 672 386 672 386 712.5 429.5 c 128,-1,25
 753 473 753 473 823 473 c 0,26,27
 887 473 887 473 929.5 430 c 128,-1,28
 972 387 972 387 972 304 c 0,29,30
 972 222 972 222 931 178 c 128,-1,31
 890 134 890 134 820 134 c 0,20,21
822 192 m 256,32,33
 866 192 866 192 885 220.5 c 128,-1,34
 904 249 904 249 904 304 c 0,35,36
 904 360 904 360 885 386.5 c 128,-1,37
 866 413 866 413 822 413 c 0,38,39
 779 413 779 413 759 386.5 c 128,-1,40
 739 360 739 360 739 304 c 0,41,42
 739 249 739 249 758.5 220.5 c 128,-1,43
 778 192 778 192 822 192 c 256,32,33
692 0 m 1,44,-1
 692 69 l 1,45,-1
 949 69 l 1,46,-1
 949 0 l 1,47,-1
 692 0 l 1,44,-1
EndSplineSet
EndChar

StartChar: trademark
Encoding: 8482 8482 377
Width: 773
Flags: W
LayerCount: 2
Fore
SplineSet
325 362 m 1,0,-1
 325 714 l 1,1,-1
 419 714 l 1,2,-1
 513 443 l 1,3,-1
 610 714 l 1,4,-1
 701 714 l 1,5,-1
 701 362 l 1,6,-1
 637 362 l 1,7,-1
 637 566 l 2,8,9
 637 574 637 574 638 597.5 c 128,-1,10
 639 621 639 621 640 633 c 1,11,-1
 636 633 l 1,12,-1
 535 362 l 1,13,-1
 482 362 l 1,14,-1
 386 633 l 1,15,-1
 382 633 l 1,16,17
 383 617 383 617 384 597 c 128,-1,18
 385 577 385 577 385 571 c 2,19,-1
 385 362 l 1,20,-1
 325 362 l 1,0,-1
118 362 m 1,21,-1
 118 660 l 1,22,-1
 17 660 l 1,23,-1
 17 714 l 1,24,-1
 283 714 l 1,25,-1
 283 660 l 1,26,-1
 181 660 l 1,27,-1
 181 362 l 1,28,-1
 118 362 l 1,21,-1
EndSplineSet
EndChar

StartChar: uni2126
Encoding: 8486 8486 378
Width: 717
GlyphClass: 2
Flags: W
AnchorPoint: "Anchor-1" 358 714 basechar 0
AnchorPoint: "Anchor-0" 358 0 basechar 0
LayerCount: 2
Fore
SplineSet
25 0 m 1
 25 79 l 1
 183 79 l 1
 146 107 146 107 111 149.5 c 0
 76 192 76 192 53.5 251 c 0
 31 310 31 310 31 384 c 0
 31 482 31 482 69 559 c 0
 107 636 107 636 180 680.5 c 0
 253 725 253 725 358 725 c 0
 464 725 464 725 537 681 c 0
 610 637 610 637 648 560 c 0
 686 483 686 483 686 385 c 0
 686 310 686 310 664 251 c 0
 642 192 642 192 607.5 149.5 c 0
 573 107 573 107 535 79 c 1
 692 79 l 1
 692 0 l 1
 424 0 l 1
 424 72 l 1
 486 116 486 116 523 162 c 0
 560 208 560 208 576 261.5 c 0
 592 315 592 315 592 381 c 0
 592 457 592 457 567 517 c 0
 542 577 542 577 490.5 611.5 c 0
 439 646 439 646 358 646 c 0
 278 646 278 646 226.5 611.5 c 0
 175 577 175 577 150.5 517 c 0
 126 457 126 457 126 381 c 0
 126 315 126 315 142 261.5 c 0
 158 208 158 208 194.5 162.5 c 0
 231 117 231 117 293 72 c 1
 293 0 l 1
 25 0 l 1
EndSplineSet
EndChar

StartChar: estimated
Encoding: 8494 8494 379
Width: 619
Flags: W
LayerCount: 2
Fore
SplineSet
309 -17 m 0,0,1
 225 -17 225 -17 167 22 c 128,-1,2
 109 61 109 61 79.5 124 c 128,-1,3
 50 187 50 187 50 259 c 256,4,5
 50 331 50 331 73 383 c 128,-1,6
 96 435 96 435 133.5 469 c 128,-1,7
 171 503 171 503 217 519 c 128,-1,8
 263 535 263 535 309 535 c 0,9,10
 383 535 383 535 441.5 501.5 c 128,-1,11
 500 468 500 468 534 406 c 128,-1,12
 568 344 568 344 568 259 c 1,13,-1
 164 259 l 1,14,-1
 164 85 l 1,15,16
 186 62 186 62 225 43.5 c 128,-1,17
 264 25 264 25 309 25 c 0,18,19
 382 25 382 25 425 55 c 128,-1,20
 468 85 468 85 502 139 c 1,21,-1
 537 119 l 1,22,23
 514 82 514 82 484.5 51 c 128,-1,24
 455 20 455 20 413 1.5 c 128,-1,25
 371 -17 371 -17 309 -17 c 0,0,1
455 436 m 1,26,27
 436 456 436 456 398 475 c 128,-1,28
 360 494 360 494 308 494 c 0,29,30
 259 494 259 494 223 477 c 128,-1,31
 187 460 187 460 164 437 c 1,32,-1
 164 301 l 1,33,-1
 455 301 l 1,34,-1
 455 436 l 1,26,27
EndSplineSet
EndChar

StartChar: oneeighth
Encoding: 8539 8539 380
Width: 830
Flags: W
LayerCount: 2
Fore
SplineSet
110 0 m 1,0,-1
 546 714 l 1,1,-1
 621 714 l 1,2,-1
 185 0 l 1,3,-1
 110 0 l 1,0,-1
164 562 m 2,4,5
 164 588 164 588 165.5 609 c 128,-1,6
 167 630 167 630 168 651 c 1,7,8
 158 642 158 642 146 631.5 c 128,-1,9
 134 621 134 621 121 612 c 2,10,-1
 67 573 l 1,11,-1
 32 622 l 1,12,-1
 162 714 l 1,13,-1
 235 714 l 1,14,-1
 235 286 l 1,15,-1
 164 286 l 1,16,-1
 164 562 l 2,4,5
601 -8 m 0,17,18
 528 -8 528 -8 489 24 c 128,-1,19
 450 56 450 56 450 112 c 0,20,21
 450 153 450 153 472.5 180 c 128,-1,22
 495 207 495 207 527 224 c 1,23,24
 496 244 496 244 479.5 265.5 c 128,-1,25
 463 287 463 287 463 325 c 0,26,27
 463 361 463 361 482 386 c 128,-1,28
 501 411 501 411 532.5 423.5 c 128,-1,29
 564 436 564 436 601 436 c 0,30,31
 656 436 656 436 696 409.5 c 128,-1,32
 736 383 736 383 736 328 c 0,33,34
 736 291 736 291 715 267 c 128,-1,35
 694 243 694 243 664 227 c 1,36,37
 703 211 703 211 726.5 183.5 c 128,-1,38
 750 156 750 156 750 115 c 0,39,40
 750 59 750 59 708.5 25.5 c 128,-1,41
 667 -8 667 -8 601 -8 c 0,17,18
602 254 m 1,42,43
 631 265 631 265 649.5 281.5 c 128,-1,44
 668 298 668 298 668 326 c 0,45,46
 668 352 668 352 650 366.5 c 128,-1,47
 632 381 632 381 600 381 c 256,48,49
 568 381 568 381 550 366.5 c 128,-1,50
 532 352 532 352 532 326 c 256,51,52
 532 300 532 300 552 283 c 128,-1,53
 572 266 572 266 602 254 c 1,42,43
599 48 m 0,54,55
 641 48 641 48 661 66 c 128,-1,56
 681 84 681 84 681 112 c 0,57,58
 681 141 681 141 658.5 160 c 128,-1,59
 636 179 636 179 598 192 c 2,60,-1
 585 197 l 1,61,62
 552 181 552 181 535 161 c 128,-1,63
 518 141 518 141 518 112 c 0,64,65
 518 84 518 84 538 66 c 128,-1,66
 558 48 558 48 599 48 c 0,54,55
EndSplineSet
EndChar

StartChar: threeeighths
Encoding: 8540 8540 381
Width: 830
Flags: W
LayerCount: 2
Fore
SplineSet
148 278 m 0,0,1
 111 278 111 278 79 284.5 c 128,-1,2
 47 291 47 291 17 306 c 1,3,-1
 17 369 l 1,4,5
 87 335 87 335 149 335 c 0,6,7
 201 335 201 335 225 355.5 c 128,-1,8
 249 376 249 376 249 411 c 0,9,10
 249 447 249 447 220 463.5 c 128,-1,11
 191 480 191 480 139 480 c 2,12,-1
 82 480 l 1,13,-1
 82 535 l 1,14,-1
 139 535 l 2,15,16
 189 535 189 535 212.5 554.5 c 128,-1,17
 236 574 236 574 236 605 c 0,18,19
 236 637 236 637 215.5 651.5 c 128,-1,20
 195 666 195 666 166 666 c 0,21,22
 135 666 135 666 108.5 655.5 c 128,-1,23
 82 645 82 645 55 628 c 1,24,-1
 19 674 l 1,25,26
 50 697 50 697 84.5 710 c 128,-1,27
 119 723 119 723 165 723 c 0,28,29
 236 723 236 723 272 692 c 128,-1,30
 308 661 308 661 308 613 c 0,31,32
 308 573 308 573 286.5 547 c 128,-1,33
 265 521 265 521 235 511 c 1,34,-1
 235 508 l 1,35,36
 274 501 274 501 297.5 475.5 c 128,-1,37
 321 450 321 450 321 409 c 0,38,39
 321 351 321 351 279 314.5 c 128,-1,40
 237 278 237 278 148 278 c 0,0,1
143 0 m 1,41,-1
 579 714 l 1,42,-1
 654 714 l 1,43,-1
 218 0 l 1,44,-1
 143 0 l 1,41,-1
613 -8 m 0,45,46
 540 -8 540 -8 501 24 c 128,-1,47
 462 56 462 56 462 112 c 0,48,49
 462 153 462 153 484.5 180 c 128,-1,50
 507 207 507 207 539 224 c 1,51,52
 508 244 508 244 491.5 265.5 c 128,-1,53
 475 287 475 287 475 325 c 0,54,55
 475 361 475 361 494 386 c 128,-1,56
 513 411 513 411 544.5 423.5 c 128,-1,57
 576 436 576 436 613 436 c 0,58,59
 668 436 668 436 708 409.5 c 128,-1,60
 748 383 748 383 748 328 c 0,61,62
 748 291 748 291 727 267 c 128,-1,63
 706 243 706 243 676 227 c 1,64,65
 715 211 715 211 738.5 183.5 c 128,-1,66
 762 156 762 156 762 115 c 0,67,68
 762 59 762 59 720.5 25.5 c 128,-1,69
 679 -8 679 -8 613 -8 c 0,45,46
614 254 m 1,70,71
 643 265 643 265 661.5 281.5 c 128,-1,72
 680 298 680 298 680 326 c 0,73,74
 680 352 680 352 662 366.5 c 128,-1,75
 644 381 644 381 612 381 c 256,76,77
 580 381 580 381 562 366.5 c 128,-1,78
 544 352 544 352 544 326 c 256,79,80
 544 300 544 300 564 283 c 128,-1,81
 584 266 584 266 614 254 c 1,70,71
611 48 m 0,82,83
 653 48 653 48 673 66 c 128,-1,84
 693 84 693 84 693 112 c 0,85,86
 693 141 693 141 670.5 160 c 128,-1,87
 648 179 648 179 610 192 c 2,88,-1
 597 197 l 1,89,90
 564 181 564 181 547 161 c 128,-1,91
 530 141 530 141 530 112 c 0,92,93
 530 84 530 84 550 66 c 128,-1,94
 570 48 570 48 611 48 c 0,82,83
EndSplineSet
EndChar

StartChar: fiveeighths
Encoding: 8541 8541 382
Width: 830
Flags: W
LayerCount: 2
Fore
SplineSet
139 0 m 1,0,-1
 575 714 l 1,1,-1
 650 714 l 1,2,-1
 214 0 l 1,3,-1
 139 0 l 1,0,-1
159 277 m 0,4,5
 127 277 127 277 92 283.5 c 128,-1,6
 57 290 57 290 35 303 c 1,7,-1
 35 370 l 1,8,9
 62 354 62 354 96.5 344.5 c 128,-1,10
 131 335 131 335 157 335 c 0,11,12
 202 335 202 335 228.5 355 c 128,-1,13
 255 375 255 375 255 418 c 0,14,15
 255 456 255 456 228.5 477 c 128,-1,16
 202 498 202 498 154 498 c 0,17,18
 128 498 128 498 109.5 494 c 128,-1,19
 91 490 91 490 76 486 c 1,20,-1
 45 506 l 1,21,-1
 61 714 l 1,22,-1
 304 714 l 1,23,-1
 304 659 l 1,24,-1
 119 659 l 1,25,-1
 110 550 l 1,26,27
 122 552 122 552 136.5 554 c 128,-1,28
 151 556 151 556 168 556 c 0,29,30
 235 556 235 556 280 522 c 128,-1,31
 325 488 325 488 325 424 c 0,32,33
 325 354 325 354 283 315.5 c 128,-1,34
 241 277 241 277 159 277 c 0,4,5
612 -8 m 0,35,36
 539 -8 539 -8 500 24 c 128,-1,37
 461 56 461 56 461 112 c 0,38,39
 461 153 461 153 483.5 180 c 128,-1,40
 506 207 506 207 538 224 c 1,41,42
 507 244 507 244 490.5 265.5 c 128,-1,43
 474 287 474 287 474 325 c 0,44,45
 474 361 474 361 493 386 c 128,-1,46
 512 411 512 411 543.5 423.5 c 128,-1,47
 575 436 575 436 612 436 c 0,48,49
 667 436 667 436 707 409.5 c 128,-1,50
 747 383 747 383 747 328 c 0,51,52
 747 291 747 291 726 267 c 128,-1,53
 705 243 705 243 675 227 c 1,54,55
 714 211 714 211 737.5 183.5 c 128,-1,56
 761 156 761 156 761 115 c 0,57,58
 761 59 761 59 719.5 25.5 c 128,-1,59
 678 -8 678 -8 612 -8 c 0,35,36
613 254 m 1,60,61
 642 265 642 265 660.5 281.5 c 128,-1,62
 679 298 679 298 679 326 c 0,63,64
 679 352 679 352 661 366.5 c 128,-1,65
 643 381 643 381 611 381 c 256,66,67
 579 381 579 381 561 366.5 c 128,-1,68
 543 352 543 352 543 326 c 256,69,70
 543 300 543 300 563 283 c 128,-1,71
 583 266 583 266 613 254 c 1,60,61
610 48 m 0,72,73
 652 48 652 48 672 66 c 128,-1,74
 692 84 692 84 692 112 c 0,75,76
 692 141 692 141 669.5 160 c 128,-1,77
 647 179 647 179 609 192 c 2,78,-1
 596 197 l 1,79,80
 563 181 563 181 546 161 c 128,-1,81
 529 141 529 141 529 112 c 0,82,83
 529 84 529 84 549 66 c 128,-1,84
 569 48 569 48 610 48 c 0,72,73
EndSplineSet
EndChar

StartChar: seveneighths
Encoding: 8542 8542 383
Width: 830
Flags: W
LayerCount: 2
Fore
SplineSet
97 0 m 1,0,-1
 533 714 l 1,1,-1
 608 714 l 1,2,-1
 172 0 l 1,3,-1
 97 0 l 1,0,-1
99 286 m 1,4,-1
 269 654 l 1,5,-1
 48 654 l 1,6,-1
 48 714 l 1,7,-1
 343 714 l 1,8,-1
 343 665 l 1,9,-1
 173 286 l 1,10,-1
 99 286 l 1,4,-1
609 -8 m 0,11,12
 536 -8 536 -8 497 24 c 128,-1,13
 458 56 458 56 458 112 c 0,14,15
 458 153 458 153 480.5 180 c 128,-1,16
 503 207 503 207 535 224 c 1,17,18
 504 244 504 244 487.5 265.5 c 128,-1,19
 471 287 471 287 471 325 c 0,20,21
 471 361 471 361 490 386 c 128,-1,22
 509 411 509 411 540.5 423.5 c 128,-1,23
 572 436 572 436 609 436 c 0,24,25
 664 436 664 436 704 409.5 c 128,-1,26
 744 383 744 383 744 328 c 0,27,28
 744 291 744 291 723 267 c 128,-1,29
 702 243 702 243 672 227 c 1,30,31
 711 211 711 211 734.5 183.5 c 128,-1,32
 758 156 758 156 758 115 c 0,33,34
 758 59 758 59 716.5 25.5 c 128,-1,35
 675 -8 675 -8 609 -8 c 0,11,12
610 254 m 1,36,37
 639 265 639 265 657.5 281.5 c 128,-1,38
 676 298 676 298 676 326 c 0,39,40
 676 352 676 352 658 366.5 c 128,-1,41
 640 381 640 381 608 381 c 256,42,43
 576 381 576 381 558 366.5 c 128,-1,44
 540 352 540 352 540 326 c 256,45,46
 540 300 540 300 560 283 c 128,-1,47
 580 266 580 266 610 254 c 1,36,37
607 48 m 0,48,49
 649 48 649 48 669 66 c 128,-1,50
 689 84 689 84 689 112 c 0,51,52
 689 141 689 141 666.5 160 c 128,-1,53
 644 179 644 179 606 192 c 2,54,-1
 593 197 l 1,55,56
 560 181 560 181 543 161 c 128,-1,57
 526 141 526 141 526 112 c 0,58,59
 526 84 526 84 546 66 c 128,-1,60
 566 48 566 48 607 48 c 0,48,49
EndSplineSet
EndChar

StartChar: uni0326
Encoding: 806 806 384
Width: 0
GlyphClass: 4
Flags: W
AnchorPoint: "Anchor-7" 2 -221 basemark 0
AnchorPoint: "Anchor-7" 0 0 mark 0
AnchorPoint: "Anchor-4" 0 0 mark 0
AnchorPoint: "Anchor-0" 0 0 mark 0
LayerCount: 2
Fore
SplineSet
64 -70 m 1,0,1
 60 -88 60 -88 47.5 -115.5 c 128,-1,2
 35 -143 35 -143 18.5 -171 c 128,-1,3
 2 -199 2 -199 -16 -221 c 1,4,-1
 -64 -221 l 1,5,-1
 -64 -209 l 1,6,7
 -56 -192 -56 -192 -47.5 -165.5 c 128,-1,8
 -39 -139 -39 -139 -32 -110.5 c 128,-1,9
 -25 -82 -25 -82 -23 -61 c 1,10,-1
 64 -61 l 1,11,-1
 64 -70 l 1,0,1
EndSplineSet
EndChar

StartChar: uni2074
Encoding: 8308 8308 385
Width: 350
Flags: W
LayerCount: 2
Fore
SplineSet
341 512 m 1,0,-1
 280 512 l 1,1,-1
 280 416 l 1,2,-1
 205 416 l 1,3,-1
 205 512 l 1,4,-1
 10 512 l 1,5,-1
 10 564 l 1,6,-1
 207 847 l 1,7,-1
 280 847 l 1,8,-1
 280 572 l 1,9,-1
 341 572 l 1,10,-1
 341 512 l 1,0,-1
205 665 m 2,11,12
 205 686 205 686 206 714 c 128,-1,13
 207 742 207 742 208 766 c 1,14,15
 203 755 203 755 187 730.5 c 128,-1,16
 171 706 171 706 160 689 c 2,17,-1
 80 572 l 1,18,-1
 205 572 l 1,19,-1
 205 665 l 2,11,12
EndSplineSet
EndChar

StartChar: uni2075
Encoding: 8309 8309 386
Width: 350
Flags: W
LayerCount: 2
Fore
SplineSet
299 844 m 1,0,-1
 299 789 l 1,1,-1
 114 789 l 1,2,-1
 105 680 l 1,3,4
 117 682 117 682 131.5 684 c 128,-1,5
 146 686 146 686 163 686 c 0,6,7
 230 686 230 686 275 652 c 128,-1,8
 320 618 320 618 320 554 c 0,9,10
 320 484 320 484 278 445.5 c 128,-1,11
 236 407 236 407 154 407 c 0,12,13
 122 407 122 407 87 413.5 c 128,-1,14
 52 420 52 420 30 433 c 1,15,-1
 30 500 l 1,16,17
 57 484 57 484 91.5 474.5 c 128,-1,18
 126 465 126 465 152 465 c 0,19,20
 197 465 197 465 223.5 485 c 128,-1,21
 250 505 250 505 250 548 c 0,22,23
 250 586 250 586 223.5 607 c 128,-1,24
 197 628 197 628 149 628 c 0,25,26
 123 628 123 628 104.5 624 c 128,-1,27
 86 620 86 620 71 616 c 1,28,-1
 40 636 l 1,29,-1
 56 844 l 1,30,-1
 299 844 l 1,0,-1
EndSplineSet
EndChar

StartChar: uni2077
Encoding: 8311 8311 387
Width: 350
Flags: W
LayerCount: 2
Fore
SplineSet
79 416 m 1,0,-1
 249 784 l 1,1,-1
 28 784 l 1,2,-1
 28 844 l 1,3,-1
 323 844 l 1,4,-1
 323 795 l 1,5,-1
 153 416 l 1,6,-1
 79 416 l 1,0,-1
EndSplineSet
EndChar

StartChar: uni2078
Encoding: 8312 8312 388
Width: 350
Flags: W
LayerCount: 2
Fore
SplineSet
176 852 m 0,0,1
 231 852 231 852 271 825.5 c 128,-1,2
 311 799 311 799 311 744 c 0,3,4
 311 707 311 707 290 683 c 128,-1,5
 269 659 269 659 239 643 c 1,6,7
 278 627 278 627 301.5 599.5 c 128,-1,8
 325 572 325 572 325 531 c 0,9,10
 325 475 325 475 283.5 441.5 c 128,-1,11
 242 408 242 408 176 408 c 0,12,13
 103 408 103 408 64 440 c 128,-1,14
 25 472 25 472 25 528 c 0,15,16
 25 569 25 569 47.5 596 c 128,-1,17
 70 623 70 623 102 640 c 1,18,19
 71 660 71 660 54.5 681.5 c 128,-1,20
 38 703 38 703 38 741 c 0,21,22
 38 777 38 777 57 801.5 c 128,-1,23
 76 826 76 826 107.5 839 c 128,-1,24
 139 852 139 852 176 852 c 0,0,1
175 797 m 256,25,26
 143 797 143 797 125 782.5 c 128,-1,27
 107 768 107 768 107 742 c 256,28,29
 107 716 107 716 127 699 c 128,-1,30
 147 682 147 682 177 670 c 1,31,32
 206 681 206 681 224.5 697.5 c 128,-1,33
 243 714 243 714 243 742 c 0,34,35
 243 768 243 768 225 782.5 c 128,-1,36
 207 797 207 797 175 797 c 256,25,26
160 613 m 1,37,38
 127 597 127 597 110 577 c 128,-1,39
 93 557 93 557 93 528 c 0,40,41
 93 500 93 500 113 482 c 128,-1,42
 133 464 133 464 174 464 c 0,43,44
 216 464 216 464 236 482 c 128,-1,45
 256 500 256 500 256 528 c 0,46,47
 256 557 256 557 233.5 576 c 128,-1,48
 211 595 211 595 173 608 c 2,49,-1
 160 613 l 1,37,38
EndSplineSet
EndChar

StartChar: uniFFFC
Encoding: 65532 65532 402
Width: 1000
Flags: W
LayerCount: 2
Fore
SplineSet
41 593 m 1,0,-1
 41 741 l 1,1,-1
 189 741 l 1,2,-1
 189 687 l 1,3,-1
 95 687 l 1,4,-1
 95 593 l 1,5,-1
 41 593 l 1,0,-1
821 687 m 1,6,-1
 821 741 l 1,7,-1
 969 741 l 1,8,-1
 969 593 l 1,9,-1
 916 593 l 1,10,-1
 916 687 l 1,11,-1
 821 687 l 1,6,-1
248 687 m 1,12,-1
 248 741 l 1,13,-1
 380 741 l 1,14,-1
 380 687 l 1,15,-1
 248 687 l 1,12,-1
439 687 m 1,16,-1
 439 741 l 1,17,-1
 572 741 l 1,18,-1
 572 687 l 1,19,-1
 439 687 l 1,16,-1
630 687 m 1,20,-1
 630 741 l 1,21,-1
 763 741 l 1,22,-1
 763 687 l 1,23,-1
 630 687 l 1,20,-1
969 402 m 1,24,-1
 916 402 l 1,25,-1
 916 534 l 1,26,-1
 969 534 l 1,27,-1
 969 402 l 1,24,-1
95 402 m 1,28,-1
 41 402 l 1,29,-1
 41 534 l 1,30,-1
 95 534 l 1,31,-1
 95 402 l 1,28,-1
422 307 m 0,32,33
 422 241 422 241 391 200.5 c 128,-1,34
 360 160 360 160 294 160 c 256,35,36
 228 160 228 160 197 200.5 c 128,-1,37
 166 241 166 241 166 307 c 0,38,39
 166 374 166 374 197 414 c 128,-1,40
 228 454 228 454 294 454 c 256,41,42
 360 454 360 454 391 414 c 128,-1,43
 422 374 422 374 422 307 c 0,32,33
547 450 m 2,44,45
 600 450 600 450 627.5 434 c 128,-1,46
 655 418 655 418 655 377 c 0,47,48
 655 353 655 353 643.5 337 c 128,-1,49
 632 321 632 321 611 317 c 1,50,-1
 611 313 l 1,51,52
 633 309 633 309 648 295 c 128,-1,53
 663 281 663 281 663 247 c 0,54,55
 663 208 663 208 636.5 186 c 128,-1,56
 610 164 610 164 564 164 c 2,57,-1
 463 164 l 1,58,-1
 463 450 l 1,59,-1
 547 450 l 2,44,45
728 161 m 0,60,61
 704 161 704 161 689 166 c 1,62,-1
 689 216 l 1,63,64
 697 215 697 215 704.5 213.5 c 128,-1,65
 712 212 712 212 722 212 c 0,66,67
 740 212 740 212 752 220.5 c 128,-1,68
 764 229 764 229 764 254 c 2,69,-1
 764 450 l 1,70,-1
 825 450 l 1,71,-1
 825 256 l 2,72,73
 825 207 825 207 798 184 c 128,-1,74
 771 161 771 161 728 161 c 0,60,61
228 307 m 256,75,76
 228 262 228 262 244 236.5 c 128,-1,77
 260 211 260 211 294 211 c 0,78,79
 329 211 329 211 344.5 236.5 c 128,-1,80
 360 262 360 262 360 307 c 256,81,82
 360 352 360 352 344.5 377.5 c 128,-1,83
 329 403 329 403 294 403 c 0,84,85
 260 403 260 403 244 377.5 c 128,-1,86
 228 352 228 352 228 307 c 256,75,76
555 337 m 2,87,88
 578 337 578 337 586.5 345 c 128,-1,89
 595 353 595 353 595 369 c 0,90,91
 595 400 595 400 552 400 c 2,92,-1
 523 400 l 1,93,-1
 523 337 l 1,94,-1
 555 337 l 2,87,88
95 210 m 1,95,-1
 41 210 l 1,96,-1
 41 343 l 1,97,-1
 95 343 l 1,98,-1
 95 210 l 1,95,-1
969 210 m 1,99,-1
 916 210 l 1,100,-1
 916 343 l 1,101,-1
 969 343 l 1,102,-1
 969 210 l 1,99,-1
523 289 m 1,103,-1
 523 214 l 1,104,-1
 559 214 l 2,105,106
 583 214 583 214 592 224.5 c 128,-1,107
 601 235 601 235 601 253 c 0,108,109
 601 269 601 269 592 279 c 128,-1,110
 583 289 583 289 557 289 c 2,111,-1
 523 289 l 1,103,-1
969 19 m 1,112,-1
 916 19 l 1,113,-1
 916 151 l 1,114,-1
 969 151 l 1,115,-1
 969 19 l 1,112,-1
95 19 m 1,116,-1
 41 19 l 1,117,-1
 41 151 l 1,118,-1
 95 151 l 1,119,-1
 95 19 l 1,116,-1
41 -187 m 1,120,-1
 41 -39 l 1,121,-1
 95 -39 l 1,122,-1
 95 -134 l 1,123,-1
 189 -134 l 1,124,-1
 189 -187 l 1,125,-1
 41 -187 l 1,120,-1
821 -187 m 1,126,-1
 821 -134 l 1,127,-1
 916 -134 l 1,128,-1
 916 -39 l 1,129,-1
 969 -39 l 1,130,-1
 969 -187 l 1,131,-1
 821 -187 l 1,126,-1
630 -187 m 1,132,-1
 630 -134 l 1,133,-1
 763 -134 l 1,134,-1
 763 -187 l 1,135,-1
 630 -187 l 1,132,-1
248 -187 m 1,136,-1
 248 -134 l 1,137,-1
 380 -134 l 1,138,-1
 380 -187 l 1,139,-1
 248 -187 l 1,136,-1
439 -187 m 1,140,-1
 439 -134 l 1,141,-1
 572 -134 l 1,142,-1
 572 -187 l 1,143,-1
 439 -187 l 1,140,-1
EndSplineSet
EndChar

StartChar: uniFFFD
Encoding: 65533 65533 403
Width: 1000
Flags: W
LayerCount: 2
Fore
SplineSet
499 760 m 1,0,-1
 958 302 l 1,1,-1
 499 -156 l 1,2,-1
 41 302 l 1,3,-1
 499 760 l 1,0,-1
531 202 m 2,4,5
 531 227 531 227 541 242 c 128,-1,6
 551 257 551 257 584 282 c 0,7,8
 627 317 627 317 648.5 347.5 c 128,-1,9
 670 378 670 378 670 427 c 0,10,11
 670 494 670 494 624 531 c 128,-1,12
 578 568 578 568 498 568 c 0,13,14
 456 568 456 568 412 554 c 128,-1,15
 368 540 368 540 334 520 c 1,16,-1
 374 433 l 1,17,18
 407 450 407 450 438 461 c 128,-1,19
 469 472 469 472 496 472 c 0,20,21
 527 472 527 472 542 458 c 128,-1,22
 557 444 557 444 557 421 c 0,23,24
 557 393 557 393 544 375.5 c 128,-1,25
 531 358 531 358 498 332 c 0,26,27
 461 302 461 302 444.5 274.5 c 128,-1,28
 428 247 428 247 428 208 c 2,29,-1
 428 179 l 1,30,-1
 531 179 l 1,31,-1
 531 202 l 2,4,5
415 45 m 0,32,33
 415 10 415 10 435 -5.5 c 128,-1,34
 455 -21 455 -21 484 -21 c 0,35,36
 511 -21 511 -21 531.5 -5.5 c 128,-1,37
 552 10 552 10 552 45 c 0,38,39
 552 82 552 82 531.5 97 c 128,-1,40
 511 112 511 112 484 112 c 0,41,42
 455 112 455 112 435 97 c 128,-1,43
 415 82 415 82 415 45 c 0,32,33
EndSplineSet
EndChar

StartChar: uni02F3
Encoding: 755 755 410
Width: 333
Flags: W
LayerCount: 2
Fore
SplineSet
165 -273 m 0,0,1
 116 -273 116 -273 86 -245 c 128,-1,2
 56 -217 56 -217 56 -167 c 256,3,4
 56 -117 56 -117 86 -89 c 128,-1,5
 116 -61 116 -61 165 -61 c 0,6,7
 212 -61 212 -61 244.5 -89 c 128,-1,8
 277 -117 277 -117 277 -166 c 0,9,10
 277 -217 277 -217 245 -245 c 128,-1,11
 213 -273 213 -273 165 -273 c 0,0,1
165 -223 m 0,12,13
 190 -223 190 -223 205.5 -208 c 128,-1,14
 221 -193 221 -193 221 -167 c 0,15,16
 221 -140 221 -140 205 -125.5 c 128,-1,17
 189 -111 189 -111 165 -111 c 0,18,19
 140 -111 140 -111 124.5 -125.5 c 128,-1,20
 109 -140 109 -140 109 -167 c 0,21,22
 109 -193 109 -193 123 -208 c 128,-1,23
 137 -223 137 -223 165 -223 c 0,12,13
EndSplineSet
EndChar

StartChar: Ohorn
Encoding: 416 416 411
Width: 784
GlyphClass: 2
Flags: W
AnchorPoint: "Anchor-1" 391 714 basechar 0
AnchorPoint: "Anchor-0" 391 0 basechar 0
LayerCount: 2
Fore
SplineSet
719 358 m 0,0,1
 719 247 719 247 682 164.5 c 128,-1,2
 645 82 645 82 572 36 c 128,-1,3
 499 -10 499 -10 391 -10 c 0,4,5
 279 -10 279 -10 206 36 c 128,-1,6
 133 82 133 82 97 165 c 128,-1,7
 61 248 61 248 61 359 c 0,8,9
 61 469 61 469 97 551 c 128,-1,10
 133 633 133 633 206.5 679 c 128,-1,11
 280 725 280 725 392 725 c 0,12,13
 474 725 474 725 536 697.5 c 128,-1,14
 598 670 598 670 639 621 c 1,15,16
 681 632 681 632 692 670 c 128,-1,17
 703 708 703 708 703 760 c 1,18,-1
 798 760 l 1,19,-1
 805 749 l 1,20,21
 794 690 794 690 765.5 640 c 128,-1,22
 737 590 737 590 674 567 c 1,23,24
 719 482 719 482 719 358 c 0,0,1
156 358 m 0,25,26
 156 223 156 223 212.5 145.5 c 128,-1,27
 269 68 269 68 391 68 c 256,28,29
 513 68 513 68 568.5 145.5 c 128,-1,30
 624 223 624 223 624 358 c 0,31,32
 624 492 624 492 569 569 c 128,-1,33
 514 646 514 646 392 646 c 0,34,35
 269 646 269 646 212.5 569 c 128,-1,36
 156 492 156 492 156 358 c 0,25,26
EndSplineSet
Ligature2: "'ccmp' Glyph Composition/Decomposition lookup 6 subtable" O uni031B
EndChar

StartChar: ohorn
Encoding: 417 417 412
Width: 616
GlyphClass: 2
Flags: W
AnchorPoint: "Anchor-1" 303 536 basechar 0
AnchorPoint: "Anchor-0" 301 0 basechar 0
LayerCount: 2
Fore
SplineSet
551 269 m 0,0,1
 551 136 551 136 483.5 63 c 128,-1,2
 416 -10 416 -10 301 -10 c 0,3,4
 230 -10 230 -10 174.5 22.5 c 128,-1,5
 119 55 119 55 87 117.5 c 128,-1,6
 55 180 55 180 55 269 c 0,7,8
 55 402 55 402 122 474 c 128,-1,9
 189 546 189 546 304 546 c 0,10,11
 357 546 357 546 401.5 528 c 128,-1,12
 446 510 446 510 478 477 c 1,13,14
 523 491 523 491 534 529.5 c 128,-1,15
 545 568 545 568 545 618 c 1,16,-1
 639 618 l 1,17,-1
 646 607 l 1,18,19
 633 538 633 538 604 491.5 c 128,-1,20
 575 445 575 445 517 424 c 1,21,22
 533 393 533 393 542 354 c 128,-1,23
 551 315 551 315 551 269 c 0,0,1
146 269 m 256,24,25
 146 168 146 168 183.5 115.5 c 128,-1,26
 221 63 221 63 303 63 c 0,27,28
 386 63 386 63 423 115.5 c 128,-1,29
 460 168 460 168 460 269 c 256,30,31
 460 370 460 370 422.5 421 c 128,-1,32
 385 472 385 472 302 472 c 0,33,34
 220 472 220 472 183 421 c 128,-1,35
 146 370 146 370 146 269 c 256,24,25
EndSplineSet
Ligature2: "'ccmp' Glyph Composition/Decomposition lookup 6 subtable" o uni031B
EndChar

StartChar: Uhorn
Encoding: 431 431 413
Width: 780
GlyphClass: 2
Flags: W
AnchorPoint: "Anchor-1" 366 714 basechar 0
AnchorPoint: "Anchor-0" 370 0 basechar 0
LayerCount: 2
Fore
SplineSet
640 617 m 1,0,1
 689 625 689 625 703.5 663 c 128,-1,2
 718 701 718 701 718 760 c 1,3,-1
 811 760 l 1,4,-1
 818 749 l 1,5,6
 810 702 810 702 791.5 661.5 c 128,-1,7
 773 621 773 621 737 593.5 c 128,-1,8
 701 566 701 566 640 555 c 1,9,-1
 640 252 l 2,10,11
 640 178 640 178 612 118.5 c 128,-1,12
 584 59 584 59 524.5 24.5 c 128,-1,13
 465 -10 465 -10 369 -10 c 0,14,15
 233 -10 233 -10 161.5 62.5 c 128,-1,16
 90 135 90 135 90 254 c 2,17,-1
 90 714 l 1,18,-1
 180 714 l 1,19,-1
 180 250 l 2,20,21
 180 164 180 164 227.5 116 c 128,-1,22
 275 68 275 68 371 68 c 0,23,24
 436 68 436 68 475.5 91.5 c 128,-1,25
 515 115 515 115 533 156.5 c 128,-1,26
 551 198 551 198 551 251 c 2,27,-1
 551 714 l 1,28,-1
 640 714 l 1,29,-1
 640 617 l 1,0,1
EndSplineSet
Ligature2: "'ccmp' Glyph Composition/Decomposition lookup 6 subtable" U uni031B
EndChar

StartChar: uhorn
Encoding: 432 432 414
Width: 674
GlyphClass: 2
Flags: W
AnchorPoint: "Anchor-1" 309 536 basechar 0
AnchorPoint: "Anchor-0" 293 0 basechar 0
LayerCount: 2
Fore
SplineSet
708 608 m 1,0,1
 700 561 700 561 682 519 c 128,-1,2
 664 477 664 477 628.5 449 c 128,-1,3
 593 421 593 421 533 414 c 1,4,-1
 533 0 l 1,5,-1
 461 0 l 1,6,-1
 448 71 l 1,7,-1
 444 71 l 1,8,9
 418 29 418 29 372.5 9.5 c 128,-1,10
 327 -10 327 -10 276 -10 c 0,11,12
 178 -10 178 -10 128.5 36.5 c 128,-1,13
 79 83 79 83 79 185 c 2,14,-1
 79 535 l 1,15,-1
 168 535 l 1,16,-1
 168 191 l 2,17,18
 168 63 168 63 287 63 c 0,19,20
 376 63 376 63 410.5 113 c 128,-1,21
 445 163 445 163 445 257 c 2,22,-1
 445 535 l 1,23,-1
 533 535 l 1,24,-1
 533 476 l 1,25,26
 581 484 581 484 594.5 522.5 c 128,-1,27
 608 561 608 561 608 619 c 1,28,-1
 701 619 l 1,29,-1
 708 608 l 1,0,1
EndSplineSet
Ligature2: "'ccmp' Glyph Composition/Decomposition lookup 6 subtable" u uni031B
EndChar

StartChar: uni1EA4
Encoding: 7844 7844 419
Width: 639
GlyphClass: 2
Flags: W
AnchorPoint: "Anchor-2" 519 714 basechar 0
AnchorPoint: "Anchor-1" 318 977 basechar 0
AnchorPoint: "Anchor-0" 324 0 basechar 0
LayerCount: 2
Fore
SplineSet
431 878 m 1,0,1
 451 903 451 903 464 924 c 128,-1,2
 477 945 477 945 493 977 c 1,3,-1
 581 977 l 1,4,-1
 581 967 l 1,5,6
 559 938 559 938 533 912.5 c 128,-1,7
 507 887 507 887 481 866 c 1,8,-1
 431 866 l 1,9,-1
 431 878 l 1,0,1
421 771 m 1,10,11
 396 788 396 788 370 808.5 c 128,-1,12
 344 829 344 829 318 852 c 1,13,14
 292 829 292 829 266 808.5 c 128,-1,15
 240 788 240 788 215 771 c 1,16,-1
 166 771 l 1,17,-1
 166 783 l 1,18,19
 191 812 191 812 220 844.5 c 128,-1,20
 249 877 249 877 272 911 c 1,21,-1
 364 911 l 1,22,23
 387 877 387 877 416 844.5 c 128,-1,24
 445 812 445 812 470 783 c 1,25,-1
 470 771 l 1,26,-1
 421 771 l 1,10,11
545 0 m 1,27,-1
 459 221 l 1,28,-1
 176 221 l 1,29,-1
 91 0 l 1,30,-1
 0 0 l 1,31,-1
 279 717 l 1,32,-1
 360 717 l 1,33,-1
 638 0 l 1,34,-1
 545 0 l 1,27,-1
352 517 m 2,35,36
 349 525 349 525 342 546 c 128,-1,37
 335 567 335 567 328.5 589.5 c 128,-1,38
 322 612 322 612 318 624 c 1,39,40
 311 593 311 593 302 563.5 c 128,-1,41
 293 534 293 534 287 517 c 2,42,-1
 206 301 l 1,43,-1
 432 301 l 1,44,-1
 352 517 l 2,35,36
EndSplineSet
EndChar

